<mxfile host="Electron" agent="Mozilla/5.0 (Windows NT 10.0; Win64; x64) AppleWebKit/537.36 (KHTML, like Gecko) draw.io/27.0.9 Chrome/134.0.6998.205 Electron/35.4.0 Safari/537.36" version="27.0.9">
  <diagram name="Page-1" id="zGLXHjuhpgmFWM6Z2yG4">
    <mxGraphModel dx="1866" dy="1194" grid="1" gridSize="10" guides="1" tooltips="1" connect="1" arrows="1" fold="1" page="1" pageScale="1" pageWidth="850" pageHeight="1100" math="0" shadow="0">
      <root>
        <mxCell id="0" />
        <mxCell id="1" parent="0" />
        <mxCell id="E9nGVDsH-L22k8IpwY4_-1" value="" style="rounded=0;whiteSpace=wrap;html=1;dashed=1;fillColor=none;strokeColor=#00FFFF;fontColor=#FFFFFF;" vertex="1" parent="1">
          <mxGeometry x="212.25" y="150" width="120" height="540" as="geometry" />
        </mxCell>
        <mxCell id="E9nGVDsH-L22k8IpwY4_-2" value="Sources" style="rounded=0;whiteSpace=wrap;html=1;fontSize=24;strokeColor=none;fillColor=none;fontColor=#FFFFFF;" vertex="1" parent="1">
          <mxGeometry x="212.25" y="130" width="120" height="20" as="geometry" />
        </mxCell>
        <mxCell id="E9nGVDsH-L22k8IpwY4_-3" value="" style="rounded=0;whiteSpace=wrap;html=1;dashed=1;fillColor=none;fontColor=#FFFFFF;strokeColor=#00FFFF;" vertex="1" parent="1">
          <mxGeometry x="367.25" y="150" width="665" height="540" as="geometry" />
        </mxCell>
        <mxCell id="E9nGVDsH-L22k8IpwY4_-4" value="Data Warehouse" style="rounded=0;whiteSpace=wrap;html=1;strokeColor=none;fontSize=24;fillColor=none;fontColor=#FFFFFF;" vertex="1" parent="1">
          <mxGeometry x="604.75" y="130" width="230" height="20" as="geometry" />
        </mxCell>
        <mxCell id="E9nGVDsH-L22k8IpwY4_-5" value="" style="rounded=0;whiteSpace=wrap;html=1;dashed=1;fillColor=none;strokeColor=#00FFFF;fontColor=#FFFFFF;" vertex="1" parent="1">
          <mxGeometry x="1067.25" y="150" width="130" height="540" as="geometry" />
        </mxCell>
        <mxCell id="E9nGVDsH-L22k8IpwY4_-6" value="Consumers" style="rounded=0;whiteSpace=wrap;html=1;fontSize=24;strokeColor=none;fillColor=none;fontColor=#FFFFFF;" vertex="1" parent="1">
          <mxGeometry x="1072.25" y="130" width="120" height="20" as="geometry" />
        </mxCell>
        <mxCell id="E9nGVDsH-L22k8IpwY4_-7" value="" style="rounded=0;whiteSpace=wrap;html=1;fontSize=20;strokeColor=#994C00;fillColor=none;fontColor=#FFFFFF;" vertex="1" parent="1">
          <mxGeometry x="382.25" y="210" width="190" height="460" as="geometry" />
        </mxCell>
        <mxCell id="E9nGVDsH-L22k8IpwY4_-8" value="Gold Layer" style="rounded=0;whiteSpace=wrap;html=1;fillColor=#FFFF66;strokeColor=#666666;fontColor=#000000;fontSize=20;" vertex="1" parent="1">
          <mxGeometry x="822.25" y="180" width="190" height="30" as="geometry" />
        </mxCell>
        <mxCell id="E9nGVDsH-L22k8IpwY4_-9" value="Bronze Layer" style="rounded=0;whiteSpace=wrap;html=1;fillColor=#a0522d;strokeColor=#6D1F00;fontColor=#FFFFFF;fontSize=20;" vertex="1" parent="1">
          <mxGeometry x="383.5" y="180" width="190" height="30" as="geometry" />
        </mxCell>
        <mxCell id="E9nGVDsH-L22k8IpwY4_-10" value="" style="rounded=0;whiteSpace=wrap;html=1;fontSize=20;strokeColor=#98A697;fontColor=#FFFFFF;fillColor=none;" vertex="1" parent="1">
          <mxGeometry x="597.25" y="210" width="190" height="460" as="geometry" />
        </mxCell>
        <mxCell id="E9nGVDsH-L22k8IpwY4_-11" value="Silver Layer" style="rounded=0;whiteSpace=wrap;html=1;fillColor=#828282;strokeColor=#666666;fontColor=#FFFFFF;fontSize=20;" vertex="1" parent="1">
          <mxGeometry x="599.75" y="180" width="185" height="30" as="geometry" />
        </mxCell>
        <mxCell id="E9nGVDsH-L22k8IpwY4_-12" value="" style="rounded=0;whiteSpace=wrap;html=1;fontSize=20;strokeColor=#FFFF66;fillColor=none;fontColor=#FFFFFF;" vertex="1" parent="1">
          <mxGeometry x="822.25" y="210" width="190" height="460" as="geometry" />
        </mxCell>
        <mxCell id="E9nGVDsH-L22k8IpwY4_-13" value="" style="image;aspect=fixed;html=1;points=[];align=center;fontSize=12;image=img/lib/azure2/general/Folder_Blank.svg;fontColor=#FFFFFF;" vertex="1" parent="1">
          <mxGeometry x="235.5" y="200" width="69" height="56.00000000000001" as="geometry" />
        </mxCell>
        <mxCell id="E9nGVDsH-L22k8IpwY4_-14" value="" style="image;aspect=fixed;html=1;points=[];align=center;fontSize=12;image=img/lib/azure2/general/File.svg;fontColor=#FFFFFF;" vertex="1" parent="1">
          <mxGeometry x="279" y="230" width="30" height="36.96" as="geometry" />
        </mxCell>
        <mxCell id="E9nGVDsH-L22k8IpwY4_-15" value="CRM" style="rounded=0;whiteSpace=wrap;html=1;strokeColor=none;fontColor=#FFFFFF;fillColor=none;" vertex="1" parent="1">
          <mxGeometry x="249" y="256" width="30" height="14" as="geometry" />
        </mxCell>
        <mxCell id="E9nGVDsH-L22k8IpwY4_-16" value="" style="image;aspect=fixed;html=1;points=[];align=center;fontSize=12;image=img/lib/azure2/general/Folder_Blank.svg;fontColor=#FFFFFF;" vertex="1" parent="1">
          <mxGeometry x="235.5" y="307" width="69" height="56.00000000000001" as="geometry" />
        </mxCell>
        <mxCell id="E9nGVDsH-L22k8IpwY4_-17" value="" style="image;aspect=fixed;html=1;points=[];align=center;fontSize=12;image=img/lib/azure2/general/File.svg;fontColor=#FFFFFF;" vertex="1" parent="1">
          <mxGeometry x="279" y="340.04" width="30" height="36.96" as="geometry" />
        </mxCell>
        <mxCell id="E9nGVDsH-L22k8IpwY4_-18" value="ERP" style="rounded=0;whiteSpace=wrap;html=1;strokeColor=none;fontColor=#FFFFFF;fillColor=none;" vertex="1" parent="1">
          <mxGeometry x="249" y="363" width="30" height="14" as="geometry" />
        </mxCell>
        <mxCell id="E9nGVDsH-L22k8IpwY4_-19" value="&lt;b&gt;Object Type&lt;/b&gt;: CSV Files&lt;div&gt;&lt;b&gt;Interface&lt;/b&gt;: Files &amp;amp; Folders&lt;/div&gt;" style="rounded=0;whiteSpace=wrap;html=1;strokeColor=none;fillColor=none;fontColor=#FFFFFF;" vertex="1" parent="1">
          <mxGeometry x="210" y="440" width="120" height="60" as="geometry" />
        </mxCell>
        <mxCell id="E9nGVDsH-L22k8IpwY4_-20" value="" style="html=1;verticalLabelPosition=bottom;align=center;labelBackgroundColor=#ffffff;verticalAlign=top;strokeWidth=2;strokeColor=#994C00;shadow=0;dashed=0;shape=mxgraph.ios7.icons.data;fillColor=none;fontColor=#FFFFFF;" vertex="1" parent="1">
          <mxGeometry x="439.75" y="280.03999999999996" width="75" height="79.96" as="geometry" />
        </mxCell>
        <mxCell id="E9nGVDsH-L22k8IpwY4_-21" value="" style="html=1;shadow=0;dashed=0;align=center;verticalAlign=middle;shape=mxgraph.arrows2.arrow;dy=0.6;dx=40;notch=0;fillColor=#9999FF;fontColor=#FFFFFF;" vertex="1" parent="1">
          <mxGeometry x="1009" y="315" width="86.75" height="40" as="geometry" />
        </mxCell>
        <mxCell id="E9nGVDsH-L22k8IpwY4_-22" value="" style="html=1;shadow=0;dashed=0;align=center;verticalAlign=middle;shape=mxgraph.arrows2.arrow;dy=0.6;dx=40;notch=0;fillColor=#9999FF;strokeColor=#82b366;fontColor=#FFFFFF;" vertex="1" parent="1">
          <mxGeometry x="313.5" y="315" width="80" height="40" as="geometry" />
        </mxCell>
        <mxCell id="E9nGVDsH-L22k8IpwY4_-23" value="" style="html=1;shadow=0;dashed=0;align=center;verticalAlign=middle;shape=mxgraph.arrows2.arrow;dy=0.6;dx=40;notch=0;fillColor=#9999FF;fontColor=#FFFFFF;" vertex="1" parent="1">
          <mxGeometry x="542.25" y="314.99999999999994" width="86.75" height="40" as="geometry" />
        </mxCell>
        <mxCell id="E9nGVDsH-L22k8IpwY4_-24" value="&lt;b&gt;Object Type&lt;/b&gt;: Tables&lt;div&gt;&lt;div style=&quot;&quot;&gt;&lt;b&gt;Load&lt;/b&gt;:&amp;nbsp;&lt;/div&gt;&lt;div style=&quot;&quot;&gt;&lt;ul&gt;&lt;li&gt;Batch Processing&lt;/li&gt;&lt;li&gt;Full Load&lt;/li&gt;&lt;li&gt;Truncate &amp;amp; Insert&lt;/li&gt;&lt;/ul&gt;&lt;div&gt;No &lt;b&gt;Transformations&lt;/b&gt;&lt;/div&gt;&lt;div&gt;&lt;b&gt;Data Model&lt;/b&gt; : None(as - is)&lt;/div&gt;&lt;/div&gt;&lt;/div&gt;" style="rounded=0;whiteSpace=wrap;html=1;strokeColor=none;fillColor=none;align=left;fontColor=#FFFFFF;" vertex="1" parent="1">
          <mxGeometry x="393.5" y="460" width="170" height="80" as="geometry" />
        </mxCell>
        <mxCell id="E9nGVDsH-L22k8IpwY4_-25" value="Raw Data" style="text;strokeColor=none;align=center;fillColor=none;html=1;verticalAlign=middle;whiteSpace=wrap;rounded=0;fontSize=14;fontColor=#FFFFFF;" vertex="1" parent="1">
          <mxGeometry x="442.25" y="355" width="72.5" height="30" as="geometry" />
        </mxCell>
        <mxCell id="E9nGVDsH-L22k8IpwY4_-26" value="" style="html=1;verticalLabelPosition=bottom;align=center;labelBackgroundColor=#ffffff;verticalAlign=top;strokeWidth=2;strokeColor=#878787;shadow=0;dashed=0;shape=mxgraph.ios7.icons.data;fillColor=none;fontColor=#FFFFFF;" vertex="1" parent="1">
          <mxGeometry x="652.25" y="280.03999999999996" width="75" height="79.96" as="geometry" />
        </mxCell>
        <mxCell id="E9nGVDsH-L22k8IpwY4_-27" value="" style="html=1;verticalLabelPosition=bottom;align=center;labelBackgroundColor=#ffffff;verticalAlign=top;strokeWidth=2;strokeColor=#FFFF66;shadow=0;dashed=0;shape=mxgraph.ios7.icons.data;fillColor=none;fontColor=#FFFFFF;" vertex="1" parent="1">
          <mxGeometry x="877.62" y="280.03999999999996" width="75" height="79.96" as="geometry" />
        </mxCell>
        <mxCell id="E9nGVDsH-L22k8IpwY4_-28" value="&lt;b&gt;Object Type&lt;/b&gt;: Views&lt;div&gt;&lt;div style=&quot;&quot;&gt;No&lt;b&gt; Load&lt;/b&gt;&lt;/div&gt;&lt;div style=&quot;&quot;&gt;&lt;div&gt;&lt;b&gt;Transformations:&lt;/b&gt;&lt;/div&gt;&lt;div&gt;&lt;ul&gt;&lt;li&gt;Data Integrations&lt;/li&gt;&lt;li&gt;Aggregations&lt;/li&gt;&lt;li&gt;Business Logic&lt;/li&gt;&lt;/ul&gt;&lt;/div&gt;&lt;div&gt;&lt;b&gt;Data Model&lt;/b&gt; :&amp;nbsp;&lt;/div&gt;&lt;div&gt;&lt;ul&gt;&lt;li&gt;Star Schema&lt;/li&gt;&lt;li&gt;Flat Table&lt;/li&gt;&lt;li&gt;Aggregated Table&lt;/li&gt;&lt;/ul&gt;&lt;/div&gt;&lt;/div&gt;&lt;/div&gt;" style="rounded=0;whiteSpace=wrap;html=1;strokeColor=none;fillColor=none;align=left;fontColor=#FFFFFF;" vertex="1" parent="1">
          <mxGeometry x="839" y="490" width="170" height="80" as="geometry" />
        </mxCell>
        <mxCell id="E9nGVDsH-L22k8IpwY4_-29" value="Cleaned,Standardized Data" style="text;strokeColor=none;align=center;fillColor=none;html=1;verticalAlign=middle;whiteSpace=wrap;rounded=0;fontSize=14;fontColor=#FFFFFF;" vertex="1" parent="1">
          <mxGeometry x="656" y="363" width="72.5" height="30" as="geometry" />
        </mxCell>
        <mxCell id="E9nGVDsH-L22k8IpwY4_-30" value="&lt;b&gt;Object Type&lt;/b&gt;: Tables&lt;div&gt;&lt;div style=&quot;&quot;&gt;&lt;b&gt;Load&lt;/b&gt;:&amp;nbsp;&lt;/div&gt;&lt;div style=&quot;&quot;&gt;&lt;ul&gt;&lt;li&gt;Batch Processing&lt;/li&gt;&lt;li&gt;Full Load&lt;/li&gt;&lt;li&gt;Truncate &amp;amp; Insert&lt;/li&gt;&lt;/ul&gt;&lt;div&gt;&lt;b&gt;Transformations:&lt;/b&gt;&lt;/div&gt;&lt;div&gt;&lt;ul&gt;&lt;li&gt;Data Cleansing&lt;/li&gt;&lt;li&gt;Data Standardization&lt;/li&gt;&lt;li&gt;Data Normalization&lt;/li&gt;&lt;li&gt;Derived Columns&lt;/li&gt;&lt;li&gt;Data Enrichment&lt;/li&gt;&lt;/ul&gt;&lt;/div&gt;&lt;div&gt;&lt;b&gt;Data Model&lt;/b&gt; : None(as - is)&lt;/div&gt;&lt;/div&gt;&lt;/div&gt;" style="rounded=0;whiteSpace=wrap;html=1;strokeColor=none;fillColor=none;align=left;fontColor=#FFFFFF;" vertex="1" parent="1">
          <mxGeometry x="617.25" y="500" width="170" height="80" as="geometry" />
        </mxCell>
        <mxCell id="E9nGVDsH-L22k8IpwY4_-31" value="Business-Ready Data" style="text;strokeColor=none;align=center;fillColor=none;html=1;verticalAlign=middle;whiteSpace=wrap;rounded=0;fontSize=14;fontColor=#FFFFFF;" vertex="1" parent="1">
          <mxGeometry x="870.49" y="363" width="89.25" height="30" as="geometry" />
        </mxCell>
        <mxCell id="E9nGVDsH-L22k8IpwY4_-32" value="" style="endArrow=none;html=1;rounded=0;fontColor=#FFFFFF;strokeColor=#FFFFFF;" edge="1" parent="1">
          <mxGeometry width="50" height="50" relative="1" as="geometry">
            <mxPoint x="389.13" y="419.37" as="sourcePoint" />
            <mxPoint x="567.88" y="419.37" as="targetPoint" />
          </mxGeometry>
        </mxCell>
        <mxCell id="E9nGVDsH-L22k8IpwY4_-33" value="" style="endArrow=none;html=1;rounded=0;fontColor=#FFFFFF;strokeColor=#FFFFFF;" edge="1" parent="1">
          <mxGeometry width="50" height="50" relative="1" as="geometry">
            <mxPoint x="604.75" y="419.38" as="sourcePoint" />
            <mxPoint x="783.5" y="419.38" as="targetPoint" />
          </mxGeometry>
        </mxCell>
        <mxCell id="E9nGVDsH-L22k8IpwY4_-34" value="" style="endArrow=none;html=1;rounded=0;fontColor=#FFFFFF;strokeColor=#FFFFFF;" edge="1" parent="1">
          <mxGeometry width="50" height="50" relative="1" as="geometry">
            <mxPoint x="830.25" y="419.37" as="sourcePoint" />
            <mxPoint x="1009" y="419.37" as="targetPoint" />
          </mxGeometry>
        </mxCell>
        <mxCell id="E9nGVDsH-L22k8IpwY4_-35" value="" style="endArrow=none;html=1;rounded=0;fontColor=#FFFFFF;strokeColor=#FFFFFF;" edge="1" parent="1">
          <mxGeometry width="50" height="50" relative="1" as="geometry">
            <mxPoint x="210" y="419.37" as="sourcePoint" />
            <mxPoint x="330" y="419.37" as="targetPoint" />
          </mxGeometry>
        </mxCell>
        <mxCell id="E9nGVDsH-L22k8IpwY4_-36" value="" style="html=1;shadow=0;dashed=0;align=center;verticalAlign=middle;shape=mxgraph.arrows2.arrow;dy=0.6;dx=40;notch=0;fillColor=#9999FF;fontColor=#FFFFFF;" vertex="1" parent="1">
          <mxGeometry x="762.25" y="310.02" width="86.75" height="40" as="geometry" />
        </mxCell>
        <mxCell id="E9nGVDsH-L22k8IpwY4_-37" value="" style="image;aspect=fixed;html=1;points=[];align=center;fontSize=12;image=img/lib/azure2/analytics/Power_BI_Embedded.svg;fontColor=#FFFFFF;" vertex="1" parent="1">
          <mxGeometry x="1095.75" y="280.03999999999996" width="29.97" height="39.96" as="geometry" />
        </mxCell>
        <mxCell id="E9nGVDsH-L22k8IpwY4_-38" value="" style="shape=image;imageAspect=0;aspect=fixed;verticalLabelPosition=bottom;verticalAlign=top;image=data:image/png,iVBORw0KGgoAAAANSUhEUgAAADAAAAAwCAYAAABXAvmHAAAACXBIWXMAAAsTAAALEwEAmpwYAAABH0lEQVR4nO2XvQ2DMBBGbwHvkSY70GUIKOhpqIAmE6SAOqFIJglVZskWF1kKkgt+fNhgjO9JnyxZFPd8trABmGHK+hFVTYtyBB8pWcDRqvcp6nsut5Ac1XnYM1XT4lycFohPQJk1OpBebygDLgVMDnHKAhoE1QEqKQsMrDQ1QFhpaiAogTGCOgPf4ox9dL5PWUAD7sAWW6ic+IO66ECcvaMk61COxgIUqAJjhCFQLrzHq0UuDYwUrST/C+TqvJWX1FoCSdbhXI7VAe/PQDACn9MJZdYQEJcXyhgLTOFCwCosMIHgDljeQlSEzQ70hVJDKZQaCErA+y00RlACMfEPKlhAg8N3IDa4x4stBOYgv6T2htFLam9Yvce7gAUY8IMfuT9B6eZNKYoAAAAASUVORK5CYII=;fontColor=#FFFFFF;" vertex="1" parent="1">
          <mxGeometry x="1132.25" y="276.02" width="48" height="48" as="geometry" />
        </mxCell>
        <mxCell id="E9nGVDsH-L22k8IpwY4_-39" value="BI &amp;amp; Reporting" style="text;strokeColor=none;align=center;fillColor=none;html=1;verticalAlign=middle;whiteSpace=wrap;rounded=0;fontSize=14;fontColor=#FFFFFF;" vertex="1" parent="1">
          <mxGeometry x="1087.62" y="325" width="89.25" height="30" as="geometry" />
        </mxCell>
        <mxCell id="E9nGVDsH-L22k8IpwY4_-40" value="" style="shape=image;imageAspect=0;aspect=fixed;verticalLabelPosition=bottom;verticalAlign=top;image=data:image/png,iVBORw0KGgoAAAANSUhEUgAAAgAAAAIACAYAAAD0eNT6AAAACXBIWXMAAA7DAAAOwwHHb6hkAAAAGXRFWHRTb2Z0d2FyZQB3d3cuaW5rc2NhcGUub3Jnm+48GgAAIABJREFUeJzs3XecVNXZwPHfc2eXjh2lI8IWwFgSU4waX03UaGy0VVCxgdi7Ys/aUGPvoiKKiro0W0jToEmMJSZGI7AFWASk2BEU2J25z/vHsrDA7O7MvWfa7vP9fBSYuec5z+7Oznnm3nPPEYwxxphEvPrR9qxr0w+8PqB1/4nsguj2qGwP7AB0AGm3eUNdD3yP8h3Ct8DnIMsR/RxYiup8InnzOabfUkQ07V9XKyWZTsAYY0wWmj63D+Tth/h7od4eoIOAninudR3oXJAPED4A7z9E2/2Xkl5rU9xvq2QFgDHGGCgr74vHr0EOBPYHemTJCLEeeBeYje+/Qce8tzmiYH2mk2oJsuPHa4wxJr1K1WPg/APw/KOBI4DirY7JzhFiNcifQF9G/FkMGfBlphPKVdn54zXGGJMaZRU/weN4oATo0eSx2T9CxEBeQ/ynyV8zk6P2+T7TCeWS7P/xGmOMCefZj7anbZtRIGOBAQm3y5URom7e4GqQGWjsEYYOfCfTKeWCXPnxGmOMSVZZ5V54eiF1n/bbJ90+V0aILW8cEN5H5X7aeS/YfIHG5cqP1xhjTKKmzvs/JHIF6GGh4uTKCNHonYOyEvw7iPqPUDJoTVpzygG58uM1xhjTnBnlB6PchMq+TuLlygjR/NIBXyB6F548wDHFq9ORUi7IlR+vMcaYxpTN+xGejAc51GncXBkhEl876EvgNqKxeykZVJPCjHJCrvx4jTHGbKlsTle8vNuBE0jF+3mujBDJLx5YjnrnMbTwtVSkkyty5cdrjDGmXql6DKo8EeEuYMeU9ZMrI0Tg1YPlVaLRcygZtNhpPjkiV368xhhjoG5mv+gTCHunvK9cGSHCbR+wBvR6Pv/uXsbuU+sqpVyQKz9eY4xp3WbPzuOLbpeA3AC0Scu7d66MEG72D/oP6AiGDKh0ESwX5MqP1xhjWq9pFcUoTwP7bHwscwXACmAuyjw8WYTvr8BjGdHICtrGviFSs5avtIZRe34HQNmCbYms7wB57fFi2xP1OhCRLqjfH5X+CP2B/tRtNBTsq3K3geAa0HMZMuApVwGzmRUAxhiTzaZVjkD1UaDTZo+n493b41uUf4K8hR/7B+p/RMmgr1LS16TqdnSu3RPR/VEOQNgP2Cmhtq53EBam0DZyFkcUfOs2cHaxAsAYY7LRrKq2fK93o3pW3OdT9+79AfAK6Cv4RR9QIrGU9dQUVWHq/AFE9ADQo4BDgDZxj3VdANRZiMgIBhe9l4rg2cAKAGOMyTZlc7oieS8CP230GLfv3h+APEmeN5Nj+y9xGtmVVz/annVtBiNeCegvgbyNz6WmAABYB3IqQ4qeT1UHmWQFgDHGZJMZFXsS05dBejd5XPh37y9ReZqIPsmQog9DR0unVyp2ooaZwP7Ahu9FyooABa5lSPHNqeogU6wAMMaYbDG18kjQ59jyen88wd+956PcTbvOT3JU99zcPnd6xY+Bt4EIkMozAA1N4vM1Y1vSrYJWABhjTDaYWn4CKk8iDU5tNyX5d+//gtzExwUzKRU/6dbZYsL7+ezU+X1gj42PpacAAHgdaTuMwX2/SVeHqeRlOgFjjGn1ysrPQmUyJDj4J6ca1RP5uPBHDCucntODP8BOna6g4eAPpPGz7C/R9bMpm7NDujpMJTsDYIwxmfRC5aWI3r7x34m+Kzd/3LeI/pZY7KEWs/FNWdVAIv5/gLabPZ6+MwD1/kObml9x5B5fp7tjl6wAMMaYTJlaeR6q9232mJsC4FXyImdn7Yz+IErV4weVfwP22+q59BcAIPoB+bW/zOUiwAoAY4zJhBcqxiBMYMv34XAFwCd4eiZDiv8YLrksNKPyfFTvjftcYncBKM7HPHmHdt5hubpgkM0BMMaYdHuhcgTCIzgdkHQKft6eLXLwnzlvV1SbuA0vgTMAIg8gMhj4wlle6M9YF5vFK+93cBczfawAMMaYdJpacQCik3D3/rsK1RMZVnwCJf1WOYqZPVQFlQkkcmtk4xZRG72KwUUvEmFPRF9zlR6wH7WdnkQ1586o51zCxhiTs56v6ofnvw10afSY5C4BVOLJsQwpnBc+uSw1o/JUVJ9o8pjm5gD4+muGDfjTxn+rCjMrLgfG46oQU72eoQNKncRKEysAjDEmHcrm7AB571K3813jEi8AXiJfT+KY4tWhc8tWZXO6EsmbAzR9212TBYA8xZCiU+I+NWPeEJAngc4BM2xIEY5ncHGZg1hpYZcAjDEm1UrVg7ynaW7wT9x4hhYObtGDP0Ak/36aG/ybJCuJRi9u9OkhA2aA/3NgafA+NnWG8iTTyvdp/tDsYAWAMcak2oDKa4EjHETyEbmA4UVXI5m49y2NZlQOAR0WLoie1+z2xUMGfoyX93PQueH6AqA9Hi/x0v92cRAr5awAMMaYVHph3mHAdQ4i1aByEsMK72v+0Bz36kfbo/pAuCA6kyHFUxM69Nj+S4j6B1C3v0BY3Ym1eTwXJgVaAWCMMakypWIn8J4k/HttDNGTKCmc4iCr7Le+zZ1AtxARVhH1zkuqRcmgr+i4/hDQv4XodwM9kpkVY8PHSS0rAIwxJlUi8jDQNWSUGCInMSx3JpeFMr38IJBTQka5mJKiT5Nuddie39Eu7yhU3w3ZP8CdvFRe5CBOylgBYIwxqVBWeUr4a9j4iJ7CsMLnXKSU9SZ/2BHkccLdofY6g4smBW59RMG3eO1+DXwUIgeADsR4mgnv54eMkzJWABhjjGvT53ZD9Z7QcVSuYFjxMw4yyg0d298E7Ba4vfId6p0ReoLk4L7fEJUjCH93wI/ZudO1IWOkjBUAxhjjWjRyD7BtuCDyBCWFtzd/XAsxrfKnoMldt9/aNQwtXOgkn5KiT/EihwHhNvtRxmXrpQArAIwxxqXnKw4HSkLFUF7jq2/PdJNQDiib0wbRiUAkcAzVd4kV3e8uKeDYgrn4ciLgh4jShhh3u0rJJSsAjDHGlUnV7YBwt68JS4gygrH71LpJKgdE8q4CBoWIUIPoaEok5iqljYYVzULkhpBRDufFeUc5ycchKwCMMcaVjrXnISGuYUMt6h/PyCKHO9ZluRlzdweuDBVDZDxDBn7sJqE4Piy8EfT3oWLEvLuYVdXWUUZOWAFgjDEuzJi3I6pXhYohXMnwAf90lFH2K9MIGpkItAkeRD6mNnqLs5ziKRWffO8UYEXgGKL9Wd/EssQZYAWAMca4UBu5BtgueAB5g2GFdznLJxd4lRcAPwkRIYYympJBNa5SatRRRV/gy+lA8DsMVK5kxrwd3SUVjhUAxhgT1vSqnqBnhYjwHRFOb/Hr+zc0vXI3RG8MFUO4l2GFLhbtScywolnAhBAROiNygat0wrICwBhjworGLgOCX98VudLZ7Wu5QFVAHwHpECLKIqLR3zrLKVERLgeSX2Vwk/OZWR3iTJE7VgAYY0wYUxbuAowOEeFfzCl40FU6OWFG5enAISEiKD6jKRm0xlVKCTumeDVCmGv52yLrznaWTwhWABhjTBiR6EUhPskqvnc+pRLmPvPc8lJ5dyDsAkdPMLzodRfpBDK4uAzhT4Hbq1zInz7s6DCjQKwAMMaYoF5Z1gHljBARnuH4gnec5ZMLovIgoSZLsgyvzaWu0glMIhcDQdcd6MJ37TK+W6AVAMYYE9R3q0eCbh+ssX5PTK9wm1CWm1E+HDg2VAzlHAb3/cZNQiEcWzAXCL7pkOjZdXMhMscKAGOMCSzEzH+VhxlRvMxhMtmtbM4OqIRbqlcoY1jRi44yCi/Cb4HvA7bux4vlB7pMJ1lWABhjTBBlVfuC/DBYY/2eWH7r2egHIJJ3N7BLiAhfEck/31U6ThxTvAw0xG2Bcrq7ZJJnBYAxxgThx04O3FblYUbuttJhNtlt2rzDgFGhYggXcUwWfs807y4g6EJEQzN5S6AVAMYYk6yyOW1QGRawdZQ87x6n+WSzyR92RLyHQsUQXmdw4dOOMnJraMFS4JmArdvD+hEu00mGFQDGGJOsWN5vEIIu6Tp9w6DROnRsdwuE2iBpDRrL8lUSvTsIvkTwaS4zSYYVAMYYkyxPRgZuq+p2z/psNr18P+CccEHkKoYO/MRJPqkypHAe8GbA1vvwypzeLtNJlBUAxhiTjFlVbVH9dcDW/+W44rec5pOtZlW1BXmMcOPMW/wvR1ZJFH00cNto5DcOM0mYFQDGGJOM1dH/AzoFbJ2d17FTYV3sWmBAiAjrUUbnzCqJbfNmAF8EbH2ky1QSlZeJTo1p8co0wlfV+6H6c5BiRAeg9EW0M9AOAOF7YCFINfgLgH/SJu8vnJoFi5yYJnhHBWwYI6bPO00lW82o2BPl8lAxVG5kWGG5o4xS74iC9cwonwacGaD1QbzyfgeO2ifomgKBWAFgjCul6tF14a9RhvLlwqOALnVPbJgbtPWaXx2A3UF33/DkhdTEojw6/x3Qmag3kbH9VqUpe5Mo5YiALd9oFQv/zJ6dx1cyETQ/RJQP+fLb3znLKV2UMiRQAdCeWMdfAq+4TqkpdgnAmLDKNMKDC0aw88IPUX5P3azeLgGj5QH7g9yJ6BIeXXAXD1fv6ixXE07Zgt5A30BtRaa6TSZLfdXtYtAfhYgQxfNPZ+w+tc5ySpdY0d+AFYHaqpf2ywBWABgTxiMLjuCLhXMRpgC7O47eGfQiIrFKHp9/I/dVBd9v3rgRiwZdulXx5PdOc8lG0+YWgJSGCyJ3MXjAv53kk24lEkPl5WCN/f3dJtM8KwCMCeLxJTvw0IJn8fk9UJji3vJRrqE9/2XCgrS/SZgGhF8EbPe/Fn/vv6og3mNA++BBpIpY+1JXKWWE5/85WEMpZlbVNm6TaZoVAMYk66GFe7C+9l9A8HvBA5FiPH2Tx+dnfivU1itYAeYzy3Ee2WdG1RkgYTa3UUTGUNJrrbOcMqLd60A0QEOP2liYSycBOjTGJO6h+Yej+k/QgCubhd7900O5nUfn30+ZRsIGM0mY/GFHAp/t8WY7zSXbTK/qCXpbqBiqExhSEHQxnexRt1XxvwK1VX7iNpmmWQFgTKIeWng0KjOBjsGDOFrNVDiXVQumUjrb7uRJl3Yd9iDYe6aP573rOp3sEnsI2DZEgKWsi4xzlU3GifwzUDsVKwCMyToPLPwFvk4Fsmki3mB69r4300m0Gn5sr0DthHmUtODbOadVjgAJujZCHZGzOLHgW0cZZZ5qwIJPf+w2kaZZAWBMc+6r6ofodIQ24YOFvgSwBT2bxxdc4DioiUfZI2C7tx1nkj1eqdgJ0XBFqPAcQwpfdZRRdojGgp7x6ZXOiYBWABjTlAnv5xPxngd2chMwFRua6Z08URVm8pVJhEj/gA3/5zaRLFIj9xB8zQuAL4h6La+ALRm0mKDLAtfGdnWaSxOsADCmKTXbXw3sk+k0mhFBecTWCUi5YBM/hXmO88gO0yt/A3pCuCByASUFn7tJKOsEXcZ4V5dJNMUKAGMa81DlbghXZDqNhCjFdKDlTKLKNhPezwcCbtmqc53mkg2eqdoG9OGQUWYxtHCKk3yyU7ACIGYFgDGZ50duIzWT/r4GalIQ90oeX9gnBXFNp216EWzvlNUML2x56/+311uBXoHbC98SiQRZMz+HaEWgZhJwqekArAAwJp6H5+8ODHUTTN5AdCziDWBFvwhn9t+BM/u3xWcXRI5CeQxY7aCjdkjsPAdxzJYisnOgdsqniKRi4kfmTK04AHRsuCAyjmP7L3GTUJZSL+jXt6vLNJpi9xAbE0/MuwA05JR9+QCVszm77ztxnz6r/2fAq8CrPPTJOCK1VwIXEeb3UjmdB+eUcs6gNYFjmK0JXQLN3/Qk2MYw2WpSdTu8mscJ9+HxbwwumOAqpawVYRl+oJY9HGfSKDsDYMyWHpzTCQg3uUm4h9rYvo0O/ls6u8/XjO1/Oaq/QALuJlZnO9q2PSVEexOParC7QFSXO84ks7at+S3h9r5Yi/hjWtxZkXjUC3jpR0MsNJYcOwNgzJb8Dr9BNMSGJnozZ/a/JlDTMwve5tEFB4L+DdglUAzRYcADgdqa+JQdgy3hICtdp5Ix06t+iPrh9qEQvZ4hAyodZZRes2fn8d2OnfHbbIevnfDpBNoJvO2AzkAnVDshsg2wLRrbIVhHYgWAMRkj/rEhFuyZwlkBB/96Z/Sr5PH5Q/F5g2C/o/sysbwzpxe7mFdgAPDbB3tN+C3jUszs2Xl86U9EwowZ8m+2X3anu6QS8Mr7HajdrhPqd8KLbY/SCY3UDdyevy3KNiid8LxO+HRGdDtkw0COdALqB/fOfE27Bl/LFn/W/9PJQl9WABiTORJsy1fkS7xaN4uajO7/Fo/NvxflkgCt26CR/wNecZKLAU/aBVvDSXJ8Z7sNvup+GUKwpZDr1OIxmoMOan6XvFc/2p5oh074fv1AvC3CNqCdUDoh2hlkO5ROQN1A7cW2qxvAvQ2fyqn7FF6LB9G6cbp+So9suDC/8d+A6qaxXOsfzBgrAIzJiPsX9QW/e7DGOp6xRcFW/4qnNv9m8mrHAp2SbityAFYAuKOBbwfN/QKgrLwIuC5UDGEhPiOYXnEWQudNn7BlG9BtoX4wpxPrAWINGuvmC2huNTdX6x6TDX/Pfe0o0wglEmv+0HCsADCmoUhsIH6g6r8W0Wec5nJ2n695bP7zKKOTbxx0u2LTiGAFgOg6x3mkV6l6RCofh4anvwNQikAv3/B3tvi4bTYnMLc9kPLLR3YXgDENqQRdhOPvG27rc0s12Kd4Sd+9xK2DNH/qOh7fy+0PWXtUngXsn+k0Wp1ObWrT0Y0VAMY0pBLw9D8fOc2jXiT2fqB2agWAY8FWbpSs2j46OWULeqPckuk0WqEYRxSsT0dHVgAYsxk/2O1/SpXjROqcVrQcCPLpM20TiVoF9VtfASDRe6ibAW/S6/t0dWQFgDENScBrneLm/p84cRUIcjowLacQWw3PC/aJTP1w184zpWzeDxCOzXQarZNYAWBMRqh8F6wdIRYOasJdS9pDoNip2Gyo9VL9JmDLLk7zSBfxRpDhe+FaLw32HhSAFQDGbC7YG734ezjOo07n2oKALdNyDbHVUPkqWMOAmwhlmujumU6h1dL0rR1hBYAxDal+Gqyh7Os2kQ18//8CtVNZ4DaRVs6LfRmonQRczjnTVPIznULr5Qd7rQVgBYAxDUmkPGDL/jw4/+dOcwEQRgRrqB+7TaSV8yXYm7LSzXEm6SEScCMbE5rIJ+nqygoAYxrKj82FgJt4ilzsNJdHKn8B/CxYLsxxmktrV5u3OGDL3syqyr07AURfzXQKrdiidHVkBYAxDY3ttwrkg4CtB/NQ9YFO8pjwfj7i3RMiwgDKlqRmYmJrNKr/Z0CQyVkRvqG/63RSLhb9PZC2T6I5Igp8jVIN/A94G+QvwFTgCeA+kPHAFaieCXwYsJ+0fd9ze5UqY1JC/wr8KEBDD/EnM2HRzxi7a8h94Lf9HcLeIQKcw+p1R/J41WWMLpgaLhezwSJgUNKtPC2CHDsjUzKohrKKE4kwm9weJ76nbkndNcDXdX/qGkTW4MsqRL9FZA3KasRfg8rXiKxBWEPUW4PoKtrot3zRZg2n9k1uWecZ884PdiOFLArQKJBc/sEakxo+0/C4LGDr3vixPzJh0a8DFwGPLfgtqhcG7L+hPghlTKx6E08v5NTC/zqI2ZpVE6QAEH8QMMN5NqlWUvQPppcPBZkMbJvGnr9h06C9ZsO/V9f9XdYA3264LbNuIMdfg3rfEGE10dq6x9pGv+X9H6yiVIJdzgtrUnU7WF8YqK0XTdsZALvP05h4Hlg4D7QYaPy3JN7jmx5bAv4ozip4I+E+H/pke/JqH4Q4E/+azUHjPLbZcTHQiSDXcFrB5wnnZDZ5vuIW4Iq4zzX5TqqvcFzx0alIKS1mztuVmFyEeCeBbh/niNq6gVk3fMJmDaJrUG8V1H/C9lcjrEG9Dcf4dZ+yRVcR028R1pDnreGY4tXp/eJSZPrcHyLev+M+1/SoG6U21pGSQWlZx8MKAGPiub/6AsSvuwYfrAAAUFTK8PQOzuzX+Jr+D8zbkTb5p6KMA3ZKIG6cx5stAOp9g3AjNavuZ+w+tlpgMl6oHIHqlLjPNf1O+hnHFeXm7YBbemnhLsRqu6KyGomtol3emnStW59TZpafhfJQ3Oeafq18yODivVKRUjxWABgTz4RlHahdWw3sHKIAaPh4Fegb4FUi/reg+UBPkJ8CP6fhdrOpLQDqH6hA5GJO7TerkchmS1OqBuH58W+vbO6dVHQ3Soqr3SdlstLM8mdRRsZ9rqnXivI4Q4rHpCaprdkcAGPiGdv9ex5YMAs4xVHEApAC8Dfth57R8luLUP09T1T9AY1dxOnFFZnMJid0W1rByu5rCbQ0s+xP3RwC0zoE3EJZ3nObRtPsNkBj4nlgwVnAye4DZ9lJN+FwvMj/eLLqLiZVb5fpdLLaQQdFgX8FaqtymNtkTNaaXrkbSu9AbUWCvb4CsgLAmC09uHAMyAOkZLTW5g9Jv3yUiyC6gEmVF1CmkUwnlLWEfwRrqIdRqvZ+2xp4/lEBW37Pdp+mdQVPe0Ea09D91WeiTKB1/m7sAHIP389/n8lVbhY0amk0aAHATuxe8UOnuZgspUcGaiZ8sOEsU9q0xjc5Y+K7v/pMRB8ipefps+wSQHx74fMGT1ZNZdK8XTOdTFbx8v4JxAK1jckQt8mYrFO2YFtUghXPvrzpOJtmZee70UkrdiZfOm38dzQWZbduyyiVtFZHphW5v/pM0IeQhr8TG07Xu7kLYPOY6Y4buC9dC9yJt/ZWRu2Ztn3Ks9rzFf8A9tvssUTeSYWFDC/sj0hWXgcyDkyvOAnRyU0e09hrxff3ZejAd9wnlXwq6TNi2U7kyZGIHIAwEKQI8esWm2iYnRBF+AR0IXjv4cksvtn5XaZKsGrcmHr1gz+bD/+pKQCcxV2H6O9BjgUiKSwA6v/yKSJXMKr/s61+AHuu4iqEmzd7LLECAHxvX44vSOubvEmjGeWvAb9s8pi4rxVZyYeF3dO9cmFmCoCTVnRE9VTwhuPpfkBk88E+zhukEO+xr0Bm4fv38kT3xhdaMaYxDQd/SMVAHefx0HG/xJdjGdvvHzxauRde5F7wfxE+ryZy3fT42/h6AacWpXW2clYpq9wLXzffMCrRAkC5n+OKzk9JXiazXpzfCz+6iOYurcd/rTzB4OLT3SfVtPQWACd8uQ1e7TnARUCXzTIIVgA0bPMmvt7JxB6vOMzYtGRbDv6QhgIg9CWAtyF6AmO2WFTm8arhwO3Urf8fIK/GHoubrw88jRe9kpMGhtz0KAepCmWVi1F6bnws0QIAvmHdup52OaUFmj7vKkRubva4uL9zMoRji2a6Tyr5VFJAhRM/OwO4BXT75gf2QAVA/WN/xvfO5PGutuiGaVy8wZ8t/5VVZwDWArfw6ZJbKG1kpnDZkvasWnspnowDOiafVxO5xj92NSLj+Ya7OT8Ny8GWVXclun5nYCfUq/uUpf5aInmL6bpkeVpnUD9fcQdwycZ/J14AgHIGxxU9loq0TIbMnp3H193mA32aPXbL14qwjvbrd+Kw9BeFqS8ARi7rg0Qmg/6iyUHcXQEAdft2X0P3bvdlbDcok73urz4T3XLC3wbJD9Q+ohPx5WiEXVJwBsBHmUrEG8fo3T5ppMXmHqvqicetwMiN0VJTANQ/thDVSznZ4SeY2bPzWNp9X8Q7HHRfYA+EHZpoEUWYg/I26JuoN4sTC751ls+Wyub9CN/bdNkxmQIA/ktJUZitnk22mVlegvJCQsdu+VpRXmZI8THuk0o+FbdGLj8IpAxhp816S30BUP/3GXSIncjdvdYmn7xpkeoHf+IO/8kWAD6qp3JO/8lMqm7HOv9UlAsRtt4GNPnCYg3wHBHvTk7fLdgyvROr9gW9F+THKS4A6g99nUjsIk4c8L9kU91ocuUARMcgchJseN9oqv946o5bj/AX1HuQEf3+lJKJi89XlANFCee22fdKD+a44tnOczKZMaPibdCfJXTs1gXAsQwpfsl9Usmn4s7IlSeBPgHkbTV4p68AAORtVI/m0e5fJJW/aXkaDv6Q+OAX/7fEhw2D/5YerN6LiA5F9Sjq9o/PSzDup6i+QURewe/wCmO7f9/0F5SAUvXoVTUKzxuParetnndZANSJIvoovn8dJw/4MuE8p1QNQvV6lCGN9JRsAdBQOchvGdF/qtNC4IXKa1C9MeHcNj9mNiVFBzvLxWTOjIr9Qf+e8PGbvw6Wsd3yPuleACh+Kq6M+OxUxH+c+tmQGS0AAI9K1DuAR7p+luBXYFqa+6rHgj5Mw1dI8AKg8cF/S5Oq27He3x3V3RHZBfztEdkOpQZhNcoKoAqNlHNW30VJfEXJmVjeGYlcDVxIUjsPBry9EL5CKaX3pw83+eY2+cOOeO1vAc4h2OzpZI57G0/P4viiDxOM1LTnyrsjsgjID1AAgOr+HFf8lpNcTObMKP8rcFDCx292JkjGM6Toauc5BUjFjRNWHIkvLyIN1hPPdAFQfyZg3bqDebLvuua/CNOixBv82epfcR6LWwAkPvhnoyer+hHjDoRjgVQWAPXPz0XkIk4s+PNWz00uPxjxHkfo20yUxPpK7LgaVK6jqv/tTuYHPV8+DWRooAIA/TMlxbZJUC6bWfFLVF9Lqs2m14GP7xUwtHCh67QS5XYp4ONW7I4vU4As3ExE96Vd2ydAUzvvwWSX+6rHonEG/2B8RE/L2cEf4JSCBZxeMBjP+xWQjo1HBqL6J56ufImn5/ff+Ogzlech3p8hwcHfnTaI3kpx1YuUzenU/OHNEO+REI0P5YV5VgDksvpLQIHI65kc/MHlGYDDq9qy7TbvI+xeFznOJ4eMngHY6AIe6X5f3K/BtCwNB/9EP702fgagbvA/u/9TbpPMoNLZeezacyzK9cDDFvFjAAAgAElEQVSOGx93ewagoRrgXkQ6oHpOwjFScZwAwn+p8Q5jVP/glwZVhRcq/4cwKGBec+iybK9MXQM2IUyvOA7R55NuV/86UB3KkAEz3CaVHHdnALbZ5gbYMPhnM+Emzlvas/kDTU67JwWf/FvS4A9QelCUUwoeJFZTCHo/QqoHoTbAZZsN/pmk7EW+/xeemrdj8wc3QkRRbguRxSC+6H5GiPYmE14q74zonYHbq8zho+IXHWYUiJsCYPjnRQgXO4mVep2JevdmOgmTQvc0cs0/mJY5+Dc0etBXnFp4PrAX8JdMp5Nme9Am8nsmVbcLHKHrsueARYHbKzdSNqdr4PYm/WJcB/QI3N7jxmxYo8ZNASD+LUCek1h1YsBChH+D/Bf4ymFsgCGcudRuwWmJXA/+tPDBv6FTCuZwasGhwDHA/Eynk0Y/pW3tQ4FbH3RQFOX2EP3vAJEHQrQ36TSzci/gghAR5vHfwqmu0gkjfAFw3IrdN84oDqcW1adRPYLvop15sls/nui2D5O67s2kbjuSp31QzgY+ctAXeF6unLEwiUrF4H9uKxn8Gzql4GU61AwCHQekbjW9bCKcyvMVowK338abiPJJiASG8kLl0ODtTVrMqmqL+pOB/MAxRG/Khk//4OKN8riVE4Aztp7ol8QkQOEv+Izl6UTW71fhtBXDEe5D2GVTnCQnDor6iA7gwZ6Vzfdpsl68wb+xCaPNP+aDnMa5fVvf4L+lSdVd8WpvRjkFifOBIblJgMGPcX1c3GP0KzR/ICN3W5lgT5t7vmIUQuOvmebzWkk0f8/A/ZvUm1F+KzAuRIQKokWDKMmObezDnQE4alkH4IQQERSRy3hql8MSG/wBRHmiWxn5sgfwXoi+PZBzQ7Q32cL1hD8b/Dc5te8KTi48HbyfgLT0RWt2gNrfBW5dXvgMEuoM5S7k1T5Dqbq9Pdu4Mb3yF8CloWIo12TL4A9hC4B2kcPYctex5FzIU7vcsfnpggQ90vUz1svBQJh9yTOyAYNx6J7qsSg2+KfaKf3/zaj+B6CMBJZkLA/hU5C/AtOBPwFzqdue2FX8kTxf1S9Q21Lx8bkiZAa/YmDVlSFjGNemz+2G+M8TZo0b0dcYWjzNXVLhhXvTPG7lJOCUzSIlfAlAH+HpbmeF6h/gtM+740U/RHTzDYfi9RsvP08G8ED38tB5mPS7u/oM4BFAQLd+NSd3CcBHbPBPyIRlHWi3+nKQyxHaN3msk0sAugLlfjx5nhPiLJwyqXo78qNDwD8dkZ+HuARQ/5fHGFEU/Na8sooX0TgfLhK/hBHF00MZapsFZYUJ7+fTpdPrwAEhotQQYQ+OKQ62sVeKhDsDoOwfsOVy1rUNWynXeaLLMpDgsZRDneRh0uvu6jPQ+sE/NBv8kzG2+/ecXFSKRIpBXmCz1YKc8oHf0abDbpxUND7u4A9wat9vOLHgCU4s2g9hGLA0ZL+jKKsIfotXJHYBdVuSB5WHL9OYNrcgRAzjSpdOdxBu8Af0rmwb/CFMATB8eRcg2KkyuJ2pO6wK3PeWVu3yJJDgHIItqP7cWR4mPVwP/iqn2+AfwKh+ixlVcDyiBwL/cRx9Nb5/CCcWjqMkie28RxZOJxb9CfBuiL7bEqMkcOuhAz+BMEvEArADGnmFZz/aPmQcE8aM8vOB80PFEBbTseYmNwm5FbwAkMgAgr0B1wLPBu43nqkSQ3k8WGPZ1WEmJtVSMfif3/dJB7Far5OK/s7Cgh8jOgZwMYP9ezw9glHFfw2Wz8DlrPUPAULs+qfh5gd9s+YuhA9CxYAi8ttOD7VIkQluesVg4O7QcVQv4rA9w5wRSpkQlwC0d7B28g5Pp2Bb3ghb7zaWEN3VaR4mde6wwT9rlYrPSUWP0y5ShHIHdYt5BSNyKSOL/hEqn9OLVyPeUUDAM42yX6glgsfuU4sfGwWsDxwDQDiITjVTmfB+8PvOTfJmVOyP6LOEXitHJ2d6vf+mBP/ilG7B2vlzAvfZZNxuHxJsNvDOXLSk6YlMJvPuqD4DcTj4Y4N/SpT0W4WsLQ0R4W+M7B9ih70GRvRfgvLbgK3zyJdfhur/+IEfg1wTKkadI9mh8zOUaRbustoCzajYH/QP0MwE1+aozCeS3beah7gEQLDTUl7Aa/XNeVRqUYKcWRC+q2njPB/jjg3+ucVvuxeBb5eSm5EAtwU3Zs23DxH0soTIwND9zyu4C/TN0HGgBKl6itmzXS65bra0afAPu1V0LTCSY4pXO8gqZcKc3gh4Skqyb7Dt2KYm0ymYRtjgn3sikT0CtlzCiQUBL+U1Yuw+tShPB2xdHLr/UvHJ80cAK0LHQk/g824zKLMzlikxc96hjgZ/gGsZWhRmjZq0CFEASLBJDb50Dt5nE0rVQ9g2UNtte9Y6zsa4YIN/blLtHqyh/NFtIhtEJNgOh0KRk/6HDlwOOpIw8yLqiRyFfPcHnqnaJnxiZqMZFaNQeRUXg7/oa3xUFGZzqLQJMQfA/yJQO9EfBe6zKcuX9iPINRuhhlJJ9T7oJll3NFzkJzQb/NNKg80PQv/nNo8N1kf/Haid0sVZDscVzwZczAcA5EDa+v9kZsAVC83mps+7CvRJwmzws8kC8rwR2bLZT3OCFwCetyxgy58xfI77ywB+JNiEHVXbDCjbuB78xQb/9JJgp6iFTx0nUufkAV8SbLEit2vyDy+8DeEZR9EGEfPfZWpFuImKrVnZnE7MmPccIjfj5r3ma3w5kqOKgn04zoDgL3A/GnQ2f0fa7TAycL+NOylQK5WPHedhwrh94Rhs8M91wSbxqaRyE5wg83zc5iOidPRGA393FHFHhD8yreJiVF38vrQeM+YVkhd5G+R4RxFrgWEMK8qpZeWDv8CndlsCfBOssVzqdMer01f8Egi2op+nqbkt0STv9oVjQCZgg39u00CDLYju4DiTOmVzdgDapiR2so4oWE+UIcB8RxHzgDuZVjmLlxbu0uzRBmaWnwjyHrC7w6hnMiTgwlUZFGYSoAJvBGw8iAWfXRS87wYuWtIe0XsDt1f5Beeu6OskFxOc88FfR9vgnymyPFAzZW/HidSpiQwI1lBTc0liZNEXoIcSfs+CTYRfU1P7IdMqjnAWs6WZMW9HZpSXbbgrJNiE8bhkPEOKn3AXL33CfQoXQsza1Zs4edkvQvWPCqvzHgEGhQhyCBqbyzlLb+bsz1zc/mGSlYrB/4J+kxzEMkGIH3R+0EFO86gn3q+DNfQWuE2kgZLiajwOgUBrl8Qn7AL8numVzzBj/s7O4rYE0ysGg3wEDHcbWO9mSNHVbmOmT7gCoNZ7GQg6g74d6r3MScsPDNS6VPMYs/JhYFTA/jfPBbkKr7aCc5adBHY9LW1s8G+BvKDzaoqYUhF0h9H4StXDI+B1XnV1mj6+YUXlIIeBfO00ruoJ+LF5TCs/rdXPDXhpTn9mlM9CdAYQ8PbURojcyZABFzuNmWbhCoAZXZajzArcXtkWkb8wasUVSd0ZcMbKfixZ8VdUxwbuO77uiE7m3OVvc8GSnzqObbZ0+8IxqA3+LY7HBwRblhticrnTXAqqRqH0D9Y4DROESwr/CxyMyzMBdXYAmciMqn8xo/xgx7Gz38zq7ZheMZ5Y5GPg8BT0cAeDiy5NQdy0Cv/Ge9xnh4PO2hhp458NJgJv9VycDEQrUe7FazeFJ7ePP7nw9E/3Bm80MBpos3kcbSJ23P6aO05Bn0H9K3igd9BTmqYxdYP/I4C31asw3s+r6X/7qD+ai23wzxpPV36AsldC7zBbHSPDObFgWugcyqq6ENUPgB7N9wlb3LwQQ+lad70+DaZVFOPzGtAj4Xfl5N69/4DHlQwpCrFDYg545f0O1HY6D7gcSM2kUuV3DC0el5LYaebm9NDxK98FfrJZxKQLgI2PxEA/ACknop+h0gnogvAT0B6NDg7uC4D6P9cgcgur1t/Fk33XYcK7deEYvA2DPzQ9yDdfAPgoo7m4b3KD/wMLClGvO+o3v7a6i9XXU7WC+8a4zSwyp/o533nlnF8Qbne6RD1deQPKtcEKAL7EkwMZWRD8Dp3Zs/NY3uMPwK8S7JPNCwB9mxHFwe4sCqqsvC/In5EEz1gk/+6tG87Y3sbwIle3ImaHmdXbwfozUC6EgBvVNU9RvYahA8anKH7auSkAjlt5KMKfNosYvABIfjAP0ibxAqBeNeJfxr29pmOCu/WTMYj/CNLg8lPwAsCHJAb/SdXtWK3nAecCveO++jd7LM5rqvFckjg2FXHjvJ63Pm41yvPk+ddzclFqZrjXe6pqb0T/E7AAAFiO7x3KqP7Jn4af/GFH8tq/APwmuT4bFgByLSMKb0q677CmVOxEPjOB5udChHv3fgvhftp7L3JEmorCVJhZ1Y9Y7Hw8TsPNGv6NWQuczJDiqSnsI+3cTRA5buU0hKEtuACobzMb9ELu7fURJjm3fjIG0UdAvUZ/jlv+u/Hnkhv8H6zuSkxfBn7caOytHsvAQJ2quJs/9iW+DmF04d8aierG5Kp/IbpPs8c1/i70PcrFLCh4LOGlVZ+r/Ckqj4H+IPk+N34PayHSjxH9lyTUp2uzqtrynU4EPaHJ41y8ewtfoEzG9yZSUjDXQcTUm/xhRzq1G4pyCvB/gOBwA8k4ViByDIOL3ktlJ5ngrgA48fNu1Ppz8diuLnKLLQBAiKE8Rp53LXd2z5llHzNq4+CPB5r4p/z4zyU3+N9X1RYif6fh4B8v9laPtdgCAOBbxP8pp6Zw5bKnqk7D04nNHtf8u9AcVH9HtM3LnNp36/lBpepROP8AVM8Bhm52dimpPrX+j8mMLDq52RippCpMq7wCuJHGtlZ29+5d738I05HYdIYMzK4VUp+p2oYOscNAjkY5Bth8U7nUFQAfEY0dRcmgxanqIJPcvoSOX3E0Ii+yZUXW8gqA+j+/Br2e71Y+xKP72I6Cjbll0Wg8JrDxrpNQBUBygz/APQsvweOOrR5vfZcAtnzwNU7rf0gjkcOb8H4+HbaZBzS9aU2i70JCLcp/gIUIq6nbvKUn8FNgmwbHJRIrDq37X8zfkxMHpGZjomSVlR+MyBRg61X+3BcADS1A9DWUv+JHZlNS8HlKe9vS7Nl5fNnjR4juDxwGHAg0fqeYQNAVqJvwLBHO4pji1a4DZwv3L6ERK68HrmsVBcCmv88DvZi7e6VmO9Ncdsui0QgTNv9UFrgA8JEAE/7uXbgQoe9Wj7f6AgDQWDGnF1c08mx4z1SORHm2yWMSLwDcHdd4AVDGiKLjEuwpPZ4r705EnkPYfOG01BYADftQhEpU/w3yH0Q/IEI5xxS7uTtqUnU7OkcHIP7uILuD7kNdUdcx8TydDv6rgHMYUtz067YFSMFLSIURnz2MNLhHv+UXAPV/fxW4hLt62g6DsGnw3+pWv0AFgA8yhkt2TW7JzfsX9cX3FyY8KLa2AgDO5rSChxt9NixV4Zn5r4E2fi969hQAX6L5gxi528oEe0qfMo0gFZeCXE/9vgbpKwAasw5hIT4LEf0c5UtEvgL5cuMR6n8DXgShM8I2qHYE2Q7oAX5PkN5AVxq7zJFwns4KgLcQPZHBAxa5CpjNUnBzkihFejaVK/OA093HT9rXwMPAmaTqvtBNjgQO5ZKl95O3/kZu67cqxf1lr4aDf3jBBn8AP9YjPe+UiUrpZKXkCT1TG1+UZyvH4PMRyXyiy4yLsnLwByiRGHAb08r/gMrTwB6ZTglohzIQYSBII8Wo0GBuxRbPZ9PvJVGQG4kW3rzhe90qpGb7zVLxmdJ1NMo1ZPIdT2U+nu7LI92vpjZWAPIAwZcuTlQb4BKibSu5dMkYp7se5opbFo2GLBj8ATxNfIXJtMiqNz2QNHx/TihcCIxJeT9hCNMZUfR0ptNo1rDij9Doj4GrQb/PdDotxN/x+RFDim5oTYM/pKoAqPdc15vxOBb3y1wm4kXyYz/j4R511zcn9vqKR7qdhyd7Aa+lof+dUXmUNUvf57LFB6Shv+yQTYN/VsqyMwDpclLhcxBnImZ2+Ade+5MynUTCSgbVMLxoPD67o/w+0+nksBWojGJw0YEMK26Vt3Wn/tPpM11fxuMHiKRrAYXPET2eR7sP5sGeX2717IPd5vBw90MQjsXdntxN2RuVv3H54hcYt6x3GvrLHNeDv7S0wR+y7gxAOi0oGAdk13LNylwitcdQ0mttplNJWklxNcOLjkTlKCA37uHPDlHgXqL5xQwtehpJ7SIC2Sw9p6ef7voZz+xSgucdALyTol6+Ab2BSG0RE3q80OzRD/Z4icj3uwPjgNTf5qFSgh8r57Il11O6rEPK+0s3G/wT1Grfa+ouDbYtGEP2FAEfkqeHUjLoq0wnEsrwwlfxC/dAGYNi+5Y0zkd4AT+2F0OKL6SkFc/R2iAzH0dOXrkfquejHI3QbqtMkpvRXw7yNNG1D/FknEVCEnH2Z12R2vEIJ7Pl+vTJ3QWQaJulqF7O7b2ed33/Skbcsmg0uuWtfjQx07/JuwB8PIeD//3zD8b3Xre7ABpp7+kdnFJ4WSPPpoaq8HTV1Qg3AJKRuwA8eRGv5iRKBq1JMGpueGVZB9avGQ16KdArdLxcOWHV9NtoDOEFJHIzx+bIaodpktkf72mfdyYWPRz1jkD0R0AxkNdMAbAK+ADkLVSm8sQu7na3OnfZPqD3APuluADYQN8CLuR3vd8PkXVm1Q/+Se3q12gB4KMyhssdfvLPugIga1YCrJOJAqDe05W/ASYicRa5icdNARBFuIWKgtKElxfORWVz2hCJnITK5UBh4Di5XQBEEZ7D42aOSeFaFzksu368ZyzrQI0MArqguj2ebI9oDb58TUS+Au8TJnZZkNpPzSqct+x44DagV0oLgLo/fZCn8Guv4va+K8LlnoDbyjtT07ErMd0WdLsNiXxDhK+J5S2ntHviM4tv3uJWv3AFgPvBH8IUACsQbXrHtHjtk7kA0uigHCSGXwDs1WjcbCwAAJ6o6kK+3o0wkubej8IWACJvobGzGdmKJnyVqsfu5YeAnAPyG5K9RJddI0TjNl/XZTEqE1HvCYYWLM1cUtkvV3686XfGsg601XEIlwHtgVQVAPV/X41wE2vW3cv9DnfnKq3eFbxjgZ+B7g3Sn8Y/rftABcK/gfeQvBe5pkf8DVHGLzod5VEC7eq3VQGQmsEfwhQAf+Tc3Q53nk+qPFZ5PiL3ArlVANR7tuInKLeCHNToMcELgCqU8YwseKo1T/hi5rxdicrpiJwAcVbGjCdXRgjRKMqrqDzGx4V/bNFndxzKlR9v5lywrDe+/g6hBNG671dqCoD64+fjcym39X4pcM6Xl3embYcxeDoC2LQbW+PX3Rt7ToF3EJ1C23aTuKzrd8CmwX/LQiJYAVB3q18qBn+wAqBethcA9Z6t3As4H2UIsO1mzyVXAPjAH8G7n8p+f7YBoQFVYVr5vog3EhhK3Up88WX3CBEF/o7wChp7nqEDl2c6oVyT3T/ebHLesgPw/HuAH6a4AKh/5C/k6UXc2GdOwjleuXRH8v0LQM8Ftk98QG7uOQX4HLgPkVUb5klsfdo/+QIgtYM/WAFQL1cKgHqzqtrytf9LVA6h7tLGXsiGnUbj80HmozqbiM6mNjKbUf0zsf5IbilVj4GV+xCRI1H/NyB70/DVkn0jxDfAH1F5mXbr/siRe3yd6YRyWQqWAm6h7u/+d0r1x3yz9DSQm4i3O5dbhxCT/3Ll4kdoK7+ltFfTtypd+8ko8O8CdkxRPl2AGx3expb6wd/kriMK1gOzNvxX57l5u+Ln7wj+9qjmI9Ie9VcSyVtM1yXLOeigVK/y2fLUnRl5b8N/1zGlYifa6s9R9gfZj7oziJlcTXMJyLug7yC8y+er32Ws7bzqihUAyaj7ZXmccQumsr7NNSDnk9pfjjyEc6nVkVyz+Dryek2gVDZ/k7t6SY8Ne64flsI8XPMROYPLbPA3SRgxYBGwKMNZtGwji74AXt7wX91OfdvU/ACR3fH9gSCDEAYCfRz3/AVQjVCNMh/lX0jsXTutn1pWAARRt8nPZZy/5FEichd1mwCl0g4oD1C75Eyu+eQibupTt5TxVYt+iKcvAz1S3L9LPsgZXLbrxEwnYoxpxql91wH/2vDfJrOq2rLG24U8vwe+vwvQE2EnkHagHYE2oJ3Ay0dYja9rEVkD+i3CWlS+A38FEa1GZBHHFKd+MTazFSsAwrivVxVwFBcsPgzPuxsYkOIed0flL1yz+EWQWaB3k/07rDXkA2cwzgZ/Y3Ja3SWaxRv+Mzmq9e1Ulwr39v4T2/bYA2EsdaeyUu1Y0EfJrcFfQc+xwd8YY7KDFQCulEqUO3s+imoRKveR+m2Hc4mieg7j+j6S6USMMcbUsQLAtbt7fcVdPS4A7weI/DHT6WSBuk/+V/R9ONOJGGOM2cQKgFS5s3s5d/Q4HLyjgQWZTidDbPA3xpgsZQVAqt3R4xW+XTkAuBD4NtPppJEN/sYYk8WsAEiHR/ep5fZe9yI6ANWnaA2bwgvn2eBvjDHZywqAdPpd72Xc0fsU4GfAOxnM5FvgLeAlhFdB3wUS3wUwET5tncYzxhjjlK0DkAm/6/Ue6M8Zt/QE4FbSs5BPDfAk6FPQ5x1+u8XmKKWaR2TJwaieBBxP2NeGcDH3VT3I+Q53NjTGGOOMnQHIGFFu6/UMsfwiRG4G1qWws78ifhGlfcZSuus/4+6MVipRru39Z67rcxLKXqBvhuyzB9/lnxAyhjHGmBSxAiDT7uj6Hbf2vAaiA1CmOY8vciPS+xBK+y5KuM11feYQ6/Mr4P5wfWMFgDHGZCkrALLFrX0XcVuv4agcBHzoKOoNlPa+LtBe6KUS5do+54M8GKL/A7l5Yap3TTTGGBOAFQDZ5tZebzC/149AzyTMssKqf+T63qWh8ynqdQGqfw/YOkIkcnToHIwxxjhnBUA2mioxbukzAZGgdwqsw4+MBgl/u2GJxPAiZxN4aWP9WegcjDHGOGd3AWQz1T0DtROe5OZenzrL4+reH3PjomkIxyfdVtnHWR4m+0xY1oEOqw/FZy9EdmHLDxXisK9EP64E/lgTp16Om798D/4neJE/U1IwN2hvCZlWtTe+/grxeyLSLqV9xRP+5/cFUI74sxgy4MvwCTWgKkyv+gnoQUTonjO3Hgd6fWoUlZUQe5vPv3+DsfvUukjFCoBsdeXSHcHvFaitL084zgY8eQLV5AsAYSClc9pQOqjGeU4ms56qHIusuRGVLqEGCpdFAiS2zFaoPrUugO/D8xV/wNNzKCmuDhNxKzPm7k4s8jDq71+Xq2z9dbn+vqWSyvdMr7iHL1aXOhm8Zlb8hBmVDyIbPmCo5tb3IwhRwIOdOy3ixYqLObZoZtiQdgkgW0m0T8CWnxPp9W+nuQB0rvkbdWsJJCuP9p13cp2OybDJlQ8BjwBdMp1Khh2OL+/xXNXeziKWVR1ILPJPYH9nMTNOOgBXsVPnPzGpOtyZjOnlR+PzJrTas4u7ojqdGRVXhA1kBUDWyts2YMO5gWb9N6duQZ85gdpqtLUPEi3L5IpzUM7KdBpZZCc8/yXKFgT9nd3kufLuiD8d6Bw+rax0ENvUBL+9uKy8CGQKkP7LIdlFEB3PjHlHhgliBUC28nW7gC2XOc1jc8Gu4als7zgPkykTyzujckOm08hCvdDYJaGjRLxrgB3Dp5PVTmNa+R6BWka8m4CObtPJWYLInZRq4HHcCoDsFexnI0Qc59FQsGt36jmZsGKyQJ4cAeyQ6TSyk54YqvmE9/MhwETb3OMhXvKLhJUt2BbUbiveXCF7lP80aGMrALKV538TqJ1KKj89BNuzIM//znEeJmOktV53TURfplQEn++yY+d+oK3kbJkm/zqS6B5AG/e55Dr5cdCWVgBkK5FVwRrq3mFOCTWqVPOAwkBtY963bpMxGaPYhM6meBJivouEn0OQMwJc4vTstReXBP++WAGQrTS6JGDLHYh9Emz9gKZEqg8m2MSbGtb3Xuw6HZMhnth7RlP8EN8f3//MYSZZTpL/WtVee3FJ8HHcvqHZavxuKxFWBGorjHGcDSBBN/apolQCriJoTCsyvGgRaGsplv+W6QSMFQDZTYNuCiSjuGpRN2d53LhoACIjgzXWYLcOGtPaiCh4j2Y6jTRYS4zJmU7CWAGQ7d4K2K4jEXnESQZlGkF4kMCrRnqvOcnDmNZg3dp7gNQuL5xpKr+lpMjdUuUmMCsAspq8FLwpR3PdJ1eGTqF88XjgoICtFYn8IXQOxrQWo/b8DtUjgYpMp5Iacg9DC+7IdBamjhUA2Wx8r4+AhYHbC+Mp/eQK0ORXyVYVblx8B8LlgfuH/zCu59IQ7Y1pfUqKq9G8nwJ3AqsznY4b8jGixzK08KK6Sx0mG9hmQNnvSSD4ymvKLfx28b5El5yd8A6BNy7ux82LJwC/DNwvADIhXHvTYqg8huj7cZ/LxGZAcT/6NEhE9Rog2GZcLpT0WwVcyqTqa+gY/Sni90G32A0wFz6+qX4GlDOssDyDWbyH6MQM9p8YlUMQhqWzSysAsl2bvIepjV4BdAgR5Wjy/EMpXfw4njzDtT3f26oKL9MI5Z/8pO4OAh2BhlxrW/mK9fnPhophWg7Pf50Ti17IdBoJe67iTDJZANQ7te864M1Mp5Hjqhg8IPsnV744bxtUrAAwDZR2/4KrFz8JnB0yUjvQc/H1XK5f/AXXf1KBsBzEQ7UL5Yv3Aulcv9NpaMLDlHb/3kEkY4xphpDYqR/TkBUAuUCjNyB5I4GgGwRtaSdgp7rfl5T80qxgfe3vUhHYGGOMG7lwFcmM320lItdlOo2ECZdQWmDL/xpj0sQ+/QdhBUCuqOj5EPBOptNonr7CuD7PZToLY4wxTbMCIFdMlRjqDwGWZzqVJixG80+123yMMSb7pWYOwMjP9gL/FGA/YIeNk8q2/LOhhqVI/WhUKAEAACAASURBVPjR8Lh4bRv+3Ysz5jTVRvymj4ubV5M5+IguR+RNYpGJ3NNtUZxo4YzfdTlXLhlBRP8C5DuPH853eN5QxvX8MtOJGGOMaZ7bAmD4nDbk73QvqmckvEORq3uA68f/hOM1c2Dcp5v7YCv9UQ4gEruMS5bewJ09btlUzThyS683ueaTkSBTyJ4iYC3C0YzrHf8+b2OMMVnHXQFQqh7zPp+G6lHOYuautsDNXPxpF+7iIufRb+ozjauXKKLPkfki4HvEH8yVu/01w3kY0/JMqm5Hp5ofI9oH39t8LZBIhnJKlKiiuhLRcoYMqMx0OmZr7gqAeZ9diGCDf0PChVy29HVu7/mq89g395rOdZ8cjspzQBfn8ROzGOFYrtztgwz1b0zLNLN6O6I110DNGUBnVLY+mZiOmTZhztDqhgAqMK3if4hew9Dilx1lZhxwMwlw+Jw2CFc5idXSKKUpi31Dn9eJeD8EfTtlfTRGeA2p3Ycrd7XB3xiXnpu3K9Gad4BLgM6ZTscJ4QcgLzGj4s5Mp2I2cVMARHY8ANjRSawWR3/EuGW9Uxa+tOdSIr1/AXoB8E3K+tnkc0RP4co+h3JVwedp6M+Y1mPyhx3J834PFGU6lZRQLmZG5aWZTsPUcVMAqLTMF6srMS1MafxSiXJjn/uI1BQBDwNrU9DLKlRvozZSzFV9n7Jb/YxJgXbtLwQGZjqNlFL/el4q757pNIyzdQBkGzdxWihVV0v4Nq20/2fc0PtsvPzeINcAixxEnYPIFeTF+nBt3yso7fWVg5jGmC2pCvhnZDqN1JMO1MqoTGdhXE0CVMT5lp4muNLuXwA3AzdTumQP0CNB/w/YA9ilmdbLgP8A/yTiz+SqvpncxtOY1mNqxa4gqbtcmF1+Adya6SRaO9sMqKUr7fUR8BEwHoDxy7tQU9un7qyEbgPigX6F8DV+9FNK+3+W0XyNaa08b2f8VnJlTbS5DyImDawAaG2u6vY5YJP3jMk2vv+Nu5XRspzI15lOwdheAMYYkx26LF8ArWRgVLFVQ7OAFQDGGJMNDjooivgvZDqNNPBRf0qmkzBWABhjTPaIciPQ0u+0mcSw4o8ynYTJ9BwAkduIrrstoWO3ddy3NvL3prSJTACGO87EGGPqjChextR5Q8F7mZayCuBm9E1iHc/LdBamToYnAfrrmNInd655nf9pjevN/YwxZjPDB7zBjLk/JxZ5GNg/0+k4sha4h1islJJeNZlOxtSxuwCMMSbbDBn4MXAA06t+iB/7FSK9gDaZTit58jWic8lnFv/P3p2HR1WdDxz/vndCABVR3BdUJJMEcKtrXWpLtbZaqUJCBGURXLD6q9Yutrbapra1Wlu1VqvUBRFxmSTgvtWqdWvdqzWQyQRRcd+VnWTu+/sjgCwB7j33zpLk/TwPjzg57zknQzL3veeeZVjFR4XujVmdJQDGGFOsqpIv0r4xlzGxs0mAxhhjTDdkCYAxxhjTDVkCYIwxxnRDlgAYY4wx3ZAlAMYYY0w3ZAmAMcYY0w1ZAmCMMcZ0Q7YPgDHGFLPpr2xOz97b47f1ynvbPSLG+/oRHy16h0n7tsbSHzf9mDl7nwK2H4zKDvlu0hIAY4wpNo8+WsJHO5yE6vcR9kR9kDUGbCUP/fBjqGPLPp/TkL4L8X/HiEHNMdQY1pGoHFmAdjuWj3+3gOwRgDHGFJNUZis+3P4x0GsQ9ix0d2LQFxiLeq8wIz2u0J0xX7IEwBhjisWUub0Q/26EgwvdlRzoiXIjDenhhe6IaWcJgDHGFItNlp0NHFDobuSQAH/n5symhe6IsQTAGGOKQ616KD8odDfyYEt6ZU8odCeMJQDGGFMcdkvvBmxX6G7khcgRhe6CsQTAGGOKQ1Z2LHQX8ij89+qhOehHt2bLADuLX77dH22rRNhstdcTIeoIWjbndWY3XFZkPuI1c/bOr4XojTGdmC4uqjViuSQsDh2j/qfd5v0Jw5dPXEMtASh2P5/3HRL6G8jujyz/4V/1d2DNnFhWeXHN3xVds9w6/n+tOrXjcs51yupf66hOBfDhz6+/ivi/5Ue7pjCmK5PsbCjx6Q4jsyqvho7JZmeT6CbvTxjih38vl7M3spj94s0L8fR+YP9Cd6VwdDdUbudPc28gpWHGJozpXGqGvAf6RKG7kRfi14eOqRnyHvBk/J3p1D6kZ8m/XIMtAShW577xQ+DcQnejaAgTmPfGRYXuhjE5JXI+8ey/V8z+wYjKR5wifc6j678/wan8hqOSS13DLQEoRue8uT3I7wvdjeKjZ/OXlt0K3QtjcmZkxROo/LzQ3cih1ynpMdY5emTFE6B2YwSA3Mrw8r9FqcESgGLk6Xhgo0J3owglaCs5tdCdMCanasovQTgRcJ7cVZSU+5HEARyz6/uR6qmq/CPIBLra+xPcUuC3vFw+BpFIKyNsEmAxEhla6C4UMXtvTNdXXTGVmXPvpK31OESH4rMjIqufBtgZJsSrfgA0IdpAdeVTsdVbVX4j97xyJ8t6HQc6FNgByP9pifki0orq+wj/JpG9lWFD3oyjWksAilP32AzEhej2he6CMXkxfMBnwOTlf8yajt7jU+Ca5X+MA3sEUIxUo57C3YVJaaF7YIwxXYElAMYYY0w3ZAmAMcYY0w1ZAmCMMcZ0Q5YAGGOMMd2QJQDGGGNMN2TLALsUvQ+8hes8DGh9gpaNpU4BfA+kKkRtxkSTymzFMrbCYyvE3xaVrRG2AkqBzUEFZDPE9/Ap6xTr7I2JwBKAriThn0Htzq8XuhuB1DaWstFGzntYG9OhmzM7UuLvji9lwK7AwOV/dqVNe3055inrSFB1eR7g2H7C/w+pdAYlg2oGkQziNdPmZzi+4iPHWo3JCUsAjDGd07SWMrzsvoh8BeUrwFdAt8Qv6K37Jiv7suL4bvUhAaTSn4A8B/oMyLO06TOWFJhCsgTAGFP8atWjrGkIeIci3tdADwV/O5CVT7w6gX6g3wa+Ddr+6ZtKzwF9BvWeISH/pDrZWOhOmu7DEgBjTHFKNfZjWY/vAEdD5ggksUX7FzrPFT+AgSADET0eXyHV9CaePADcTw/9J8dUzi90B03XZQmAMaZ4TJ+TRLPDgaNZxkG0D553I7ITyqnAqSyTZaTST4HcD349NZVzC90707VYAmCMKayps7egJFGFyjg0exCd45y7fChFGNp+2p38kbrmF1B/GiUltzKi7INCd850fpYAGGPyLzWvN0sWH4cwBuEbKIkuNrSfA7oPIvuQzV5CqukBEjKd7EZ3UdN/caF7ZjonSwCMMfkzrakC9U5j6eLxCJsXujudVA9EhqEMw1v0BXXpqUj2r1QPzhS6Y6ZzsZ0AjTG553uHMa35YfBmI/wQ7OIfk00RfgCJJurT91KXOQJVe4RiArEEwBiTe6KnAIdhz/dzxQOOQvwHacikqW86i1TjJoXulClulgAYY0yXokmQy/FKXqcuXcvNmU0L3SNTnCwBMMaYrmkLhF/T259DXdPPSM3rXegOmeJiCYAxxnRlypaIXIS36HXqmn7GlLm9Ct0lUxxsFYAxpjt5F5HXQN8F+RT0c+BzlM/x+Bz0c8RbCEAWQfzNVg+X3ghboWwHbLX8z7bA1sv/XprPbyakrRG5iD5LT6cu/TNGVtxW6A6ZwrIEwBjT1XwGPAfMQniNLK/hyVxKer2W0zXzteqxe2YXsgwCBqP+IJAhQCVQRM/hZSeEW6lvnoTX9gNGDH610D0yhWEJgDGmM1uM6kuIPAfyHIm25ziuMoNI/ncVqhUfeG35n3tX+9qtLf1JtB2A8DWUQ0D2pODbHOs38BMvUdd8JZqopWbg54Xtj8k3SwCMMcFMTQ9H9cgC98IHXgC9D0/uZ9u3X2Do0LbVSowqTMfWa3TZPGAeUA/AnU19WKIH4SUORv1DQQ6mMJ/HJYj+EGkbRV36Z1SXTytI8mQKwhIAY8z6TZm7GdJ6MXBqgXrwCfBP4GE8/x5GV75ToH7Ep/2UvweX/4Hpr2xOaenhqAwDjgX65LlH2yJMpaF5LHe0TOTYsnl5bt8UgCUAxph1m9I8Amn9G7BNnlteADQg3lR6DHycGsnmuf38OmGPT4E6oI6739mIpfOPQDkWGAb0y2NPDqct+woN6TOpqpiWx3ZNAVgCYIxZ2/Q3Nqd16UXk967fB/k3ojfRo/UWaoYsyGPbxWPY9ouAO4A7SDWWIoljUDkVydtOipuh3ER9ehSSPZmqwe/moU1TAJYAGGNWd0PLN2lddgvINnk6oW8uwg1kEzcxbuCb+Wiw06gZsowVIwOpljK87EkoJ9K+9DDXjoLESzQ0nUpV5V15aM/kmW0EZIxpV6seNzSfh6cPkZchf3ke5DhKk0lOKP+dXfw3oKasheqKc/lk/k6IVCP6rzy0ug3IndSnryTVWMx7HBgHNgJgjIGps7cg2zINkTzM8penUC5mXPLu3LfVBU3atxVoABpoaDoYlZ8D3yWXjweEM0iUHEBqThU1lqh1FZYAGNPd3dB8AL6kEHbKYSutCNPxvT8zrqzwG89MmbsZvbM7ov7OoJsg0he0FNWNQXqD9AK/N563fOMgXYyvSxBvEcJHqHyM8iFZPqS07N2CTVKsqnwKGEZDej+UXwLfI3eJwL4k2p6hLl3DyIonctSGySNLAIzpzlSOQjiTnG5hK3dA9ueMqUznro0OTJm7Gb3a9kLZCxgC2h/oD+yEtG7y5fQGYbW/A+0vCOgqcyBE2l/X5V8X2j9B/eZWbk+/ifA6ylygCZFXKPFeZkTZBzn+LttVVTwHHEt90x6Idx6q1eQmEdgWj39S3/RTqiv/koP6TR5ZAmBM9zY4h3U/i8dPOSH5eA7baDf5nY3YZOHXgK8iuifCXmjrgPzMYaQHMBBl4MpXVKE1C7en30d4EZWnwX+KpUufZdyeC3PWk+rKV4Aa6mYfhHh/AfbNQSs9ELmchqb9+aLnSUwYsCQHbZg8sATAGBO31xF+wZjkbTnbVS6lCVqb9wEOb/+z4CCg58qvF89edtugHAl6JCLQq1cbqfSLiDyIyv1Q9mxOHh+MHPQ0tXoAu6VPBPk9OVk1IMez6bIdmTn3GIYP+Cz++k2uWQJgjInLEtAL+My7lDOTSxkbc+1T5vaitPUoYBStmcNBNo+5hXwoAfZHdX/Q86H5E25PPwRSj/S+L9bDitrPJriBmzP19MqeB3IW8T/qORS/9QkaMkdSlXwr5rpNjlkCYIyJw5OIfzJjY37O/+ijJby9/bcQbxS0HktRnaoXi34Io0BHwaIF1KXvBr0dzd6/fA+A6MYkvwDOoX7WtYh3LSpfj6XelXQ30KepzxxJdbIx3rpNLtk+AMaYKBagnMlrya/HevG/OTOYmzNX8vYO74Lch+o4ut7Ff02boIwGuQMpeZO65oupn5WMrfbqwRn+V/FNRM8G4j4WuT+iT1CX/lrM9ZocsgTAGOPqYbLZ3Rlf/tflw83R1KrHzc1HM735IdBXQc8AtozezU5pG9Bz0ESauvQ/qWs6hlqN/nldKz5VlZcDeyM8G72bq9LN8XiIGc1Hx1uvyRVLAIwxYS0BTmNc8ggmDHo9cm03ZzZlWvNZlGXSwN0o3yI/e953BgJ8E+QOdmueTV3zJFLzekeutbqiiX7vHAxyHhDPo4Z2vVCtZ2a60MdGmwAsATDGhDEHnwMZXz458gz/m17emJvS54K+jnA5UBZPF7sopRz0GmTRG9Q1/4S739koUn1Dh7ZRXf57fDkAaI6nkwD0xGcGM5q/FWOdJgcsATDGBKPcTUnP/ZhQ/t9I9aQaS5nWfCrSO4PIhUBnnM1fSFuBXsLS+a9T1/SzyCMCNeX/pYfuizIzpv5B+0jAncxo+maMdZqYWQJgjNmQNuCnjE8ewwk7f+pcy6OPljAtfTJLerQAk4Ht4upgN7UVIhfhLWyiLj0KVffHJsdUzqexvBq4gPh2UeiNyl3MyMS86sDExRIAY8z6vIvqNzmx/E+RhvynZg7krR1eALkWoX+M/TPITgi3MqP5cVKz93GuplZ8qit+jepw4IuYOrcx6t/DjMyBMdVnYmQJgDFmXWbTVnIgEyIc/DL9jc2Z1jwZT58E9oiva2YtyiF43rM0NF1Dak5f53pGVt4JHAA0xdSzTVD/TmZmBm64qMkn2wjIGNMBfZK21mM4ecgnbuEqTGsZg7/0T8DW8fYtBsp84B2ED4EPgfeAD0BXWR8vC0BagZ4IfcHviy99EdkMtB/ITqA7k9ODlELzUJmEtA2jIf1/VFW4Pdevrmhi5twD8ZfdDRwSQ7+2Qv17STUeRI3jz5SJnSUAxnR2k5/vgUhVbPWJzMAvOYGTy90OeZma3oFpmRtp36e/0D5BeQlPZuMzC6SJLI2Mi+mUvlr1GPzajmSX7YokBiC6O7Af6N4g0WbpRyFsjzKD+qYG/MT3qUl+GLqO4QM+4+53vs2y+XXAUZH7pFSQSMzgvsy3OSq5NHJ9JjJLAIzp7BKb/RX00FjqEq5k7sCznDf2mZY+FpXrgC1i6U94bwJPoPIUCXmCpoGzYtmkaF3a635z+Z/HVr7+6KMlvL/9EGA/RA8C+Q4FmfQoVXj+wcxomsCIygdChw/bfhGTnz+WrfpMbd+lMHJ/vs4S/zpUx+XsoCgTmCUAxnRm12VOBybFUpfyCyYk/+AUm5rXmyWLL0U5LZa+BOcDT6N6ByXeHYxKzslz+x0bOrQNeHn5n+tQFRpa9iLrH4lwJHAgkMhTb7bFl/uob/or83v+LPTxvZP2baVWx7B75jPQ70fujTKGGc1zgNrIdZlILAEwprO6vmUoyuUx1fZLJjpe/Kc27cGSxbcCg2Pqy4b4wMOo1uP1uIvjd30/T+26a7/bfWn5nwtJNfaDxHEg44Cv5qMHIGfSZ+khzJxdxfCQOzi2j3SczoymT1D5ZQz9+RX1zf+jurwhhrqMI1sFYExndG3TAHxSQI/IdSkXMCF5oVPstObRiPcM+bj4C28Dv4WSXTmh/NuMqbi2U1z8O1Iz5BNqKq+mpuJAPAah/AHIw3G6sjdZ73nqZ3/bKXxE5XnAb+LoCKLX28qAwrIEwJjO5tJ5vaHkDuI4KEflj0xM/jp8nApTmy9AmQ70ityP9bQEcj8qx1CS3JkTyn/FCbu+kcP28q+6oonjKn7BrPKd2ydz6r9z3OIW4N1LQ/pcp+iqilrgrzH0oy9+NsV9mZ4x1GUcWAJgTGez6bI/EcuaermCiWU/Cx02ZW4vpmWmAeeTu0N7FLgH9ADGJI9ibPIuaiSbo7aKQ634jCyfwcjKg1B/X4RpQK6+5wTKhdSnbyTVGH4Z44jys0CnRO+G7M1i/9Lo9RgXlgAY05n8PfM9NIaJWMhkJgz8YeiwabO2I9H6OMoJ0fvQoSzKdDzZnTHlwxhT8VyO2iluNYNeoLpiHMJuwG3Etz3vmsbjldzHzLmbhYoSUT5aMAnlnhj6cDoN6eNiqMeEZAmAMZ3F9U3bI3I90e+672eTgWeEXoY1ZU4Sv+QZlP0itr8uD+KzO2PLx3B8sjFHbXQu1RVNjKwYjfJVwH1HxvU7jOyyJ7mzaftQUZP2bcXfqAZ4PIY+XMuM2eUx1GNCsATAmM6gVj38kqlEf+7fSCmjQg+n35AZjJf9F+RkH/8MMIwx5d9hXPnsHNTf+dVUPMvIikMRhgPpHLQwhFZ5nJmzdwnXr/6LyZZ8D3glYvt9UO8mUpqvpZEGSwCM6Rx2mPNjou+s9yHZ7DDGJMMd9DK1aQ88fZT4N7KZD/yU0tbdGFMex1By11ddcQefzN8dlfOAuHfTG0jWe5xUU0WoqJqBn4MMB6Ju8XsAiebwj6WMM0sAjCl212QGA7+LWMtS1BvBKZVzQ0Xd2LIP6j1C/Pv5P0Zbdg/Glv+JmiHLYq67a5u0bys15b/H9/YGnom59v6I/Iv6dGWoqKry11D/eKJPWvwt9bOSEeswAVkCYEwxUxU8uYbIB87IJE4a+GSokKnp/cF/mHi39V2MyNnMSR7GhJCb0ZjV1SRn4ZcfDPwYdFFs9QrbAA/T0LxrqLjqQQ+inBex9d5I4jpq1a5NeWBvsjHF7No5JwNfi1aJXMHEsqmhQqbOKUe9e4Fws8PXR3mWhO7NmOTlOd2fP6o7m/qQatyW6c27cstr25Bq3KTQXVqnGslSXXEpyD5AnBMnd0D1YRoyO4aKqiq/GKQ+YtuHskdzDCtdzIbYVsDGFKur5m4L2Ysj1vIyC/WcUBHXvrYNmr2fODYaWkn/xuL5P2TSvq3x1RnBtFnbkejxNYRBqFYilIPuAvRjEUAJeNp+GrBfArelQfkYYS5oM0oTMBstfaIodiOsrmjippcPYKNe1wBjYqp1APj/INV4cOAjfEWUVOMEEj0qQXdzblm5iJmz7w29ZbEJxRIAY4pVj+xlwOYRaliEr6M5szz4ZLGrGjehR/ZeINzw77otAU5nbEUMm8ZEkGospbX0SMQ/AmQowqCVS+uDLqoUtgC2ANl3ZYy0KrelZyE8gsiDfPrFQwVLcsbtuRAYS13zk4j+BYhjh71KEiUzuS9zROAjfGuGLGDG7CpUXopwJPIm+HIF8D3HeBOAPQIwphj9veVIYFSkOkTO5pQQy+omP9+D3qUpYJ9I7X5pHqKHMra8cBf/W5sPYHrmStp6vIPoHSCnA4NibEGAIcAPUL2Hzfq8xW3Nl5OaHdd7GN7I8smgh6C8E1ONh7I4ewOqwfefGDGoGZXwu0yuRoZRlz4sWh1mfSwBMKbY1D5agnJZpDpEZjCx7O+hYnr2/dvyo2rj8Cx4+xZkJ79a9bg1PZxbMs+h/AfRM4h3IuP6bI3oWaj3PLc3PU2q+buhLpxxqa58Hi97EBDTvgpyPDMy4Q4Bqiq/CuGfkZr1uNT2BsgdSwCMKTbb7XQKQri12Kt7C3/pKaEibsychHJyhDZXIY/Q6h/OuLIP4qkvIFVhenoU5ZlXUJkBum9e21+LHIjqPaSaXySVHp735qsGv4HfdgjwVDwV6nnUp48NXFxEaSuZCHweodE9KGmeGCHerIclAMYUk6saN8HTX0WqQ/T7nBxw0hbA1Nf2QGM53Q3gbnr1OpqTKufHVF8wt80u55bMgyC30j4kX0z2QplBKv0IqUzuj01eVc2QT9jIOwxIxVCbINwU6nuoGfgmImdHalX5Hak5fSPVYTpkCYAxxaSk9Cco2zrHC/VMDLGr3pS5m+FnZwC9ndv8su2p9H97BDX9F0euK6gpc3txS/PFZBOvAt/KW7tuhoL/InXNFzidwOfqqORS/PLjgVtjqK0PJX5dqKWRI8qngNwVoc2tSbRFnE9gOmIJgDHF4qq524L8OEINX1DiB99KVVWgbQowMEKbKyq7njHJCQwd2ha9roCmz0lS2vpvlHOAHnlrN5qeqJ4PJU9wa8h996OokSxbvDMOtCFyXcpgSkquDBWTbZ2EEG4L6tWdTWrOThHiTQcsATCmWJRka4EIm87orxhf8Xbg4jfM+REQ/Jnuugj19CqfFPp0wShuaR4N2ReAvfLWZrz2J5F4kdtDPFOPaujQNvzs8aB3R65LGU99U03g8jVD3gP5bYQWe5Fo+2mEeNMBSwCMKQaT5+wEuE92Ul5k02Twu7Ip6UpEo54vAMJD9Gw9IfTpglHcnP4Nyi1An7y1mRO6OcIM6prCbdQURc2QZWyUGAnyYOS6xLsm1F15W+sVQHOEFk8i1ej+eMysxRIAY4qB6o9wH8b2Ue+0wBfhWvVQ73qgl2N7K/wbXTwib4f5pDTB9OarEYk2SbK4CCoXU5e+NG/LBY9KLmXR4irgv9Eq0s1JtN0YuN81Q5YhkR5x9aYk8aMI8WYNlgAYU2iT01sihFu2tyrRqZw6MPh6+50zPwAOcm6vXQutrUcv330u9x59tITWzK3AaXlpL9+Us6lrnpq3Q3DG7bmQksT3gHcj1jSUmc3Bl4+OKL8HeMC5NZXvM2N2vvZ06PIsATCm4BJnAq5bpi7DzwZ/tjpl9i6oRB36X4B4w0MtNYxCVXhr+2uAkXlpr3DGMiR9Vd5aO7ZsHr4/LPJJgsolpNI7hCh/NuC6XfIm4J3pGGvWYAmAMYV0fVMf0DMi1PB3TqmcG6ikquAnriPSREMUZALjyl6NUEc405svROSkPLXmg3wKfAK8tvxPlNnr4aicRl3T+Xlrr2bQC4hMZOXBCE764nFF4NLVFU2oXu3cmsoPuDmzqXO8WckSAGMKqa3kVJB+jtGLyJZcGLj0DS3HIxJxb3W9mPHJqMe9Bjc9832Qn+esfmUWIn9G9UTQ/dikTx9Gl/djdMUWjK4YyKiKgYyq6IvXtgV4+yB6HMjVwJyc9Qm5gLr0uNzVv4aqittRLo1UhzCCmeng20iLfxHtB0U50M3p7bs/MjMr2WmAxhRKShN8Osd9OFP0r0zaJdgz3Clze6Ftv3duq93D9C4/L2IdwU3L7I2vlwU+rS+4NCK34FFPTXJWoIj243A/AV5kxa56t2UGotlqRM4A+sfbRb2a+swLVCcb4613Xc21/QJJDAXZ27kOn0uZ/PzDgU5DrBr8Lg3pG4DTHVs7FdVL87r0tAuyEQBjCuWzOUcArpubfA69/hi4tLaeCezs2BbAp6An5m25382ZTRG9HYnlSNsVZiE6iubkYEYlLwh88V+XUck5jK68mG3e2RVlNBDjwUeyEerfzt3vuM4NCadmyDI8HQ1EmdRZyRabhLigZ/+I+1yAcmamhzrGmuUsATCmUJRT3WP1L5zcP9gkvMnpLUHOdW4LAPlBqE2GolL9G1AWU21vozqa5uTujK64nVrxY6q33dChbYyquI2a8gNQmUj7SEEchrB0frRTIcMYMagZNNoEO/F+HXiWftXgNxCZ5tyWivvvjwEsATCmMP7atD1wtGP0UiTxt8ClSxLnA5s5tgXQwInJ6RHiw5nefDjCCTHVFCvM1QAAIABJREFU1kBrdk9OqLgt9gv/mkSUUeVT6JEYBBLP+6WcQt3sqEs2g6uuvAGY4V6Bbo4mgu/Y57ddBLiOKg1nRsvWjrEGSwCMKYySkgm4zsFRUpyy6/uByl7XUgYaZe38+/jy/Qjx4dyX6YkSbp/5jiiLEDmJ48urGT/o4xh6FtyIsg84rnwMyPeBqGcjCOr9jUcfzd98LZ8zibTyQf+PO1/bJlDR6sEZ0NsdGypF2050jDVYAmBM/tWqF2lZW0KCL7ny9FzA/eQ51R8yMfmhc3xYH/s/Bioi1jIfOJLRyRti6JG748qvQXTY8v64E/bkw+2iLBUNp6bibYh0JPXGtLUFX7mhRHjMIafmbQfFLsgSAGPybdvXhoIOcIx+mpMGPh+o5ORZ26FRhtL1SU4sd707C+/mzKaIRD3w5VOEb3FC+eOx9CmqmsoHUL5G1HkBIr/I24RAAL/iStAX3SvQ02iYtV2gotWVz0doayAzMl9zjO32LAEwJu80+Clqawt+91/S40xwnkXv48tZeV5mdTrR5iosxJPDGF3+TFwdisWoipfx/SogypkJW7N0QfAtd6OqkSwipwGu8yZ6QeIHgUuLd61jO4BWu8d2b5YAGJNPKU3gfgTv2/ifBZugdX1TH6Ltm38DE5MR7gBDmjK3F/hnRatET2d08qV4OhSz0YMeQxhPlB33VH9KqtH9cU5YVRXPATe7VyCnkWoMtutkwp+O+6OSkXk7Q6GLsTfNmHz6eM7XAbeZy8KUQJusAEjiZNzvpr+gNZG/DX8AeiwbCxLhqFe5khMqboqvQzkwsuK2iDvu7YiXiDJ6FF5Wa3EeudDNKekR7IjrYyrns2KDpfC2Zff0gY6x3ZolAMbklbgPV/p6W6Byk5/vAfzQuR3kisCrDGLjjY8Q/Ao9lkU5ZjZ/NurzK9rPF3Cjkr8tggFqKueCXO8cr3pW4LtzFffHAKJVzrHdmCUAxuRLShMIIxyj/8epAbeF7dH3KNRxh0FhAdJ6uVOsq2ktZaDua93FP5uaIVGer+fPsO0XIV6UZZXfDHXyXhxK/N8Bix2jd2WPTLDzJ6rLnwFecWpFpMpWA4RnCYAx+fLZ64cAwdZHr0n01sBlVd3vplWuzvu6ebJjwHXHf7mD4ysfibU7uTYy+RDguroigWhcmyQFc0zlO0DwjafWpIQ4uEfqHNvYiTsz+zvFdmOWABiTL74f/LS01SlewM1S2rf9/a5jO4shEe1UOBciwxwjs/iRlw0Whs8f3IOd3y93WS7Ded9+PYZUZqtgRWWmWxuA7+f/fenkLAEwJn8cj+KVZ5lYHuy5cUliNM4b/+h1TBjwnluso1RjP2Avp1jlAcaWtcTboTwZVfEy8Khj9P7c9PLGcXZng2oq3gYaHKNLKfHHBCpZnWwEyYRvQgC+GT6ue7MEwJh8uG5eP+ArjtH5GP5XfP8qx1h3y0q+juvnkKfXxduZfFPXuRalbFR6SKxdCUK84HtQrEkZFbwd/w7HVvbjzqY+jrHdkiUAxuRD27JvAAmnWE/vDVTuupbdgH2c2oDHOaky7RgbgXzDKUz1PebPD/a+FK2KewG3+RaayP9RuCOS/8b9yOP9SDUF2/0yq64JQAmtYrsChmAJgDH54Tr8P5eTgw5z+8HvstZqhgg7sUWg7OEUJ3JH4D0RilWNZIGH3YLV7X2L7q+OcUIJwfYwaKz8D/BuuOqX76/kaf4To07MEgBj8sMxAdAQFwg5yq0NPkZLXJ/vRuV48I88HW83CkTkQcfIqAcmuSnt0wAscIpVb2SgcrXio9zj1IbNAwjFEgBjcm3y69vh/IEdMAGYPGs7XCfTwTQmDFjiGOsuNacvEOzAmDUl6BoJgCf/cIzcuX375Dwbtv0ikDvdgnVvUo3BdnsUecytDfbinlc2d4ztdiwBMCbX1N/XMdJH/WBr3L2S7+C8lt55TXo0S1qTjpHvMyo5J9a+FEpV8i3gC4fIBH3aBsbdnYCCT0pdnZDo8Z1AJbOJJx3b8FjW42DH2G7HEgBjcs1X1wTgJSZVfBSopOc8/P8OJ5YV6PS8xBZOYapd4+L/pTecotTvF3M/gvnoi4dwnbyIBksAaga+CfqmWxve3m5x3Y8lAMbkmuc8M/+fgUpNfr4HyrecWhDuzPORv1/ycFuyJfJJzD0pMH3dKcyTTePtR0CT9m0FrXeM/tbyEzE3TORxxzb2dIzrdiwBMCbX1DkB+E+gUiWbHwD0dWzDdclVdL4GOyp2TeJ691mklHec4nwt4Jp3727HwH6UNO8WqKSK42MAdZ0L0+1YAmBMLl2d3gFwO+ZW2v4bqJzqV53qh89Y+rnrbnTRiWMCoNK1EgAR17kbbu9fHEr8x3HeGphgmxhl5QnH+gcsn2BqNsASAGNySTzX5/+fcXLF64FKKvs5taA8VtC19MJ8tzjN73bFuee2dbMnbTH3I7hjKucjAUeo1qQBT34cWTYb5FOHFoRE1h4DBGAJgDG55CeGOEa+HPjZvOB4CprrEGtMJPGqW6D3v3g7UmAqPdwCfbf1+HHRgHNU1hZsBEBEQYMdgb0mz3fddrtbsQTAmFzytMwxMtjw/w2ZrYBdnFoQv7AJwPEDXwTCzuj/kM20cI8tckF0M6c4VbcRlNiE2aRqVbJT8NMBme3UhM/uTnHdjCUAxuSS4rpWO1gCkPXchv9hEa1fvOgYGw8RBflFyJhajkouzVGPCmWwW1jis3i7EdJHC54F3DaQEj/YVsaeYwIgBDt3oJuzBMCY3HJLAHzvpUDlPMfn//CfothLf2wyhfCXgKVvYXTZ1TntT76lGjfBdQTH8+bG2pew2n9+3B7jJIKeAaFuCQDs7BjXrVgCYEyuXDqvN7C9Q6SyqEdzoJK+ut09Cs86xeXCCeU/RORHrHuP+SWI1JJJji3YngW54vUYgtsOjvMZUfZB3N1xEGykak2qwYbo1XdNAPpTq3Z924CSQnfAmC6rdMmu4Ll8uH/Mj/ovDlRS2NWhfoBZjnG5cULyMm5qmU7CH4VyCNAP4TPgP6jcxgnJtwrdxZzwOdQpTnkt5p64CjZStRYJNjl2xKA3mdG8gPBLHksZ3Lwd8HbYnnUnlgAYkyteYuDKY0rDUOaFKLyr0w2kSHElAADjyj4Arlj+p5vQKqcwz/XCGzPf/y+e0412sGf0IkpDUzPIBrb3Fdb6XSv1d8YSgPWyIRJjcsZ32wAICXa3O2XuZiAu+8Er3sImhzgTp9ScncB1CWeRnIao/is4ZblstXz+QwDyrkP9oDYPYEMsATAmZ7wtncIk4AhAts1xprO8wbg9F7rFmthoWxXOJzh6xZEA1AxZAAQ7sGpNpV7QUYD3N1yogxxEZaeQPep2LAEwJldE3RKAoI8AfM/x+b+m3eJMbFKNpQhnOUZ/wKtlrpPjckBDPLJaRVvJLgHrd5vsqBTmtMROxBIAY3JFxe2426AjAEJ/p/pxPHzGxChxEu5L1e6kVvw4exOJilsCIP42AUu6JQDifEBWt2EJgDG54joC4BNwr3vfbQc51w9UE4/7Mj1Db4C0KtUZMfYmuqAJ65qUYL8fGuQRQEcKdFxyJ2IJgDG545YA4C8KWNDtDkcsASiohfpTYEe3YPkUso/E2p+oRB2XaGrQETLHEQC1EYANsATAmNxxfAaZyG0C4ON4R2Uiuy29H6q/co4XnULNkGUx9igGnuMFWgKOAPiucwBsBGADLAEwJnccj3nVYJsAIW6PADzHSVUmmpte3hhPpgOOp//h0+b9Lc4uxUI1aMK6pmAJrKdu5w24JsjdiCUAxuSMum20JTl+BOBLYY+R7Y5q1aN3r2tBkxFquZ9RybCnJ+aeeq4JQM9g9SfaHOu3EYANsATAmJwRtwRgaVvAEQDHBMDzXD9QjQtVYVDzNSijo9SCyG9j61OcJOiI1Vp6BSqVdU4A3EbguhFLAIzJHbeh3mWbBL2jcvv9zfqWAOTT7emLgVMi1aHcSXX5M/F0KG6+awIQ8ALdlnWs3zWu27CzAIzJnYRDjHL2jkv4UaCybhfyhI0A5EVqXm900dXA+Ig1ZSnJnh9Hl3JCE4tw25Yg2COAnj3aaHM6ubprnRyZA5YAGJM7LiMAQh0ewe5e3C7kbVlLAHItNWcndFE9sF/0yuSvjBj8avR6ciTR5uE7DUYFW83gtdoIQI7YIwBjcsdtn/e33gr67NIu5MWmVj1SzSei2f8Sx8VfeB1tLd67f4C2gHfyawv26GBxidPtP2ojABtiIwDG5IwsBA020WlVm7f1JMiHo9LmlGIkbHZ0TqQyX0czf0Z1n5hqVPBPW37gTvHyxDEBkGBzXXpKL6dUVyie7ZKLlCUAxuSMLgTCnwewJBtsBEC0zWmQQcXWR8fl0UdLeH+77+LJJNQ/Mta6Rf9E9aAHY60zF1R6u411BVw9kF3a13Gw2hKADbAEwJic0YVOF+ieAYdURdxmX3u2QUokqXm9yS7aF0++y/s6Htg2B4PNT7DFu+7nBeSTp5ujLhlAwA2E1HP9eV3qGNdtWAJgTM44brjTKptBgANWlA+c7rzUEoD1qlWP5OyBeIlt8dgCX7cAtkRkR5T98Rd9BaEHmqNHzMI8WnUUQ4d2jjkePlu6/RwGfASA9HWb0K+fOAR1K5YAGJMzstDpg8vzc3tIij0C6FiqsR9tiZ8jzeMhsTXQ/s8nq1zd3KZ1hvExbfJtRld0niObxfHQK4/5Aevf1HGE5WOnqG7EEgBjckV0oeMHV9BjUj9AXBIMdTyJrgub3rwXWb0bcT2lLxYL8OS71JTPLmAfwlPZxnW9S8Bybgmrio0AbIAtAzQmdz51ivIl4AiAup3qp+zqFNdV3drSH48HcD6iNw7yKeJ/u3h3+1sPYRenONUNP+YCUN91xMpGADbARgCMyZ23HeOCjQCI4yMALAFYnf9nYJsCduBdyH6bkYP+V8A+RDHAKUoTwRIAZGun+gUbAdgAGwEwJmfULQEIOgyd0Pec6ocBqNO07a4nld4BqC5gD/4LejA1nfTin9IEsJNTrB/4EUCAhLWDH2cVGwHYAEsAjMkZcR0BCHZHJSWv4bbd6cZcN9ftrqqr8TmMfEzt69iNsNFB1FTOLVD70fVo2QW3U/cWM7Lso4Bl3UasRD90iutGLAEwJlfEy20CMGHAEsDt4pHIVjrFdTVakOf+nyEykZqKCdT0dz1Jrzj4/h5ugfIWEngGq1sC4Dv+bnQjlgAYkytem2sCsBO1GvB3UxxnjEsMh9R0Cfk+M/5esok9GFk+Jc/t5sqejnHBfm5Tc/rispsmKH2WznGI61YsATAmV95+6z3chuh7sU3zdsGK+rMc6gfUEoD8mo0ynJqKoxldFnDyW2eguzkGvhyolOe7Tlh9j2/vudAxttuwBMCYXKkd2gbyhlOs5w0JVtB5BGB/tzgTivIGKhOR8t05ruKOQncnfvJVtzh9KWC5gAnAWk8TWsL0pruyBMCYXFJtdIoTCfZs1RfXEYBduCGzlVus2SCRx0Cq2eadMkaVT6FGut7Z9KmmAcAOTrFZ/W+gcqIVTvWr2PB/ALYPgDG5JDQCwxwigyUAm5W+yhdLl4LLmex6AHBP+DjTIaERlRlk5XaOT7olfp2Jx8GOkZ8xsuL1gGX3dWpB1EYAArAEwJhcUml02q4XDZYA1PRfzPUtL6AcFL4JjsASAHfCWyhPofI0nv8gNZXpQncpv+RQtzh9OcQKALe5KiqWAARgCYAxuSTZRrcnbTKIVGMpNUOWbbCo6hPgkACIxHt+fXei/IZRFbWF7kZBCd9xilOeC1TuzqbtaXNcpil+wDkG3ZvNATAml3qVzMZtJUApn5fuHbDsUw71A5QxZU7SMbZ7E5YUugsFNWPWbkB/p1iPfwYq1+o8UfVzhldmHGO7FUsAjMml9s16XnOKVTkkWMFeTwG+UxuStVEA46DE7e4flrFg6ROBSnrq9vwfXgjxiKFbswTAmNx71jEu2LD+yf0/AdxWA6gc5RRnujf1RzgG/ptxgdfnOz7/53mnuG7IEgBjcs91iP7g4If2SLBh1bUNZXI62OmDxgCk5uzkvv7fezhYG5pAwzwCkFX/aglAQJYAGJNrHk86Rm7N318Ptg5a1XWTmVJKE6MdY013VJKtwfkAJQmWACTSXwU2c2qixBKAoCwBMCbX3t21EfjMKdbzgz1rffutJ4Ggp6utQce7xZluSfV4t0D5lH5vBbw4Oz+a+ojvdeLTFfPMEgBjcq1WfOBpp1jVYAlA7dA2hLud2oB9mDJnd8dY053MnL0P8BW3YJ3B0KFtAQuHnJy6cs7fI+HiujdLAIzJBxHXeQBfZ/I7GwUsG2GveR3rHmu6jayc7Bzrc2ugcg2ztgP2cmpD5R9Ocd1UYTcCUtmH8e+fuvYXli+bTnQQs6GUJacxfnGvmW7zRnP+Gx+v/P+Ovq8VwqR+cdSzWh0+qJR0cIBHEZH+XNnS/rMZR5qsbOsY2QsWDwXu3WDJPr3+wRdLFgIbh29GxzNl7q+WL1s0Zm2pxk3w5HjHX9v30PLHApVU70jEdY5B1hKAEAq9E+DRqB4NrD6lRJb/z6o/aCu+3tFrwMrtVoPGrLpMVNf42rpec/yRzBuRC9v72MF7AR1/fx19bc3vU3U9X1tP3HrbK+aLP4AOAZnc/td1FOno52GdPyMRvl9PjyVIAlDTfzHXNd8NMsqhla3R1vHAZIfY7ke12H+A41fSYyKqmzpG1wU+EElwff6fpmqw2+mb3ZQ9AjCm+A1n8vM9ghVNXOfcisiPqNVu9pngfe4UJp7bpM7OKqUJVH/oHC9esOH/KXN7gRzu0ACIPBQ+rnvrZr/sxnRCyhbIZsE+FE/a9RHcz0IvZ+fMsY6xnZPKbKc4T5pi7klx89JVwADH6LkML/tPoJJ9lw4D+jq1Ir4N/4dkCYAxnYFHTaByIoriPgqg8hPn2M5oaeIx4JOQUe+x1Vuukzo7n1r1EPmlewV6TeCteX0Z59jGMkQec4vtviwBMKYzUI5tHx4NUjZxI9Dq1I5wIDfOOcwptjOaMGAJqheGC9ILQixn6/x2S1cDwY6nXosuIpsNlpDe+do2zicMIg9xTOV8t9juyxIAYzqHzcgG3H/9lF3fB+5yb8r/Y7eaC9BcfhlB3y8lxXEV1+S2Q0UkpQlEap3jVaZTMyTYCEvbstG4TkwXvd0prpuL55fcczyJrNvQcO+PJ/Z+rlPI97It0XXeS9VTgheWqyK0tDc7t5wQIb5zqRWfL76oBr2CdR/d3AbyR7Z954RuddJcIn0iMMg53steEbisiuuOlIvxuNMxtluLJwHw+TCWeros/4NQxdV1S9fuQEK+l21d6Wfz6/x9TnmgkieVPQr827kl4Xek5vV2ju9sJu3byujKs0h4e6BchPI4yKsgj4H+nmx2MKPKf9athv5vzmwK8vsINTzCiMGvBipZ37QH4rj5D3qfDf+7iWcfAPWfK/5F8gWzlGXLXgkZ8xzwtVx0ptNTfS5U+S+WZdi89+e4ziwuLoLoycA5gUp73u/w/Q3vH9CxnVi45CzgIsf4zqkmOQs4t9DdKAq9sueBbONegf4lcFHPm4jr1gqCDf87imcEoG7b/wEvxVJXl6N38tfkF6FCxJtGcW+TVzieTAtVvnbIMuhSHxATAm8NfOKu9wMvOrcknMsNLf2d403nNaN5EMhZ7hXIC4yoCHY2xT2vbI7qRMeGFtBjU9ckt9uLb6KP7/+YdT8/664WIHJe6KgLd/wvcGPsven8HuDsXe4PHZXtcQHhl3rlSOS8bku8xcGelYoovkYZwt0UT21nwO6mVj1U/w6UOteh2V8GniuxtOdpQB+3huROhm2/yC3WxJcApLZ7FJUfgk0IXG4Jymgu6Z9xi5YzgMfj7VKn9jJS4jYx7Uf930akCiiC54QxPCoTPTvwLP23k3cgNLo3pkdyY9pxbbbplHbLnIpySIQaHqd60IOBSrYvbT3TuSXfEtQo4l3qc/vWV+LL0YDbRa/reBa8Q7h0x3uca7is/2JK538LkYuAxfF1rdNpBb2KXosO4Uf93e/ifzDgMbzsgUgXSKqUJNvPOSZQ2VrxUTk/WoNyGVPmuh5m1PmoCjdnduTWzFdIpXcodHfyaubsXUAvjlSHEHzToL7LxoLzQVmvMLLiCcdYQ65m7n1DS9j+va+hchAi2+Hp6vuYd9Sqt46/B47pYOBhfTFhy2+wX7IEeAuyj3JZ/xdiPe3m3Le2wMsehUgFKluts38r/38dgzDr+9de7/e5Sn1B6+iwnlB9+QSRDFm9j3MGvLee0uFd8dqeqB6Gx04gq890D/Mb0dH3t8GUerV/m0FIB5M9gx0y9B9OKTtwQ62tdH3zw4isvcHPBtta+WM8kxPLg+1D0Fml5vSlrfWniIwHdgRWvBdvIExB2v5MzZAFBexhbqU0QaL5sdXu/sNeIZT7qa4IdphPrXrs0TwLpSJkK8vJaVSV2whABDZ135hCuTq9A15iLrDhBLmj15SjOLUs2JyIKXN2R/0XWXPlT/AEADz9P8ZVRNlfoHjdPHt3Et7dwM6rvb76+9OCzzCOr+ia5wDUNZ2PyAWrvRbuCpHFk30ZXv7fQKUb0sOBGaFa+NLnLFyyA+P2XOgYb7CdAI0pnO9XvA3ivkJBuADVYB/REwb+D4l41K/KpUxN7x+pjmJ0c2ZHEokHWfPiv7YyPH2Qm1q2zke38qqh+VBEfhWpDpErA1/8a9WDCOcLiNxoF//oLAEwpqD8yyIE78t1Ld8LXLq09Hzg4wjtlYLUc0t6ywh1FJ+E/2dgu2CFZSd6+H/IaX/yLdW4Lb7eSrR9Yd6lLfHrwKV3bz4BdB/HtpQ2/2rHWLMKSwCMKaRJyRcRHnOOF7kg8IqAE3b+FCX4h3TH+tPq3dRlzgq4tWl7kOpQMaLjSDX2y1GP8ivVWEoiMQNh+0j1iJ5FzcDPA5Vtn/n/W+e2lAeoqUw7x5uVusYvsTGdmkYZBdiD/i0TApeeV3Y1SMSZ03oku2S6yF1w4jDCfw6WoD2G5qI3eeeVTEYl+GTSjj3AiMq6wKX7Lj2LDT9uWTfPc08ezGosATCm0N4puwfUfWKZyu/b920PoFZ88E8Eos1mF85havMPItVRDNTf0TGu8++QWNd0PnBixFoW43n/F7j03ektUXHfaln0IUYk3c+4MKuxBMCYQmtfq18boYZtWBxix8mJ5a+B/iRCeytczrTmqhjqKRyhp2Ngr3g7kmcN6bGI/CZyPao/ZnhyTuDyS/V8opzLoVyw4UImKEsAjCkG7w2sA8IeGvUl0bOYMicZuPyE5N+BYLu1rZuHcjPT0nZwVWdS13QMyvVEXwZ+B9WVwSfjpZoqEPl+hPYepqryqQjxZg2WABhTDGrFRzXKMqxSstmrAy8LFFES/knAZxHaBOiFyl1dcnlgV9TQfDgit7Pm3hPhvYX4JwcuXaseJXJtpHZ9u/uPmyUAxhSLSWV30X4UtCM5jOsyJwYuPr7ibdCTiH5C0WaI/IMbmw6OWE8BeG7fu2jnO/NkRtM3Ub0DXB97rOTj+2MZMSj4ktLdmk9HIx1x/oht+xs/SwCMKRYiihJ1M5bLuL4p+JKuCeUzgDhm9G+K5z3E1ObDY6grj/yPnMLU+zDmjuRWQ/N38eUeYOPIdYn+gZGDHgve9qydES6M0KKPh/vEQbNOlgAYU0xOK3sA4Z8RauiLJC4PFbFx2a+AByK0ucJGCHdxY+aIGOrKD/FecIrzfbe4QqhLj0J1JtB7g2U3SB5k83drAxdXFUhch/Nxv7Tv+je84lnneLNOlgAYU2yyeibQ6hyvjOT6TPCjk2skS2np8UDw2dzr1htP72ZqZmIMdeVeU9mzIM0ho17h+Er3CZv5VNf8E4TpRH/mDzCbbOI4hg5tCxwxIz0RcB8VEr4gUfIL53izXpYAGFNsTkvOQjXqoTtXMWX2LoFLn7Dzp+ANB+LYX70U0euZ2nxJ0e8YWCs+yk8IPg/Cx5c4llDmVkoT1Df/DdFLiOdz/mM8b1jg3f4AGjI7gvw5WrPyW47Z9f1odZh1Ke5fTmO6La8WiPLB1xc/MY2UJgJHTBj4PzwZC2QjtPsl4ScMzNxBqnGTWOrLleOTdyOcH6CkAj/l+PJ/5LpLkdyS3hJpvh80ypK7VS1DvKpQ6/0nP98D/NuIsuZfSNPWeoVzvNkgSwCMKUaTBn6ORNgxDQA5hAUt4U5cG182E5hE9JUBKwxjaY+nmNbkeOZ7nowq/z2qxwFvraPE66DDGVVxaR57FV5q9j6U8jzCt2KrU/X7jEj+K1TMVn0uAqKtCvH5ETVDlkWqw6xX1I0gjDG5Uqse2895CvjqOn9TV76uHbwGQBbhu0xMhtv058aWn4Besp561/1ax19fiMpZjEteH6of+TZlbi96tR6G+gcishWevE/Wf5qS7CNFfTFSFeqbv4/wZyDOXQrPpbriolARDenhQAPRri93UFUxPEK8CcASAGOK2eS5lUj2JWQdH+obTgBA+BR03/YtgEO4MXMh6JejENESgBX/P4PS1lOoGfJJqL6YdUtltsLLXg8yLNZ6hVqqKsJtF5xqKSORfZ4oQ//wMdm23agZ8l6EOkwA9gjAmGI2aUBT5CN8lc1B6knNC7cMbHzZL1EmR2p77b6MYGnJi9zU9M1Y6+2u6tPH4vmvxH7xV/4Q/uI/rzdeto5oF39Q+YFd/PPDEgBjit3mA/+MyDMRa/kKC5dcG3irYGjfmGjj5BmgMQ/by86I9zDT0tO4qWXreOvuJhpmbUd9ugGYCWwbc+2XMbIi3NI7VaFk0dUIe0VrWhuoLr81Wh0mKHsEYExncG3zIPBeZM3nu0EeAaz+2gVMTIYbUVAVbspcDPx0PfV2bMOfMJ8C5zIneW37UcVmvR59tISPdzgd1d8gbBZ/A/IXqpJnIxJuEuiM9G+uoe+wAAAWJ0lEQVQi72IJHyKJ3RhR9kHEekxAlgAY01lc2/JT4I+rvRY+AVCQCUwsmxq6/ZsyP0f1wtVqi54ArCjzDKo/Zazt975OdZkjwL8MGAzE/emtwC9CT/gDaGg+FTSGR0U6kqrK+uj1mKAsATCms6hVjx1aHgD5colX+AQAYBnIkUwseyR0H25sPhXhb0BinW2tu90AZfQBJHEeJ5R1nq12c62++QDUvwBk9S2W4/v0bkU4iaqKaaEj6zPDEH8mK34e3DUyonz30CMPJhJLAIzpTK5u2ZoSXgLaD/xxSwAAvkC8w5kwMPzpgzdmahCdCvSKPwEA2r+ZmXjyK45PNobuX1eRmr0PyK+RdUzwi+fTez7qVTMy+VDoyIbMVyH7T5CNYukJcjUjkmdYEpA/lgAY09n8PfN1RP4JJCIkAACfIN43mDDwf6H7MCW9H540IPRfbzm3BGAFBX0QuIKW8ge7xRwBVaGh+UiUHwPrXykR/dP7XcQ7mqrki6EjU00VJORJYMvIvViNJQH5ZAmAMZ3RtS2/BH4XMQEA4X0871DGDwx7IA7tM/j9FPD1dZaJlgCsUkaawf8rS3QqJ1XOD9rFTiPV2A8SY0FORZY/49+QaJ/ejyPZUVQNfjd0ZH26cvmJlcGPnQ7nb4wo/z9LAnLPEgBjOqNa9dhhzn0I325/wTkBAJgH3mFMGJgJ3Y9HHy3hzR3+hHDWeupfv6CfQu3lFgB34nErX3zxEJP2dT81sdAmP9+Dfn0OB8aiDGfFCo9w70dYisolbPn2L0Od6rfCjFm7oYmHgW2cWg/OkoA8sATAmM7qunn9YOl/gGTEBADgPYTDOdHxmfvUzBhEJwOrPw+OPwFY1cco9Yh3Ows+e7JTJAP3ZXqykK+DX40yAthirTK5SgBEPgX/RKoq7woZ2a4+8xXEf4jYh/3XyZKAHLMEwJjO7O9zyvH8fwP9Vr7mlgCA8BHIdzjRcQb+1NnlSOJG4MANthukb+HKLQAeAx5G5OGimTyoKtS1DEL9oQjfAYYCG683JjcJwPOIHEdVyO2gV2hI7wfyIOjmTvHuLAnIIUsAjOnsrm8ZiuqDQA/APQFo9zn4w5jguB4/pQmWNJ8DUguU5jEBWLPcuwj/xue/iPwXn5cYk1zXSX/xSaV3AN0dZC9UDwI5iBV3+bn5PjdkKcoFfDL/EucRkoamg0HuJeoWv+4sCcgRSwCM6Qquz5yEch0QNQEAYQkqE5hQdptzf6Y27YF4NyHsucGy+bswfgT6P/DmIfomylsIb5HNvon0/AIWfMGmWy5l2PaLOoy+6eWN6bXJFvj+lkjbVuBti88AhF0RBtC+QU+/DmPj6X/Ycv/B906iJjkrYI1ra0gfB0wBwp0jETflKqrKf2BJQLwsATCmq7iu5WLQc2JIAKB9UsEvOTH5B+f+pBpLWVLyS0TOYX1H1BbizrjDMqtdWxaAtLaX075s6NyUwo10dEAXgZyPX/4XaiQbsLY1qlChvvnXePwqRI9yy5KA2BXHP6wxJjpV4fqW6xAmrvW18AnACtex0bIzqBmyzLlfNzUNQLxLgKrAfch1uQ0nAHlqM+ZyKneh3o+pKWsJWMvaUvN64y2aAhxXdFcISwJiVWz/vMaYKFKaYH7LLUDNaq87JwAKok/TpiM5qfKdSH2b3jIUX//S/ow8QN/W26+I5bpeAvA8vvcTapL/ChjdsYZZ20HiDpT9Q/VlvaQe0SNQNo2jNuBKRpSfuVoSMGVuLzZddiTiHwLeFqCfgfyHhN7LMV1w34iYWAJgTFeTaixlfs8ZoN9d+VqUBKD9v++RoCbyYT0pTbC05VTQWmDr9fZtvf2KWK7rJACvI/JLRiRvjXxX3JD5KurXATuG7su6tU/gm9nyVfAfyEkS0NBUjXAZq/b7Sx+B/IIRFdfG1G6XYgmAMV1Ral5vFiy5D+UbQAwJACC0InIOY8v+EvliM/mdjdh44amo/gRhh0AxlgCs6j08/sQXpVcxYcCSgDV3rFY9dsucuzwpK3Hoy7qsPnt/RubA2JMAlfcQ/S2i6++pytqjBsYSAGO6rOub+qAl9yL6tZgSgBV/uZ8eiQkcv+v7kft4RaYn/XQCcA4wYL1lLQEASAN/YmNvGkcllwascd0aMjuiOg30Gw59WZ+Ol+7FnwS0C3Zdv4bhFadbEvAlSwCM6comv7MRJQsblm9CszanBACAD4CTGF9+T9QuAu3b4m7c53iQM4G9OyzTvROApxEu4dXyu2I7FKk+fSxwHR3tRrj+vmzI+tft180+iIR3f6xJQPBruiUBq7AEwJiuLtVYysLSW9AOZuG7JwDtXxQm48nPGJP8InI/V7ipaV/EOwVhNNBnPe13rOskAPMRGlD/WkYOejpg9Ibd2dSHVv4IclqIvgQU8DS/uJOAcNdzSwKWswTAmO4gpQkWZK4HGb/a69ESgBWvvYXIGYxNuu0xvy6pxk1YWjIKkVOA/btJAuADjwA3sWTJDMbtuTBgD4Kpb64CvZyOJ8ytLewVQpnBx/NHBdp1sG72QXjeA6ya5LkKfy23JABLAIzpPlSFKXMuBz1z5WvxJAAr6k/hl57FhAHvRetoB27LDKTNPxaRY4GD+P/27j04rvK84/j3OWtJ2BRqwFwMMTdfVnJMuGYwJWliIGkDCViyMOU6EFJIO2mmhaEhJYCbCZmkpc2kTJuSwTDca9kSZaBcAtjTTkxDDCG2sawbNtRFLg5gbDC+SHue/iHLlmxZWp1996Ld3+cfj3fPec/j8Yyen95zzvsOtzDP2AsAMfAboJlU9Ajz8rBkcXPHybjfA1w4qvOSdIhihIBkfbziQ4ACgEileaDrL3D/CZAKGgD6bMH4ATU9/5TT4kHDeWzd0cQ9F+8OA3PYd5naMREAbDPmLxDzDJmq54I8UDmUpjXVRFW3gN9GkuV8k3aI0YSAvr0GniWXEJC8h1d0CFAAEKlEC7u+gvm/YUPcg80tAPSf1onZzVwz/akcqhxZ05pqMjVnkYk/h/F54FyMkXesK3wAeA9jBbACeIEju3/FnDm9WY6eTHPbxbj9GKhNPEYuHaKQISC3/l2xIUABQKRS3dc1ixRPgZ846PMQAaBfxIuY38aV6V8nK3KUFnjEtLZPk4pm41EtxDPBaoETGFhtfgPA/2HWhvtrGCtI2YrE2/Amsbj9fIy7gLNzHivnDuHNvPfx5XkPAbn37ooMAQoAIpXsoa6jyHgLcO6ez0IGgL3fP0XEHVw547cJqszdQysPpnpCGvda3I8BOwbjKIwjcY4BjgYm9B3sh9C/IM7e+rcDW4Ctu//cgtmHEHfjrMNS68iwjnEHrWP+lO0F/bf1a+6cTRzfhXFesDGDdIgChIAwffte6tN/VkkhQAFApNLd+2oVNYf+ELebActTAOgfrAWPf8Q1ta8mqlX217T2TCK7E+xrwccO1iFGHQKWAtVZDx+uZ1dUCFAAEJE+93d8FbMHsYF72gcNAAO/WI7zUw6a1pJ4y9pKtsAjZnVdBPG3gQvydp2QHSLbZwKa2xcAd45q7LD9+j5WpW8MtuBSCVMAEJG9HnrzeOJ4ETC774N8BYA9WjHuAXss6GJC5eqx9klU8afAn2NZvsufi77/vx6gKtCAS3hv6xUHDAEt7X+Lc8fohw3+C3tFzAQoAIjIYPe+WkXNxB+A3wye2vN5fgJA/zHbMJqIo/u4elq4Ve/KgbuxuONcIq7FuYL+1/ny/9N7GxHfAVuK+1LgmDDD2hIOf+fy/d6CSNr8IR8BACogBCgAiMjQHuw8B/f76X+NLL8BYKBWjMchtYgrp3ZmMUJ5auo4jSi+AucysOP3+z6/P72XE6euZf60LgBaOuryGgKaO74Pfnvy4fLWo8s6BCgAiMiBNW0Yzyfbvw/8FUZqv+/zEwD2cl4nskXE1szVu5tROWtqS4NdtnsfhOHf38/PT+8duN3Omun/uN898PAhYDGHv3MFHxx3R07NHwYGgJ30PT/wNxBss6GyDQEKACIysgc7zwF/AEgP+jzfAWDwcV04z4I/y7ZD/pMbj/0kyzNL12Ptk0j5eUR2Ac4FwElBVx8cneXE0Q3Mn956wCOChwDWAnU5j9LXm3cSWwON6Wdobp2NRc+jEDAsBQARyc4D6w8i1XMzzneBg4FCB4CBdgCv4PwS85fZVf0y1530YZYjFc+jqw6jevxnif18LL4A7DT23deg8AFgE2bfoWH6g1k1uPAhIHfme5t/P4WAESkAiMjo3N81hVTmbrD5RQwA+4oxWon9t0S2GreVRJnVXF7bneXo4TW3nkBPdBpmp2OcBpxG34qEwytcAMgAPyNVfTv1owxPpRUCduIMbv79FAKGpQAgIsk82DUH85+Cn3LAYwoXAA503Adg6zBfj7MeYz2x/w8pfofHv2OCvc8ltR9lOfJeT3VPYPv2SXjPFNymYPYpiKeAHY/xKdymgg/ekyC//87RWk5s32J+Disz9oWAZfStolgsB27+/RQCDkgBQESSW7ZsHP973NdxvgdM2e/74geAbI7ZBWwG37b771uwQQ/AHQo+DmwieBXwewGuWbjjBlsF0fdoDLRJU3FDwE4i6qlPPzvikQoBQ1IAEJHcNa2pZmfVtcTciXHsns9LtTEWfTvgAh7X523Mfkhm+sLgKy82taVJ2TJgctBxh7cLjxpHFWSeWHsmbi9AFrtFZsNZyOr0DWN5xUAFABEJ597uCYz/+FvAXwNHlGxjrJwAsAG3u/hg6/1ZrcOfVFPnTFLxUgozE7CDiIasfvPfl2YCBlEAEJHwFrYdQlXqG0T+bZwThz1WASAfx60Ev5v3P16U18Y/UGFCQPLm308hYA8FABHJnwUecXLXRVh8K9gfDHmMAkDI45ZD9GPmTXu6KA0pv7cDRj/tfyC6HQAoAIhIoTzSdi4e/SVwMQO3elUAyPW4rcAiYvuXnJ7qDyU/MwE7MK+nofa5YCNqJkABQEQK7P7OI6nmSpyvg5+iAJD4uOW4LWT79iauOXXbyCcUUHPbv4LdGGi08M2/X4WHAAUAESmeR7vOxP068MuBw4c9VgEAjA24L8JsIY3ptixHLKyWjm/i/rNAo+Wv+fer4BCgACAixdfkKXo7ziG2S4F5wHH7HVO5AeBt8CdxW8ylM5aXdGNpbp0MURfYhACj7cJsHg0zng4w1vAq9JkABQARKS0LPGLqm7MhrseYC0wDKikAxGCvY/FzkGqmcfrrWZ5ZfM3tC+jbjS9X+f/Nf18ta88Be44KmglQABCR0vb42hOJU18EmwM+h6FWHBxobAaALsxfxHmJcb6Mhrr3s7xyaWlu/yVwbo6j7MDjuTTWPR+ipFGpsBCgACAiY8vDXdNIZb6IMxvsdGAWo32roLgBYBvwG4xXiW0F43pfZt7Mt7O8Umlrbn+LbDY8GpZ9lXkz/iNEOYlUUAhQABCRse3eV6s49PdnkeF0jDMwnwVMpe85gqF/xhUmAPTg9hbmnUA7ka0m07uCqG5t8OV4S0VzeytQl9MYRhOHdV/JnDm9YYpKoEJCgAKAiJSnZzpr+DA+CedkzKYCJ4NPAiZh0STwo4AjgIP7ThhVANgJbAK6wTeBbcJ8Ix5twvxNUplO3v/krYKtwlcqmjuawC8NMNIiDu++SiEgvxQARKSyNW0YT098EFUf19BT1ff0eiozjgyHUAX0pDYTZWLini34+AxXTd9a3IJLWHNbI9jiQKMpBOSZAoCIiISxwCNO6XgFOCvQiAoBeaQAICIi4Tyx9kTi6BXgqEAjllcIMMBLIwQoAIiISFhL2msxlhJsUyBbwuHvXF7UEBBqsaC9XXchK4u7WFBUrAuLiEiZaky34ZwHbAwzoDfywXGPs2zZuDDjJVBf9xrmXwI2Bxrxek5t/zkLvGh9WAFARETCa0y3YZkv0/e2RADeyAfHPlL0EIBfRN8OjCFcz2fa7g401qjpFoCIiOSPbgcMNlTXNbuJuemf5FxXgFJERETCaWmdhadeQg8GHqjrxlj0R8yd8WKAynIsRUREJCTNBPQ5YNe1d4l2ncolp7wborRs6BkAERHJPz0TMAI/mri6oLcBNAMgIiKFU+kzASN13Sj6ApfM+K8gdY10qUJcREREBMjPTMCHk8tnJiDO/F3uBWVHAUBERAqrYeYbOF8g1DoBzmVsnlzcdQIa6v4b8/PIeZ0AO5uWtV8IUtMIFABERKTwgs8EUEYzAXZTkHpGukohLiIiIjKkEM8EDF5SfwmHbSzdZwKy67o9uE+moe79wJUNohkAEREpnnKdCTD/EyCTcIQqiBpCljQUBQARESmuhplvYJnzCRUCnMtKIAT8Avhu4vONPw5XzNAUAEREpPjK8cHAVel/AFYmO9k/j3teb9MrAIiISGkot9sBCyzGbEHCs4/k37tODlnOvhQARESkdJTbTEDPjKeA9xKd65npYYsZTAFARERKSznNBMy3DPBcspNtatBa9qEAICIipaecHgx0Xkt45hFB69iHAoCIiJSmcrkdEHnCHf58QthCBlMAEBGR0lUOtwOMj5OdZ3mtUQFARERK21ifCfDEqxx+FLSOfSgAiIhI6RvLMwEenZDoPAuwu+AwFABERGRsGKszAeZfTnSesz5wJYMoAIiIyNgx1mYCnmw7FueMROemejsDVzOIAoCIiIwtY+kVwdhuJVmv3cbG7R2hyxlI2wGLiMjY1NI6C0+9hPlRQcYzFjFx41XBthJ+cs00Mqk1QPWAa2RbzAvUp5PdOsiSZgBERGRsKuWZgOdXHkwmtYSBzX80zF/KuYYRKACIiMjY1TDzDYjDhoDNkx/lmc6axGM801nDtuqHgVMTV5GJFie+fpZ0C0BERMa+ltZZEL0EhLkd4P4KmWge89PvjOq8J9uOJWPN4LOH/D6brmv2K+amzxnVdRPQDICIiIx9oWcCzM5mnK+kpe0WmjaMH/H4pg3jaWm7hQyrD9j8sxbfk9v52dEMgIiIlI/QMwF9NgFP4zyLxW30Vr3LuN4YfDIe1WJ8BfgacOSII43cddcxcWM62IOIOZUiIiIyluQnBIQxYte1a6hPP1wSpYiIiIw5S9priXwpJF6HPz+G77ovMzf9Ocy8EKXoGQARESk/jek2iEOuGJhfxg7Mv1mo5g8KACIiUq4aZr5BbOH2Dsgn5ybm1q0u5CV1C0BERMpbKT0TMHTXfYT62qsLXIlmAEREpMyV9kzAUmpS3yjGhRUARESk/DWm24gzXwK6i13KHs4yIuZy4fSdxbi8AoCIiFSGxk+vIcVngZXFLgX3J9hScyGX1H5UrBIUAEREpHJcUttN9a45YC1FqqAX89tYVdvIdSftKFINgB4CFBGRSvXE2htw+3vg0AJdsR3neubVLi/Q9YalGQAREalM9XU/pzeTBh4A4jxe6SPgVnoznymV5g+aARAREdm9cmB8E9jVwEFhBrV3we/Bav6Z+pM+DDNmOAoAIiIi/Z5edRi7qusx5uP8ITDyToCD2LuY/wLscSZ2v1CITX2SUgAQEREZStOaaqqjs3DOAJtKzFSMCcBEIIP5Vpz38Gg9FrdD6tc0zFhb7LKz9f/ejcumjvj/xQAAAABJRU5ErkJggg==;fontColor=#FFFFFF;" vertex="1" parent="1">
          <mxGeometry x="1097.25" y="385" width="70" height="70" as="geometry" />
        </mxCell>
        <mxCell id="E9nGVDsH-L22k8IpwY4_-41" value="Ad-Hoc SQL Queries" style="text;strokeColor=none;align=center;fillColor=none;html=1;verticalAlign=middle;whiteSpace=wrap;rounded=0;fontSize=14;fontColor=#FFFFFF;" vertex="1" parent="1">
          <mxGeometry x="1087.62" y="450" width="89.25" height="30" as="geometry" />
        </mxCell>
        <mxCell id="E9nGVDsH-L22k8IpwY4_-42" value="" style="shape=image;imageAspect=0;aspect=fixed;verticalLabelPosition=bottom;verticalAlign=top;image=data:image/png,iVBORw0KGgoAAAANSUhEUgAAAgAAAAIACAYAAAD0eNT6AAAACXBIWXMAAA7DAAAOwwHHb6hkAAAAGXRFWHRTb2Z0d2FyZQB3d3cuaW5rc2NhcGUub3Jnm+48GgAAIABJREFUeJzsnXmcE+X9xz/fSXZhN1ku76viUVu0WgXU+tMiVqsCgsLCWhUQ1OJ9VRDr1XiAiFaqeBS8ULzKAlIP8Kqg1lrl8qjVtt5V68m1mSzsJvP9/bFJNpnMTJ5MMjk23/dLXmaePM/3+cyxeT7zzPM8AwiCIAiCIAiCIAiCIAiCIAiCIAiCIAiCIAiCIAiCIAiCIAiCIAiCIAiCIAiCIAiCIAiCIAiCIAiCIAiCIAiCIAiCIAiCIAiCIAiCIAiCIAiCIAiCIAiCIAiCIAiCIAiCIAiCIAiCIAiCIAiCIAiCIAiCIAiCIAiCIAiCIAiCIAiCIAiCIAiCIAiCIAiCIAiCIAiCIAiCIAiCIAiCIAiCIAiCIAiCIAiCIAiCIAiCIAiCIAhCvlCpBQiCICgTYu2AAyLb+wzaGeCtiLmPwdyHoPUh5j6soQ8YfUCoJ0aDAfgJ3ACQn4AGJvjA6JESsZ2AcGoV3PHfBoAiAFoBbAQ4AlArwBuJaB0D34DxHRG+BeErf7v27bfBuu8+GEpbino8BCEPxAAIglA2DF7O/tbvN+1mwP9jQzN2g0G7EGFngHYBeBcAOwCoKbVOOwhYz8B/AXwK0CcM/pTAn0LzfebTjE9fPz74dak1CkICMQCCIBSdfRZ8E6yn7vux5usH8F5g/hE0+jEYu6OMG/gC0ALgfQDvMeM9gN73I/pu3VY9Pl5xBEVLLU6oLsQACILgKfs/vr6Xz/AfAFB/DejPwAEAfgRAK7W2MqINwL8ZeIsIq4l5da1/89pXj9+mpdTChK5LwQzApWdEdm5nYxAx7QHGtgzuwxptJDLWg+nfsVjsb7fN6/mfQtUnCEIZwkwHN4f7GT7tMAYfBtD/AbxHqWVVKAaAf4OwCozVhmGs7hFuWLliIm0utTCha5CXAZgyIbx9DHQmCGMB3tMcjU01MPAlge9Du++Psx6s/yKfugVBKD2Dl7N/07rWgT4yDmPmn3c0+Ni61Lq6MFsAWsngV0ijV3z65ldfH7vVplKLEioTVwbgspM39I7W+m5gookAatkhotkExIkycIe/LXDFzfNJd6NBEITScPCiyM5R8LEEHAPwUQB6lVpTFRMD8DYxXiHSVsRim19c3dRnY6lFCZVBzgbgkgn6CQDfBWD71AguTAAAfBzTjLG33d3jb7nqEAShOOyzgGvrffogg3EMEY4F8JNSaxJsiQL4G0DPGhqeXfNW/VqEyCi1KKE8yckATJ4QvgjALWwul4cJYCDChBNuvSf4fC5aBEHwjj2XcrfekcjRTDyagOEM9C61JiF3CPiGCc8R8AzBeOaNUT2+L7UmoXxQNgCTJ+hXgflay8Y+JZJLE7DFAIbddm/wL6p6BEEoLIcs4LoYWo+FZoxmxnGgzgVzWOYLdQWiILxEzIujfm3J2uMDX5ZakFBalP6sf3OqPkIDL0nm98AEGMBXhsH7zb6/4VsVTYIgFIAQawftHR5MTKeCaBSDgwAAshjEWxkmYDOAdQDWE7CZO1bv2wyglUCbGZzYToNBAQ1UCwDM8IG4B4GDBqguvpJgA0B1SByfyscA6O9E/DjYv3hlY/ePSi1IKD5Z/6Snjm/9gUGxt9g80MeTngD+8x/ubTghmyZBEPLjsIc3797uaz+VQKcC2DXZuFPK3275mIB2AF8C9F8Cf8bA5wz+XCN8wTGsM4jW1ZC2Llpbt271cIp4KWSfBVzbA63bxPzG1rEYttN82IYZ24B4a2baiQi7gGlXgH8AoNZLLQVmLREeifroEekZqB6y/jlPGd9yN0BnpP0wmEoX0gQQ8y9uua9heTZdgiDkxiELuI7a9ROZMBGEnwMgtmrcS2MCogx8TMD7zPiXptG/wca/on7tg7Vr67+quIFszHTAE5Ed/G2xvkzargzsCsKPCNgbhB+b3kdQTsQAvAjCQ63RyOJ3m7YNZy0hVCyOf8qXnbZ591g0+j4SS3MWxwQsnXVvcJiTLkEQ1PnZo619/Rw722CcAUIfIL0RL4EJWAdgDYA1BF4TI7y9JRr88N0massragVx8KLIzgaMHxvgfhq0fgz8FOD9AdSXWlsKOgiPGwYe2sMIvNDcRLFSCxIKi+Of8ZTx4RsAXGYuodDY/w+M7+HDTmD0ztEEMGk0Isr4XxbtmeSwgnh7geJkjV3IVc1rsujOMRZHYy3dv2/4eO5cKlhYoUxgpsMe1I9kH58H0HEg+ID0v7cimYAICG8A/CoBa3zkX/P3kXWf5Lw/VcCYBez72B/uxwYNIKIBAAYA/FMAgVJrY+ALAt9TE/Pd/VqTLOLWVchmANYC2N+qlJUJIPCSKOPKWQ80vAsAoRBr4U/Cgwyi3wPob1erw+yAzHRz3RbbybKm8uYfrIwfMKfY6SsaOm6raiqURiVN9rG3APyAr4Z+Ny8U/ApCRTPkNu6m94xMYI0vZKAfgIzG22MTsA7Aq2C8omnaX2Pf1q1afaYYTLeMWcC+DzV9Hw08CESHARiEjjcilooowE8R0ZyVbweeq7hHM0Iatgbg8rH6DlHiL5hs8pgaIgL/8aYHgucAlOENQpO4flM08hyYD7WruSxNgFOcLNsVZgIA4GNfje8X80Jyd1aJDF7wTZBb6ycxcAkTdgTg2HgX0AS0gfBXZjzDfjyz+vjAP0CZvwFC4ei/YOOePp/vMAM4nEA/R8netcAfMdHcdvD9b49q+KY0GoR8sDUAk8eHj9IYzwMOXX2dPwyfb+kR2HP2bNpiF2/KhI0/NMj3HqOjK9KqdjEBLjWaY7k3AcvnTwv+AkLFcNjDG3r72mrOY+ILQdgKgHWDnfo5XxOg4ROD+RlAe6aV9b/IQLHSMuDxDXtohu8YBo4BtF+g+FMV2xh4hIh/v2pUwz+KXLeQB7YG4NKx4VNAeCix7WgCCDfePC94mU2OJJdMDL8I4AiXiwWJCSiCCTAYRz08XRZkKneOfGDTVjFDm8LAOSA0AKbzXHgT8E8QL9RAC19rCr5T2L0RCsU+C7i2uy98qAY6hhnHgPBTZHnUW0AYwDIG37y6UWZyVQJ+uy9Iw3ac0roQ25gABkD8pkplxFjLhCMIKT9IjLTLkwCwKc02nQGi9Fjm7Y6xCfG0lPLm/cnYv9RY8YBp24k4Jl0ZOhU15a3RHMtJk0NsTcN4AGIAypSjH+RAWzRycSzGk0HomXpu086z6frN+GxRJvWaiH9+m0CLmIyFrzc1/LP4eyvkSnwmxfL4v8sOWNS6qw+xkQBGAjgUqT2whYcADCXQ0IGL9L+RwVevHCM3E+WMrQEAZ35nZwIoBqXpIQzEMhq8+BdlbwLM213VBAAjJ4X47LkhbxdUEXJjwByu6eEL/7q9Xb+KCNtnXDeFMwGfA/wA+Xn+q009/lWCXRUKyNrGuk8B/AHAH/Zb3LJtN9ZOAHgUA0fA04WK+P9YwwsDF4VfMgzjqjVjerziXV2CW+x7AIBvLBthCxPApP1YqTZGv2QrV6kmADZxTLoq2AQ0RNr14wE8CqHkhEKsvbyTfiIoch2I9rBqzAtgAjZrwJIYY95r/wk8LyO7uybxgXpzAczd//H1vWqMmhOYMBaMIwBoHlV7uKZpLw9cFF7KbFyyenSP9z2qR3CBxf18B1NP0YeAeCnb5EprgAj/DOwW2Dfk8MNx4Rnh7fxRfAKgu7n21MY141m1Xf1W6ZQZyyo2m7YBK1PjENspTpZtVU15azTHctJkjkVY+uA0WYyp1Bw5Vz8QxLcz4aBkouk6tLxurM67dbk3QXw3KPboX0/ptd6LfRDKn4MXRXaOwTgZwDh4+6rndoD+WBOLhl5r6rnOw3oERWwNwGVjN+7J8P0HcGiE0+/YL5v5YPBGq1gd6wFEFgDcyOYvxQSUowmIci3vND8kU3tKweA5m7b2E01notMRvzNju+sndxMQBdES0ozZL5/S8LJnOyFUJActDv/UAMaDcRK8W29gHTNfufofwTnS21RabA0AAEwd2/IhQLsDSiaACZilRaPXz3ik825i8rjW3aDFbgUw3LKxT4krJqCcTABf8OD0htkQisaYBexbvz48CUTXA85L9rowAd8BuAcx7c6XT6v/ryc7IHQZBi9nv74+PIKZzgJwFLK0Fe7g19hHZ64+QWaVlArHk3rZWP0OBp+T2FZ6HAC0g/EmCBtB2IGBvdNKqZgAphBpmUsBG0BOT6rSRiZmG/uaEjerJfXBftSjg76MuDaakrFz2FdDaf/4MIMxTtEEvPHg9ODB6gqEfDh6TuRgA8adBPTPMGp5mQD6EIwbCfXzV0ykjNfgCkI2+i/YuKfm900CYyKArQscvp2Bmxs2Ba6V67P4OBqAS0+OHESa8XpqmqIJSKtB6Y4/nk7AqpvvDx7opEtwx8QrIrsganzCgKZkAtj40YM39Ph3ESVWHcPncH1bTL+ONVzIgM+2tyZHE8CEfxJhOj4J/GlFiKJe6Reqhz2XcreerXojgc4G+LBCxmbCP8E0bnVjYE0h4wrOON5jznyk/g0wnk5NI8Ci5YbFAsBx2MIvcEosczrxTU6aBPfcP63+vwBeMp9Dq3NKDIDo5GJpq0Z+edemQ7cY+hom/AYMX+p5yDhHNp/T/r4YIMbbxDh120BgvxUTgg9L4y8Uig+G0pbVjcFHVjUGfg6m/gDmAyjI9UWMvQn8+oGLwjMGzOFCvkJNcCBrJzPF6Cpw+kvovDIBDKz5tCW4KJsmwT3E9DBg0cCYtjvyamMd+nYElwy+45vg0Xfpd2isvUKMHyW/4PTzkKMJeIeJhi8/LbD/8tODD8qrWwUvWTU6sHZVY3C8j2N7E/geFOZFpX4Gpmpbh1/+2eOtfQsQT8hCVgMw47HAWhAuy2gcgIKaAAYiRozHNjfLD5eX+GnLQjA2AyomgPeYeEXLIcVT1/U59vbwkd1R/w/N4HMQP+SWd/TqJuAzAiYM+m9g/xWnBZ6SF/EIxeT10T3/s7Kx4desRfuho0cg71H9DPpZzIitGbhIH5G/QsEJxbs7pktP0R8l4ETl0fk5jwmgSTfPC9ytpkfIh9Om6guYeYzK7AAiunPe9MC5xVXY9Rgwh2u2bdevY2AKqNN4Z322bz8mYB0TbjB8gdtl8JRQLhy8oGXvmI9mABhegHDMjN/j+8Dl8kppb1AcZ05c/0VgLAEPeNATwAS+QBr/4sHAw4kPgHNPADOfOCbEHi4Z2vUZdufm3bdt018BMJUALadn+5nnqB2Mm2L+9j1ePCN4szT+QjnxelPDP1c1BkcQ8Esw8p3eR0SYTFvrLxywoGWbgggU0lCeaBZaQdEZDwcmMlOogGMCIkQ47aZ5Mt+8mITr6pcB+B6AignYqn5L5NgiyutSDL0tfBLHomsJONj1AD9OfvciiH/6wpnBS1dM7L3BU+GCkAcrG4Mv7GYEDiDwuQDyvVYHaT56o//C8H6F0CZ04mqA1+STwvv5NJ4Dop+lpuf0OICxwsexX894qOcHbjQI+XHapS13MeisZILT4wCNmh+YHmgqoryK5+ibOOCv1WeDMBGA0wI9SWwfB2j4EgZf8tzZDY95p1gQvGHAIn0HDbiVwWPyi0RhZoxbPTqwpDDKhDxGeDNdeor+CyI+D6DhiC9rk8UEGCA8DcKdN80LPOvQRyB4zOlTNh3KpP1VccXAzd24bfu5N/bZWDyFlcuwWZt3hxZdAmDfnJbqRYYJaGfgtrra1mueOH2bFo9lC4Kn9F+sH6cx3wVg5zzCGAAuWdUY/EOBZFU1BZniNXXMup7o3m0QM/+cwD9kaNuAuCfALWDaQBr+bTC/Ch+9ctO84FeFqFPIF6bTpugfgrCbigkA6PR5MwL3FUtdpTL8tvDRbOBREPrkuFRvkrgJeNNgTHz+3OCbHksWhKKx/+Pre/mMmtsJOCXPUDNXjQpcJrNe8kPmeFcxE6e0XEegKxXfHfDivBnBI4sor+IYMUufZBDfgcRrtpWW6s34HGXG73tsG7i6uYnaiiBbEIrOwEUtowG6C/ksLUx4iL8NnCYzBNzTxQwA029O0/cjwmBmOpRh7AyiHcCoB2EDgA0E/MMAvRolbfnt99R9XGrFpWTCJZt+rGnaewAyp2dmNkyG39B2vWdm/efF1FgJDJ/D9dyq30uMXwFu1uvv+GwAb8LAhGcvCL7luWhBKDEdryHmR/NZVpgYT62vD4z+YChtKaS2aqFLGICpk9b1jLbVTmAN5wDYK/U72zEJHeMRnmeiO2+9u/7Jah2PcNqU8EoAAwFkNQFMmPrADcGZxVVY3hx3S2QnDcZTAPbP46U9Udbo+m/99dPlbkaoJgYvZ394vT4djMlw2R4R8Kw/Fhj5WhO1Flhel6fCDQDT5In6BAZuYmCrZLLqYkXxdAL+EtWiZ86e2+tDD8WWJadPCV/IQOeAGmcT8M68GUGZihNn+C0t+xDTMgC7JI9T7ibgU420k546r/41r/UKQrly4EJ9OGv8EBg9XAUg/IVrAiNWD6dIgaV1aSrWAFx8+sY+Wsy3AMCRlm8XzNEEAIgw+LRb72n4U6G1ljMTpoS314D/IvHcGnA0AYYPP31wevDtIkosS0be0nK4YdASEHpl3NErmgCD+HHNFzv96XN6rfdcsCCUOf0Xt/TTWHsC4D1dhlheEwsMk54AdXJ443z5cOlp+o5azLccQMegNIsXCymvWNiZXk+ghy86XT+joGLLnHk3Bb8C4y9piebVGlOOry+W9+jdiueEmS2NhkHPAOhlfhsfoLCwD7CFGBctOy/YKI2/IHSwZlTDezWx6MEAXnAZ4oh2v75knwWycqkqFWcAfjt+01aGwX8lIL0rujAmwAfiuRed0TKqMGorAw14KGMEhI0JAHBKKMQVd90UipE3hX8DogXE6J5MzMUEAP9mAz976sLgrTKFSRDSea2p57pgn8AQAPe7CsA4us6vz0MV/0blQkUdpFCItXbSHgJjN8CiR78wJoAAuvv8MyL5LFZRUdRGIksA6IomYKdPN4cHF0dZeTHypvAMMH6P+N+Nzd29kwlY5jfaD156scztFwQ7VhxB0VWjAqcDPN1VAMZJA38SvqPAsrokFWUAwp/oFwDoWJfeqrG3S8/dBPTxwXDnQCuQO+/cNkyEJYDFXAgrE8A0tljaygJmGjkjfAsYUwGlLv4ME0CMm+p2DAxfcrGs4S8IWSHiVY0NV4D4PLh5xTDRWQMWh6cWXljXomIGAU4exwHS9I8Y2DbtC6sBgHbpOQ4MZMKxt94dfNal5Iri9CnhY8FYltjOeH9D+gC2TeG2wPbNs6pgsA0zjZoZuR3gc5TX7k8/Vq0g/PqJi4MPe65VELogAxaGTyXCvYgvN58DBhP/avWohmYvdHUFKqYHQCP9HDC2Vbrjt0vPsSeAOuamVgW7BAIvgPB1YtuxJ4DRI+gPjyiauBIRCrE2amZ4LpjPATKvl6w9AYTPARokjb8guGf16OADDIwHEM2xqEZMDxy0OHKIF7q6AhXTAzBlfHgtgP0BZE5Ti6cBpnTG59DoDQKHDdDuAB8CwJdDTwAT4T4Gx5KJFpYprX+KLNJsyjoOU3GIY1jpMMe2iGUZJ60s/ZKpY3xFMo59T8AqBhbaWUiV/TdsviOgjcFr9/QHXw6FKPfuvwIwZgH7Yh/q9xFhPJDTC3wSvM0xGvLE1MCXnosVhCrgwIUtTUz0MFKnLKvxtQ/awNcbZRVTMxVhAC4aq+9Qo/EXSNXrbAI2EXB2sG/gsdQG5JLTW3eFEbuHgaNcrBOQVo+5gbVdPMdU3tygZulqt4+TZVtVU94azbGcNGWLnanpHcOH8Y+EijxojplGz9Dnxe86LPfPyQQYwEvdYm3HN18mb08UhEIycFF4HIB5yL33+vUNdYHDZcngdCriEUAt8VEwNyXmwWnxNDCiGozjbp4XfMR89/j7e+s+bQgHhgH0NxcDA+3rdpg3n7oNZHatZ+lqtxxYZqUrQ6eiprw1mmM5acoWO1PTvlqMXjn5ipZBKCKNM/RZYIy3PFZ2+9rpWha1dwscI42/IBSeVY3B+WC+0EXRg3u1hm8ruKAKpyIMAIN2s/nC6qZ9/k3zerxiFyvUTG1MuDBRPpWyNAHm7aozARzUNFpaLBMwZrp+tcad10cuJgCgO/fX65uWXSB3GYLgFatGN9wOpitzL0mTBi7STy+8osqlIgwAMbazXTLF1BCxgaxL+c66L7AKwCeJ8ml1WaTZphfTBNjFybLdNUwAAsUwAaOntZwP5mvMDb+KCSCiq5dMCZxbqjELglBNrBodmMbMd+dekmcfuLBln8IrqkwqwgAgPvVPxQQQfP9WCUjAB6nlTd+VnwlwipNlW0xAdpqmhcdqTJ0vRcrBBAC4bPGUwHVe6BIEwZqGrYLnEJDrNO06Bj06+H7unj1r16cyDABxa+dHmzzxH2nytSmOEKXuVg1X8luLNNt0MQEVbQKartOHgnEfAM1pYR8bEzD18anBGwupRxCE7Kw4gqJa65YmMN7JqSBh33CPyE0eyaooKsMAAN+kbjiZABha/2zBQmO4Fsw/BawbrmQ9Fmm26cU0ARaNkZUuMQHZGXNteF8CP0aMGrv67UwAAVMWXxacWQgdgiDkzutjt9pE5D8BwLrcSvK5AxbpwzwRVUFUhgHgzgVqEti/RoV+nS1cSzAyHkBDRuPSUVd6NIs02/RimQDztpgAV5w0LbydBjwJRoO5zqwmgHHJwsuCN+dTvyAI+bOysftHRDgFuS0ZTADP2f/x9b280lUJVIoBWGPZCFubgCMnjwtfZBdq6qkt+4C5866tkk2AXZws213JBIy7quVwuGBCiLtzlB8nYNe0+AomgAxcuujy4C1u6hUEofCsHBV8BkxX51KGgJ38Rk1V/x2b25Oy5PzzuVv9+sh3DA5aKc5YqAYAA/f7NMy6cV7wHQC48Izwdv52jCXCVQB6ZrTnlCyXkZYS0/KIWaZTZiyr2GzaBjL3RxYLctSoE3jY/OsaXoIqzHTyNfpDBuHkDK2J+Db7yoSbF14enKJclyAIxYGZBi7SnwZhSC7FiDBk5ajgM17JKmcqwgAAwGVjW/7MoBG2jbDdnhA2M9AGoEdKWkeZzLzm9C9Yiw0GdyvM1K5u6lk351NPAca3uprInsP+mTH8W3xs+O4BYxDgrQk4KaRfDfA15oY/mwkg4MEFlwcmgOwfQAmCUDr2W9yybS3T2wC2y6HYZ216YO+3x5Pula5ypWIMwKUntxxBGr0IONyJ25sAlcY+I52Aqb+/XwZ5FYtxkzmg1epLvTQBJ12tD4fGf05GUDcBT/faJjBy7pnUnss+CYJQXPovDB+jEZYhh/aNgBtXNgYv81BWWVIZYwAAzHykYTmAFYDDM3m7+zKLZ+eWz/7T0zf5a9rmuJAquGT+zaQbbYGhILwM5D4mgEFPO40J+FWotS9p/ABxyml3GOWfrJP5tdZooEkaf0Eof9aMDj4L4NZcyjBw8YCFm37skaSypWIMAACQQZMR75323AQw//bGubKee7HxygQMOZ+7aUZsARi9reLYmgDGvzlmHPdkiCJ57JYgCEWEawNXMPCfHIrUEmmzPRNUplSUAZjxSGA1M/8mse2VCSBg6e/nBe9yr1TIBy9MQO8+kZsJONB2RoO1CdhgkDGiOdQzxznGgiCUktXDKaKBz0BuUwOPOnBxyyivNJUjFWUAAGDmww13ApRsnD0wAf9q9+M0hwhCESikCRh7VUsTMZ+XzKNmAmIa4aTmq3r8qxD7IwhCcVnZ2PAyQHfmUoaZbhgwh2uy5+waVJwBAIAbHwqcQ+Dk2uuFMgEEvBP14/Bb7wlmLDwkFJ+CmICr9dMBusdxnQQLE8CESx+9qjqnBglCV8HXuvkKAF/mUGQvbetw1sXkugoVMwvAistOaTmRiW5D/GVB+c0OoIUxf/TMWfdKd2+5kefsgM582bY7y857LBScmLdwQRBKzoBF4ZMJeDiHIl9387f+8NXjt2nxTFSZUJE9AAlmPNzwp7YtsX7M/EcAm132BHxG4NE3PxAYI41/eZJnT0BnvmzbDAD82sY+gbMKIFsQhDJg9ajAowDUFwoDttscrbddTbYrUdE9AKlcctKmrf2adgY0jGbG/iD4zHlS7hRbwXiJmOZ8vKX+yeZmihVVrOCKIvQErDOi2v6PTav/b+FUC4JQagYsCe9LMawFMtsFG75r0wN9u/riQF3GAKRy0YT1vbq11x4CDTszYXsw1xGwwWBaR376x4bautVz58qc7krEQxPAAI185NrAnwssWRCEMmDg4vC9YJymXIDwm1WjgrM8lFRyuqQBELo2k0Jcv2WL/hSAI4DCmAAGbn3k2mBVdPsJQjVywJ/1HX1R/g+AesUin7fGAnu820RtXuoqJRU9BkCoTuaGKNKtW+A4AMuB/McEEPB2rRaoumVABaGaWHt84EvObYXAnet8kXGeCSoDxAAIFcncEEWM9sDwAgwMbIEWa5wXorzevyQIQvkT09pngrBJNT+Dp45ZwKrjBioOMQBCxVKQ2QGEtfVf9vjUS52CIJQHb47svYEA5cWBCPjhJ77waC81lRIxAEJFM/9m0rvVBobA7eMAxqDIdvrj55/PebzMWBCESmELeBaAVtX8Bui3YNvVZCoaMQBCxVOAMQHD1vfSF4kJEISuz9ujGr4B6F7V/AT8dOCSyLFeaioVYgCELoGYAEEQVCEfzQSgPrrfMK7yTk3pEAMgdBnEBAiCoMLKE+r/i5yWB6ZDBizedJhngkqEGAChSyEmQBAEFYxYbDoA5VVgibXfeiinJIgBELocYgIEQcjGmqaeHxBocQ5Fhg5YpPf3TFAJEAMgdEnEBAiCkA0ingbLV8jZ5Adf6qGcotMlpzYIQoJ83x3AoMWBr+t/Je+OEISuycBF4acBDFXMHvNxrN/ro3v+x0tNxUJ6AIQuTb7rBBB4lKwTIAhdFwPadTlk98VIm+yZmCIjPQA4FVs9AAAgAElEQVRCVVCAFwg93XtDoHH2bNriqVBBEIrOwEXhFQAOV8y+hWLou7Ip+JWHkoqC9AAIVYGMCRAEwQ6DcUMO2bvBx+d4JqaISA+AUFVIT4AgCFYMXBR+A8CBitnXtcYiu77btG3YS01eIz0AQlUhPQGCIFjDM3PI3KdOq5vglZJiUTY9AKEx4e3biQ4kNnYmDduDoRmgjQC+1Rhr3kfgn83NpLxogyA4MW4yB3w1+tMcf+4nswM8hpmO+WPrgYzYUCJtb2beljUEk18D6b9GKZ+N1HQtfc6WqXfGPo4GGDblUsuwqUxSQ2rZxPdkEacib6m4nUHrAPqQyXilu2/zM68ev01LqVUVmzEL2PexL/I+wHuqleCPdosF92puqtx2qaQG4MoxrbtpiJ3NwHEM9LNTFP+j3ARgmWHwXTc0N7xUTJ1C10RMgPccc8/GPtzmu4yAUwDsaD6mto0v0o+/ZTmLz+Y4aTEdytmVsdPgaALsdFcOWwC8YEC7fk1j/d9LLaaYDFjYcjYRKb8umImbVo9qaPZSk5eU5PK88sQNe1DMdxNAx4M6PbP5DzkV0x/WW4ahnX1Dc/1rngoVujxiArxhzAL2bfpWvwTAbwnolbUxFxNQjjBAi2PQLlnbWPdpqcUUg0MWcF27T/8UwDaKRV5f1Rj8mZeavKSol+aYMezrx/pkAL9joM5KRQ4mwGDQHbVG/eRQM6m/1UkQTIgJKCxHzVnX099e+xiAY3NqzMUElCvfEbhxZWPDy6UWUgwGLtJ/B3BINb8B7ZBK7Skp2hOr84dwt35G5E8AZgCoS/t7SHmoRxZpad91pmsEPr9d05dcPIbrMnMLghrzbyY91h4YRsBLgLvFgvTtIo9NmsQ1nostc46Zpe9Q01b7GgHHmv5e046j+Zim5s25nMVnc5y0mA7l7MrYaSCnmHa6K4+tGfT8wIXhk0otpBhwbewOABHV/BqMCz2U4ylFMQChCdy9d72+DOBGy8YecGsCAGBIvaYvDY3h2oKIFaoSMQH5M/h+7u7z8+ME9HPdmIsJKFdqQbj/wOZN/1dqIV6zeniP7xg0L4cijYcsiOzklR4vKYoB4E3h2YjPu+5I6PyuQCZgcFTTr89LpFD1iAnIj/oWfQ4YBwN5NuZiAsqVbqxpiw/4s75jqYV4Dceis5A++cOJmnZfrCIXBvLcAFzdGD4VoDMyHoEV2AQwcMnlvwof6V6pIIgJcMuw2zb9nIDxALI3vBATUMFsp0V5WqlFeM2app4fAHhavQRNOmRB5T2K9tQAhIZzvca4EUD6H0WCwpoAjRizQyGuyJm4Qvkw/2bSa7sFhjLwIuDOBFTdC4TYNyOnhhdiAioVAsYPXKgfUGodXkMGbs0h+9btvsjJnonxCG8bS79+DgPbJbe9NwH92t6PDHEjVRBSmRuiCLcHRrjtCQAwbF2vyCPV0BMw9A8tgwjc8WxYTEA1mAANxBeXWoTXrBwdeBHAu+ol+ALPxHiEZ5NTGEzXjNQ/Y8LOVrVmXPspSjhbuoVqjqcT6FUykByV2V7Mn1+LujybF6a4X67qzxI7poGZ+cs776z8t2FlQ6YIZmfYH8K3EHCx5VS4+Geg82/U/BmATBGsMAhYb3wX2G71mV33ugaAAxfpkxg8RzU/gQ+vpOmSnl16ocbwfjDwFmBzgWeaACbCw0TGnMiWLW/Vd2Nu5+77EbQziHAq4r0VKiYgI92m/rR4TukK5iTn+uN5lepX0OVYv1W6uW6L7bT6rH+w3mSmq+74Y+CpzFq7DmICnDnuDy0fArQ7AJWGdxMIv4syLXj+/MCXRZYqWLDvUxt6d9/iP56BmVBfAAcG8ZFrRjW86KG0kjPgSa6nNv0zAFup5CfgkZWNwVM8llUwPDMA14wMT+WOOf8AspoAZsZp1y0OzrOKdeWYltEE+hPEBLiv3yq9MCaACXT17LsCXXoWhpgAa0b8IbwdM75SvPuOaqQNeuo8WcGzHBmwSN+BwH8H8AOlAkxXrhod6PIDAg9cFJ7BwFTF7Fu41th59fAe33kqqkB4NgaAgf6p25bPu+LPxQh4wK7xB4DrmxsWkoHZyVgp5c2Yn7Nlqz8tnlO6wliFnOuP51WqX0GXY/1W6ea6LbbT6rN+fkkMvu68c1pCmbV2HWR2gDUGa7sDys/h75TGv3xZ3Rj4HxEuVy6g8e4eyikffNodAKKKubuhTTvVSzmFxMtBgNuaE+waYQN0W7ZgWo3vDy4HBmatPy2eU7qYADsTADD9TkxAykaVmACNjZ6Jz9lMAAFPFlObkDv+aGyZcmaDenkopWxYeUL9fwFeqpqfgEngyhjZUVQDAFg2gpHrFtW/mS1Y6LG6TwB8KSYguy7H+q3SxQQoIyYgHQLVqI7IB9P64ikT3PBaU891ypmpa1zDSrCmPBAQwF79Hw8f4ZmWAuKhAeDudt+YfjQjDs2iGb0jdEqsZHUW9diliwkQE5AHYgIyUTIBglChrPpH/TMAPlXNT6AzPZRTMLwzAEzfOn1NnT+MvS8d8W1DtnDnD+FuhJQphWICxASUEDEBKST2T0yA0FUJkcGge1SzE+OE/Ra3WPaClxOeGQCN+GurhicVYoABX72/bni2eL2DrUNRmLcIptWfgZgAMQGKiAlIQcEECEKFcy/UBwPW1oLKfjqgZwbAMOgTu4YnlQ4TQNc49QKExnwThGEkpxSKCchNl2P9VuliApSpehMQy7wObE2AIFQwqxsD/wPTE8oFGOM8lFMQvHsEoNHzgH3Dkwox71nn7/5cqHFzxrSS0MhNexmx+r8A2EulsRUT4KJ+q3QxAcpUvQlgMQFCdWCA5+aQ/YABS8L7eiamAPi9ChzQ65dH6vUtALoRAGY4Pggkpp8xou/9blT4RSK8xwwC8BMmDE7TmRKHkNLudKZ/qTHmG4k0k8VxaoQNsx1yamy1jnTDlJbI7/geSRtdlmUs8tqWccibWsbqXNiaAC2lDgMDScOR5mOePA+p54bRuThOhwnA7Xc2hJzVVS7zbyZ93GQellgsKG3/YT4eyDhuREkTUJmLBTFAlH4dpO6z+XgIQiWy5h+B5wfuq38GxcWSyMA4AJd6q8o9nv5Jhk4I/4mApsQ2K9SouGxwWhzTDdbk6xcGf5+bUkGFSZO4pg6RxwAelXY+4ueCTduA6XwSX9OVTQBQfSsGHn+TPhzEnd2ilHkdJPbZ0Gjg0xcGVhdVoJAzAxeFVftsnlzVGBzhqZgyZMCi8HQCfquY/cvdYoEfNDdRzFNRLvH0bYBajK9Fyg2k6piADBy6wpNxO9jUTm3KIzWF3Jg7l9q/XF/fBMZjbh8HnH92eAa6MNX4KmHHuf/m7wWhwmHi+Tlk3/Fjv/4Lz8TkieedctecEH4EwEmpaV71BBig0PULA9fkrlLIBekJyE619AQcf5M+nNDRA+D0PgAAiPm87wEYPGfT1t0N+olB2A6kJVcpNADb2520WzOfTWAtJY4VPlMcU7k0HRZ1pZU1lyHWNeDbKPveX91U95mdhEIhPQDZGbgo/AaAA5UyEx5aNSpYlgMCPRsDkIBrYudRu+8QAH0TaWpjAixMQOpzxpS0eJzV3/Spn14Q0YIjc+dS+6RJ/Ks6RB6jVBMgYwKSVOOYAPM+mccE1Hi0F0fNaf2BZsROBvPxMOggA9ASFSduNggAG7A0pVrKZ8TzpJuxzvTkOUo1bfHBOJpDuTQdKWXsNKS+Sjg+XRo+imHgwvB7BPxZAx59fXTwbZeHTMgTBs8nkJoBYIzcZ8E3wXebtg17LCtnijIsJzRCH0jEr4CQtjpg4XoCKKwhdmBoUY/381Mq5IL0BGQn354AAp4C6EnLu0uHu1WnQaixLHe5CSxjxMsm9BCwH8Dnsu057twfjWngksmF6wE45p6NfWiz7woQzmVC8pGJZf3mBtsir+IbDTPipMV0KGdXxk4DO8UkMAh/AvxXrGzs/hEKiPQAZOeABS3b+Hz0BQClmTtM3LR6VEOzx7Jypmjjcq8d2XI4M/0ZQM/U9AKYgI0aGUNDC3v8rRA6hdwQE5CdfE1AMl+27VwasEI3fAoxC2kAhsxu+QUTLQB1vqc96z51PRMAAG0AnbdydOBuFAgxAGoMXBR+AkDWReziPLaqMXhS9mzFxdNBgKlc/XjDS2xgEICPU9MJsHiwn47DwMCvNNBR0viXjrlzqb0V9b8CaHFau5bDwEBZJyBlw+m4Zdt2GIxnjqf6Ap+McjaflWMWgCG3t5wNomcJ2Cqn+vPRncuxcChnV8ZOAznF7PiuFuC5A5v128YsYLu+HcEDiPkh9cwYuufS8hvYWzQDAAChJ4JvN9QE9gH4GgBtiXQ3JoCImqnN2De0KLCq4EKFnJDZAdnJd3ZAMl+27TI2AYVg2O3hU4npTnDH+KWcG/OuaQJAxOd/ouky/bmIGN2CTwGIKGVm9OixOfJLbxXlTlENAAD8pplaf7ekIaT5Yj8BcCuAjYCyCYgCtNDQjEGhRYGm0JM9vvNar6BGczPFWikw3m1PAANTu3pPwNwQRbg9MKJqewLy5NhbNx3GBua6rr+LmwAAFx64UP81hKKwejhFAH5ONb/GPMpLPW4ougFIcNWinv/53ZLgRfWRwE4ADQXhRgJeAuNfADYBaAHwXzDWAnwPARMQo12vWRwYc93CHq+USrdgjzwOyE7VPw5wyeD7ubtG2iMAagvyOKLLmgCefdCC1t0gFAeix3PIPWLwcvZ85l0ulFzMlOdIB7As/k+ocObOpfYxY7hpx176Q0T4VefvEgDq+LHilG0AGVMEzz873H32XcHLiqu8eMy/mfRJIR66eYv+JAG/yHWKYPK4AWnTaTO2TXFSp+UpL9ubrVxKnU71U0q6G4Kb9AsY2AV51J+xT27L5XosHMrZ6bDTkPxsH6cba7HrAZT9m+i6AlFqf8LPNW0AahWyb6V/px8O4C8ey1KmZD0AQtdFHgdkpxofB7hlzB3fBAFclm/9VdQTcNLBC8P7QfCcN0f23gDCCtX8rNEJHsrJGTEAgifIwMDsVOPAQDdsjtYNBaN3wR9HdF0TQEx8IoSiwMjlMQAf7Z2S3Cn5IwCh69LcTLFJk3h8HYe7EdHI5O9XapdnyjaQ3t0Z7wnY3JXXCZgbosi4yTxCc7liYCU+DsgVBo3Isf4XAb6bY76P2M+ZayjZNeY1KZ9TaE/JaxkDAJmWgzHHaU9psNNIKZdaJtUEMGEnA8YEgEYqPw4w6AQAV1jsjlBgtCgvYR/ugNoN9V4HLGrddW1j3ade61LB5Z+kIKgzaRLX1HH4T0g1AUDy6mPTNmBqLKpgsaAJIe7OWyK3ADwJgK8rLhbEmruFgIbPCn/DhG1U6mfQ7GXn1V8I6nqvIDrkUf00gO8BQCqLBZGm7fJ6Y/3nudYjCwHlzsBF4b8DOFglL4N+vboxUBYvrZMeAMFz4u8OOLGOw39y0xNQDe8OmBeizQDOGT+1dQZpxi+JjR8wUXLhEGJk3F8Q4sv1pnxndvQEwDB9n1ziN+V4J+6E0+KZupwNLaVcMj4dBuJDVXsCcmX4zZu2BrCNYk/Ev4D6KV2x8QeA104K3HfIo+GjAJyk0hOAmNEPQM4GQMgdAj/PICUDAOJfAhADIFQPYgLUePDGus8A3FtqHaqMntYSAuhQpccBLvD7aJto/HNWE8D82LILaUseu1P2aKDHDPBJgM2jmpTjwkjpNRG85nkAV6pkJMYvEGINIXJ6ZUdRkEGAQtGYO5faWyl4IpgfT7shTB38lLINmAdfdf11AiqN5A+IymA4F28DjEKrUx2MB9L+l3sNFceXqgMDmSlQTGHVTCQW/DtAqm/727r/TyMHeCpIETEAQlGZO5fav9wQHCOzA7oOqiPi3eCLdYRQMQHE+dRUGZARH1ahYAI0kjFexeLdJmoD+GXV/BTjslgWWAyAUHSS6wS47AngKlgnoKJgb01AtilxaXVWA1mOR9ccAVERPK+akQi/8FKIKmIAhJIgPQFdDBUTkGd8wNkEVAtpj1bEBJQNxKxsAAAchBCXvP0tuQChepGegC5A6jCmLCbANFVemQwzIQ2dkglAyYeYVRcrG4P/BKA6DqXnwL1bfuilHhXEAAglRXoCKp9cVslzhVWPQjWbAKtBltV8PMoFIgbTa8r5fdpBHqpRQgyAUHKamyn25YbAWLcmgIGpYgJKi5IJyAcxAUkyZldU+fEoJxi8Uj03HeidEjXEAAhlgZiAyiT1B6TUJsBXLV3erGYCfMVVJQDQGMoGgGCIARCEBGICKhPlefoFiJ/NBFQNiibADVV5PAuEwW2roDj6gkH777OAVV4j7Bk5rQQYCrFW84a+n6HhcBAGEmMHELYHEGNgA4O+JebXWTP+tt32DW+cOZdcLP0hVDPyAqEKwwCg2axKB6Sv2JcHTqsAJl5gVBVzAdsB8plXQETn30aBjkc+L2+qZlY39dk4cFH4AwB7KWTv3t0X+QmANR7LskXJAEwbEd4OMZqEVfpZrGHHtHm9KRdf3JY2Emv45n/6/64b0TJX82tzrlgcqIYVuoQCIcsGVxgpjY6TCciXbCagajDtu50JQOZ7EHNCTIA7GFhJagYAAPqjXA1AaAzX+jdHLmODfwvi7rYZzT/MHewApt8Z7Tz5+uHhK/fqHpjd1Ex5XpJCtSAmoMJQMAFuG2nV1xMXwgQce1drX4pGDwZpPVMfkNr+cJketBuA5YNVhrGOa32vvXhq/Rf5q4SaCcgjtuXflKCExljJhFNU8hK4pFMBbQ3AtcNb9vFF9AUA9la6AKxNAAAEGJj1r9bImNDIlpGhxxu+yUewUD2ICagMzOfBtsHOpw4VE5DH7cWQ21q2AWEOorGRHd0VDDaQvK40pO9H8nM8DwOd12RKuc68BGoz+Ii7w4/4jLZzXzizz0a3WlOPt6MJyCe+mAD3EK9VdqNMe3orxhnLQYDXD9v0fz6DXgawN5DDoBDzYK1UiP/PF6UVoRH6jrnLFKoVeYFQBZBlYF5eg8pSRhF5tRTwMbds7EOgvxJopN3AOqX6s5cjDTjF0GpfHD6H610LNh3vjM/x+lyP8GbnfRec8cd8H6rmZeI9vNSSjYxr5PrjIgcRtOcB9ElNL4gJAPpp4OWhId/3yEWkUN2ICShfHN8GWKgGRLERdtvg+XzaNAB7WY6oz6F+5XJA/7AvPNWl3PT67D7n22CLCXDNa2PqvgQQUclLwJ7g0vWvpP3NTB+5aStioxmApTsthAkgxl4+f7fbctAoCGICyhWHhggwnQOXc4KUG2EXDL6fuxO0sRm6bT471p+DCdCYJrrRW5MaM5sJcImTmRAToAARA/hIMXdgwOLI9l7KcSLNAPBmuhvAD5wKFKgn4NTrRrSMUowkCADEBJQtuZgAl3hlAhrCLX0BDlrqtvnsWL+6CdjlqDnrerrRnBYzy7F3RZYeBTEBCjCrPwYwYiUbB5A0ANcfFzkIRCNVLpyCmACm61mGlgg5IiagTPHIBKTe8XphAqJstDvqdlO/ogmoQ2/X66QomYB8VkYUE5AfGikbAJ9PK70B8BlGKBf3WAAT0O/64ZFhilEEIYmYgDLFi7tRqDfCbghu3/MTML4utgkA460nzySl58QZWMUs5CMAp5hiApRggz9QzWuA+3ooxRE/AMwcGt4+ChwLwHJqlR3EeNPQ8A8CdQMbAwDa3TJjPFbG1BTi0LVuZgUUaAFjJYNss6B2xoyjPDUZDnVloNloyAWr+csOdVmhXL/CftnNn7at24iAgL8w8HMibJ28rszXWsp1bJ4ieP7Z+tYMvG3WartfDvoyjl+26yaHfTWyHb9crgen857rufYBYB5AgO3c/LR5+nmQOjWtkNPUmpsodtys8K0AptvqJvX6LacoWsUg3OJOsYMWC92u60jsh9X5zDN2NcCgj1QPERnY1lMxDvgBoJ1xNFHnKc1mAhh4y2fQxN8uC6xNTb9umD6CiO8GLHbIygQwBhB4Tlo+6/rSMazzWeZ1OAtJLU5nyrD+cdHIVJd57q+NBrZIS2qx2a+M+uP5NHM9KXGz1m+qy/ZY2Ow/YHEM7Oo3bNLN9dvtv4Wujro7g6YtN6toAhh8LmDaP8O0X6m6rc4xdWZL05k6PzwlVvKcWR2T1Nipx8bqHFDmuUzGttGYyMvm427SbKXJMnZKfqcFevJeCjjHRjhXwhsDNwV76YeBMbRIJuC+FyYFH3SnNl6HnZZCHO9EHWIC8kF99VvStvFQhyMaABDhGPMXyXOb+Qv/oQ/RI8yNPwBc9XTgCcPAUQBaLWtL7bqyw+LKtcxvc4Vn5M3yl0Aqeay+t+pmS+0ey5Zut59W6Tb1Z9Rjl66gK+f643mV6lfQ5Vi/Vbq5bovttPpSj4G5XqfYTnGybKtqylujOZaTpmyx89hfT98GaLF/Gfvm8pn3ihBFwxsCx4NxObx8HAB8CqazX5gUOMOdUkUteR5vy/2wOp/V8vZFF3ANfZdD7pIZgMRKgJaDECzvoGBc+tune623C3j10uA71x8Xng3gUssM5rszhzyWWrLks8ybxa2a3bxlHqs7DCu3nXasMu9K09Lt9tMq3aZ+y2Npla6gK+f64+XtjkGuuhzrt0o3122xrdITYLl/prseAJbdqxl3gmadipry1miO5aQpW2wnTVliO/UE1LhslSyPlc2+umVFiKIAbgiF+MbX+2zcTeOaXsl9SGQym6Oajv/ZjuRLufj9Me27pefVfQoAOCs/rcnYTseCAV8ex8SyR8N0PvM2dV2Yti3139X5dNXsfbJn8YaEAbB9BmH649Pb6oNPZQtqaPSYZrC1AeiMJSbARpeYgDI0AeZtMQG5mwC3WBx3L0wAAIRCZABQHsFddExvA3Q8FgV8GZClCRBsebeJ2gYuCrcAaMiWl4FgESRZosUVbOeUiTr//0momdqyBQ12q38/a81mN+2Qx0pLtnyWebNctaSSx+p7Kzecko+ypdvtp1W6Tf0Z9dilK+jKuf54XqX6FXQ51m+Vbq7bYjutvtRjYK43W2y7OFm2VTUVRGNqLCdN2WI7acq27bTvbmCbY6XyO9LVUDkWebTQdo8yLB8HCE4odQEQEPBaiB2Jcb/tKo0jc6LTy5m29etrlWoXEyAmwE39VunFMgF5NIrVbgLcklq3U8OnOommS+CxIVIxAUI2WHWaZ6kNAHW8oS9747j7jKOyr14V61bTv0ArBqblMWlRymeZV0yAmABTeTEBDtuFMgFuMR17p4avGvD8WCRiiQnIE+V1Hrp7KsOBxBiAr5EYCMhwao39sdra0wDMcgpKTGcyQX1qTrxOgsM1ZaHLMr+N/oy8zvuZ6PFwzmO1f4yOt4mm1pcSh7Kl2+2nVbpN/ZbH0ipdQVfO9cfLd/kxAYkfSbKIY9KVoVNRU94azbGcNGWL7aQpS+x8puhZ7pf5PMR15fvMGwBOmNXaN0rRgzXWegJATGW9hnjXQ8ag+JSyMTbW1Wq+1546u/6LvEUqHIt8xkSklreb3liQc9r1yfq4vNT4AYBgvMOgQ5OpDhcPAddMGxpefsXS4JtW319/XPgUZpyYzF+lJiCjjJiArmcCzNtiAhxNgCva0dm3n6Xhy4cht7VsU9OOOQbHRmpM4LhgzbwGQ+pxTXyOr4eQPC7x/KnrJGggtLPBx94RfiTqbzv3hTP7bMxLsIoJyCO8ignQ8qmgGmBo+V6XXhNfB0B7JkOn/cltIODlaUPDU6aNCCcHD04fummvacP024jxgLmAPA7IrIuypdvtp1W6Tf0Z9dilK+jKuf54XqX6FXQ51m+Vbq7bYjutvtRjYK43W2y7OFm2VTUVRGNqLCdN2WI7acoW2+3bAO2OGVvryJUxt2zsU9tOfwU634WiMKffsn6y+RyPQ0w4xWfUvjh8Dlu+cTUnsmhxvTip1b44XHuCDVSoNWu9o6MHwB95kdvr2gioTTu39s66gYCZiGLmtKHhTQD8TKh3+iu0ulMk8BMx1q5NS1S9uJSGI9pocZM/my62+X1zodONCQCA9jyOSU4mALDcL+XfdwfDkFG/qa7U76JsBDTQAwD6uugJ0JnpRL/P956dzM1OmrNdD90z9VptO7HFTb3dstenZJgt6kk7Hon9i0UvJMYFyj0fLnFaXyDfaWlthjYNwF4Zd9E2d75Kd98Wn5NxgP5tsfBUAL9zozcXLa7i2+iXRwA5o2oAXL8UKl/8ADD1iW1abji25UEQnZHRdZTlQiKgh+oFZ75oYqRdf/VTgdWulAtVzeRxHPDV6ksZ6JtIy8EE6AbzsNl3B18qnuKuyfgrW9Ybib7wbCYgT7wwARNC3H09ImMBtm7MvTIBRBPh0gAoa3G7Ul8iRjYT4FZ81UB1ilel8opBhSbFofinIT5owanr2opcuuFSuo9WXP1kYGX2EoKQzuRxHDBq9KXMGGT+TuFxQLzxb5DGv0AoPw5wG1+xO95Nf2tLsKUvMXcuxGLVre/N44BdjpqTfUaVmdSONyUtbmF7/fIIQBVWPb+lNwC/fabuEwJuS2x7bALaYdAUNYmC0Emi8QcwyO5xiIMJ0A1I4+8FKiYgr/gqjbAL2jWOOsb00ATUoberrl9VLW7J2B8xAW7poZgv7KkKB9JMc+9vApeD6W+Jba9MAIFCVy4NrFKTKAgdTB7HAcPX0fgn0nIwATpJ4+8NqQ1EynYyLd/GIpdGOEe67dzjYwDfOcb0wgQQ3nryTOV54hl4ZYgyYjiYAHkZkD2HLOA6AGoL4oFs363jNWkG4MzV1B7zUxOATxJpBTcBhGV71tffmINGQehs/AmDLAcmOpsAnYiHzZLG3zs8MgHJLm+FRtgNzU0U05j/aBfTKxNAjFvcKbauv2QmQLCkrWbjjjlkV391cIHJeGx25VP1X2hROhTAO4m0wpkA/nNDLDCyqZkKsGSHUC1MHscB9ulLiVKe+aubAJ1i0vh7RuzoHWkAACAASURBVOpdYDYT4BLlRtjlHWmPSHAagf5qGdMbE3DfsnODD7pTi/TjWmBDBNjvg5gAdTT27aycmfGVh1IcsRw3M/X5wJdburUPAvBwIi1PE2AQ4batvwqOuWAZbXEnVahGEo0/4t3+addhdhOgw+Bhs+6Xxt9LVNcJcE0ujbAL5oVoc0+9/pcaYyaATRkxC2cCPiXQ2cvODZyRj16LAYXWWtzeZjnsQ2rdZT/JvaSQugEoYQ+A3+6L0JLeGwCMnXFseD4TZgHoRzD9PXc8y7Ilnv89jhmTrnimx1/tcwpCJubGP3G9pV2HpmswZcqSNP5FRHXFQNcw1KfouWBeiDYDmDppDl/5fUvLHjH4AmazaWVqsq69ES/HPu27pefVfQoAON+9zsTKiKlT84DCHgsAGcc743MhzmkXxmDajRTdL4E/9ViOLbYGIMFlzwSfZfA+M4bovwTzOUR0FKe+vcj6Qmgn4Dk26M72n9U/E3/HtiAoM3kcB+DTlxIwyMp0ZjEBOkvjX3S8MgGpMZxMQCGYeya1A8j+OvNSknpsnUxAnvGzmgD5VbdFA/dTPf4GtP94KsaBrAYAAAjEWIbnADw3ZwDXfL9ty0FgGgDCdgDtwAbHNI3WG8C3xPxGmz+4MvRkfITrM17KF7oik8dxAJq+FIxBGY09kM0E6MzS+BcLDemP3h1NgFscGiIvTEC5k9rwO5kAt69HTovpZALc70KXh4F+qnlrjfbyNgCpnLma2gG8Gv8nCAUl2fg7dfvbpTN0hjT+xUb1BUJ5ISagE1M3vJMJcIuSCRAsGbOAfR9D/5Fi9u9fa+q5zlNBDsg4DqFsCE3ieiL9SYJphT/zwDLr9AiIh0vjXxpUXiDk6lUVqUvlOA+wg6+a5haZBuQ5DQx0Ezsjpt2xFzL4UNP3AaD0sicC3vJYjiNiAISyIDSJ6/XN+lMAjrD8gXEwAdzR+B93y30Nyz0XKtiiYgLyjpvFBFQVWUyAW2xjmo63NB7WaESHqOY1GGu81JINOYdCyUlr/BMomgAGIohJ418yTAPBsr6m2CWerntfYVgeixKZACETIlY2AKRxSV+GJwZAKCmTx3EgEtGXIbXxT5DdBOhMPPSWB6XxLylZGn0xAYXHUxNgEcfWBAgZMNNhqnk1sPQACNVJaBLXa9CfBGGQbSNhbwIiPkOe+ZcDVg1OQU2A3bPtKr8bzWoC8pmmp2AChEwOXrjxhwDvoZj96zdGNpRsBgAgBkAoEaFJXB9pTe/2z8EERDSDj5spd/5lg4oJgKt332UZ4FaFd6NZVyGMp7n9cTebKlsTIOsAZBDVtCHKmQkvgkr7XkUxAELRmTyOA60RfRk4s9tfwQToZPBQafzLDyUTUKDYYgKsP5tNgCssela8GGfQFSGDjlXOy7TCQylKiAEQisrkcRzwccc8f7sfEgcToJPBw26aL93+5YIGpDfMpm0gPxOg+TqjZTMBGhtu176pGChKyX3MZgI4n3t0FRMgpHHIgo19QDhSNX8sFn3RSz0qiAEQisbkcRzwGSmL/MD+bsKi0dDB0viXIxkNs2kbcG8CGMZmp9jpDR/t7q6WysFHxp52+59hAgwj7KYOp2mWYgLsaff5xwCoVcnLhH+uaer5gceSsiIGQCgKaY2/uXEAspkAafzLlfg9pooJcINvC3+dLXbiOmHglNNu/LYh/1rLk8Eh9jPhYicTlP6Zv3BVkd0MC3kE4AgRn6KcF/y4l1pUEQMgeM7kcRzwGx0v9kkmqpsAafzLHZuGoRANxYM39PgewFeKJmCHza11C8eFWrbNr9byY3CI/XVbRW4BYyDg3BMS/2yglt91XaGYgJwY8PiGPZihPv3P0JZ4qUeVnN8FIAi5MHkcB/wxfSmoo/E3rd2f1o9oXtMc6FjbXxr/0nHapd82sK979xjYCLBhhKM92+bfTHpGxvh5y1iXHhnnNHcYy0CYmC12fA38o6Ogd08KhR8g4g8N0mwXCI7ZjRgw3RZZPkiPl80I7nBLlYxjUW/M8VbM2JlJHwPgxwCU3gGgMb32zBl5rjHPcH7/Ql7BuxYU858LUjskDHzyRmN9SRcASlCWBiB0zMY+Nd18Ne3dAutDzdRWaj2CO5KNf6LbP/WHO5HJ3gRI418CTjn/+x7da7udDtAoAv+EDfQiA9BAaIOGGtJx2hSbR8vZTIBLmLUniYyJabGcTcDWAC5hJhA4bRRh6mfNQNpLc5KfjfS8ZCoHoONVuNTR3nNKOuxipsYxUuIkGmxTuXSticzIOL72JoD/DJeYX+bkZAIEYL8HOQDSJyoXIH6w1NP/EpTcAFx/dGQXn5+HMXgQgEMA7AigFlGgNqpj+jA9zMxrwfgbNH728qeDK6hgk4sEr5g8jgO1MX0pA4OsGvssJkBHjIfOfKTh5SLJFQCcfknrrhrHljJj78SfmOOb/oD0RiG+bWsCXOoK1NQ9G4nq/wNhh2Ss7CYgU5/VXWxK3pzKpdTpVL9TTA/rb6WY9mjuR7oTZS0CaurD4wHqpZidNa55wFNBOVCyMQDTj9n082lD9IWaz/iIme8CcBKAvjCPomQOAvg5CFPB9OL0Yfq704e1nD1nALt6uZjgPZPHcaA2qi9l7uz2T2J+jpuZrsPgoTdK419Uzrqota/GsRUA9gZg+3zZajtjHn6BnxPPDVGEiK51HANg3k6tN9vzbLflbD7nEtOL+plx27IL6j9HnsjSy9nZZwHXEtHUHIq8vLKx+0eeCcqRohuAm45u2faGIeGHSNNeJnAjEr0QDj8UhLSLrx+D7vxue/2NacP1/h7LFXIk2fgnBvyl/kAlsDcB0viXgLMuau0bo9hyMPoCmQ0NUHoTUPd1/b0A3hMTkLX+b+ra22cgD3LRXe3U+SITAeyqmp+BuR7KyZmiGoAZx246LOqjfwI4BbBwkVkuKtPFtz8Mfn36cWH1Zy+CpyQaf6SO9gdUTYAOlsa/2Jx1UWtfg2LLqaP3LfNclYkJmDuX2uM3DBvFBNjW38aGMXrJxb03IE+UtFQ5ey7lbgBfnkORz/FdoNkzQS4omgGYcYx+PJP2HICtUtPzNAF+Ztw7bWjLuYXQKLgn2fhbdfsD2UyANP4l4KyLWvsasL/zL7gJyJP51ze8R6CTAcTEBFjUb9B5z17Q4xUUCDEBzvTerJ8P4Aeq+Zlw++ozyeUbMbyhKAZgxtGb/o+Jm8Gos/o+TxNAILp9+nD9hLxECq4xN/62P/rWJkBnafyLzlkXtfZlxJYjy51/IU1AIZh/fWApaRgGYIOYgOTnzQSMW3ZB4G4UAkXd1byIzIBF+g4MXKVegsJttdGy6v4HinAOpx0Z3o41bQGAjkF7Nj8GeZoAsMF33zhC39GdSsEtk8dxoFtbSuOfQM0E6Axp/IvNWRe19mXuuPN3vFsvVxNwbfBZLWYcDOCtqjcBxB/B0AY/fX7wIRQIZd1V/DZAAs8Ao4d6Ab7rneN6rfdQkis8NwBaDWYB2Ckt0RsTsHU0ZtyVozwhD5KNPzDIcmKmswmQxr8EnHVRa1820u/8i2YCCsiDN/T4957+QH9mTADjs6QGs0bzdtcxAd8z4zf13wf7Lb2o/nUUGGXdVcjAxS0/ATAuhyItXGPM9EpPPnhqAGYc07IPASdafumJCaDh00aE91MWKLgmtfFPpOVgAnRDGv+ic9ZFrX1hxAf8OT3TrRATEAqR8fC04ANb/IEfMuMYEN0F4OMubAK+BvAgMze2tQV2XXpRcFZzyIOF0nLVXXXQRORwWRP41tXDe3znoSDXeLsQkEaXg6ERbNpxhuVhzMhvky8jP4PYwGQA490JFlSYPI4D3bfEp/qZzkvGQjFA8vzFz5NukDT+xeasi1r7IhZbDuoc8Je2RC/DfkEf4BMCzTDI8s94P2I+V2WxIK+IN4LPxf9hTOibYDd0296I+XumZTSbghrTdgrtqfnNe21TzsogtTuUtazbwgQY/lh4i8HfPvubPJf2VST12jBfJ+aFi6oSA/1ycLXt/pgxy0M1eeGZAQiN4Vps0ocnLxwomYAWMJawhjcBgBg/ZeAEAD1UTQAZ+NX0YXr3bPqMHPs+HK911YvBps5cH6WxSp2qdaXESdtHh+PDW/QfA9g3oxFJhLQ3AbpGPPQGafyLylkXtfalWEe3v+M6/dYm4BMf+47446y6T6xinz5ZH06Mc1VWDCzWyl3NoW3DAEr+qtWKJXEdKJiAaoQIWg7ep6bd7zsVQFmaAM8MQN2m8KEMaoD5B8cqc8cF95dYDU654ong16lfTR/Ssg1A8wAMVTQBNcw8JlsDSea1tx0zO2iP67eqLyO/YZ3PMna2/cxyLMxrkifLkqkuu/Nj0ppMNzf2NlosfiR0ivHQaQuk8S8mZ/0/e+cdHkd1/f3vmV3JknbXBTAd4xB+hFBDCz2Y5ga2cZEwEBvTHaoNuIMZG3fTEiChd5tgYeMCGBuDTUIL/SUQSCAgHCAE4ybtaC1pZ877h7SrLTOzs2VGK+l8nsewe+fOvUe7s3O+c++5546L9KYmfT0U8yf/DCKgRmHfqffdZe78ATTvhtMiFjOKgKJaACXYIiLAGsKHYPRzXJ8x+6hna1e/P6Lr5y5alROuxQAw0CfxTQyLa+YfpcHAoFTnDwBTV4c2NQYDQwF8kNqWGWbDcJZ1nco483ls0zqmtmSoZ1rXyd+ZqY7FnLxdX2ZzwUnlVn+nWXlrmUaGOH+vGTsu0ltpahn2t5sTT3nfco3UKMjg/BPqx9vKFBMgtB84+dpIu0466SoAivoeQHZytpxIebzPem7zvXdScTEIkPZOemsrAli9vpoiVi2p1dRIhGlmbZn27LAeICLArK8CiwBx/m3A2LGtzt80eM/+fQ05df5mbYsIaNeYBiZaiYBOyDtV5V+DONuo/l+HN9dns2eAJ7g5ArCrWWGMBCejN+yIrM7UXkN9YB1ArfuQighorV+8IkADi/P3mrFjI719vpalfqnXbGYRUEOUnfM3bVtEQLtGRIA9vCk4A8B7WZ1EPP3Xy8KHu2NRbrgmABTwzqYH0p3JVnXDrhYbjLeibqAogb+3assMEQEJdbwXAeL824CxYyO9fUpKkh9G8ndt9+SvZPnkn9hOatud3Em0dzKKgE7M+1dQE3TjtwC0LE4r1RmPH7yESzNX9QYXRwCo1uZgHAICqspO7eiWk3N0UA8QEWDWV44iQJx/GzAu5vzRHPCX9t3ai4Aa5Oj8bUcZRAS0OzLmKWgp68ypgAHgvaqu/wTohmzOIeDwcl/4FrdsyhY3v8O0gL4kWi+s8vJ36jNu6ztnYO0BAHYDcnSODuoBIgLM+spSBGgMcf5eM25spHcT6eupZWOfOCbfrcn3VgNfbs4/HtUkIqBD4VQEdHbeGx64H+CV2Z1FE49+rv7X7liUHS5OAeCHjJViF5HB12eqSgZNSHpv1ZbV+Q7rASICzPpyKALE+bcBceff8uRvm40v9Zo1UMM5On8AYIZh2XaKEzF8nX7kuPjh1sV9mUQAMXfSdQDJ6DouRaYH3mT80I2HimEqwDUBYIDedPRrZ4CB8+b3r7vWqsqcAdplILoktVxEgE1970XAj2wYfcX5e8u4sZHeOvT1SsqTvyMRwKjhktydPwAoMDTARmAk2OGLYvdc+xG8YcDdkb2sRm9SRUBSUHYn5sOq0CYwXZzVSYRDy3z1E10yyTGurUukLvWvYkd5IxFKM/pSBpjo9/P6hfszKQ+yEf0MAEjx/xIwLgLzoOZGTfpBiq9jMIi/trQrVp/N20uqy3CW7KKlrYwiIKUCwWQprY0I4NR6NvKNgIzJgqwy9sXStnJCWawdSiknop8Y/JIe5T/Mfa7rZuvehEIzbmykt84J6X1Tvk+rlLwt13+NoftOve/e3J0/AOgKf08Gxa//xN9W6nsmHgHg+Xz6E1zGxxcRwzb9b8I19X16A52T90YEXjx6afhRABc5PYfANx31bO2zbZkgyNUhuXl9w2sI6Auy9GuW1ljWt7A4of7aqauDzrM0CUI7ZNzYSG+D9fUcC/hL/O2k/EbSRB6hRtd9p953X37OHwBUlf3fb9O2AQggVTimvzeYeeTDd4Sq8+1XKDwD/lB/HMjYAEIXIPaQ33qcU14TMHrN74JPemtl8fKr57Z29xkln1Dq7re20Ovv/b3iFKjUJtMprgqA+f3qTgXTq7GevBABZODMKWuC65xbKQjti3FjI70No/XJP9XhArYioEY3CuP8Y1w+TlsK8LBEG+xEAAhPMehZ4gxPkCUFzB5sshFBTm3bbGhg214WGyGktZPjJgpNDs9jH+8EHWdBwVgAXRIdv40I0JUo77H62tCm3KzrmBz9rDYQxC9kcw4T/e79YYH73LLJDteDcub3DW8AcEqsNzdFAAEfTF4dPCorAwWhHRF3/ilP/g5FQMGdPwBccV14NBMejxdkFgF2NiaTes+wckwp7zO2bWdTpvcp7bDF69S6WZ1n8TqbNl3u/69rrgz+BkIaxywLP8aMC7M4ZXuJrhz8VlXFd64ZZYHrSzkV8NWIJUswCzIzwyrwzKJOC426QZdlaZ4gtBvGjY30Zr012h9Axsj7hOKaEhecPwBwWeMKAlq3qrWwKZONZu/NchnE20q9T2RoKz2IzcKmTO9NIuLNXqfWzeo8i9fZtOlm/8R4BIIpTdQ0DtnFR3RrUvR73bLHDtcFwIS1oU+YMTZe4J4ImD5tTeCDbO0ThPZAzPkD6G3rFBPeAy1BW0BNCftOvcsF5w8AD8zfaTuA2U5sEhGQxXkWr7Np06X+/x7qGZC5fws+Gtpjm0F0RVYnEQ05emndCJdMssSTZE6TXw4+Babp8YLCi4AnGo4NLMzVPkEoZsaNjfRGU/qTv0MR4Krzj1GqB+4F079FBKS/Tq3bzkUAw8CE6irSIVjywbDA8wwsyu4s+v2JKzaF3LHIHM+yOU56OXArCBcDiAIooAjgBxqODVyktlEUpSC4yXWXR3ohGn0FZP7kn8HhbvST/3S3nT8A3H03NcAwBoNRKyIg/XVq3XYrAojnvHRNcA2EzJQa4wD8lMUZezZGy29xyxwzHPngQjKvb+0JBOV+AIfELEj9nZuSGpQD1IJp0uQ1FfeTJBsVOiDjxkR6w9ca7R8n9Tdj8h5AjULuP/mncvk47RxiXgqCYmJTq50W7wFIYKDVeRavs2kzn/4N5hXHbQkOk4ct5xy9VLsE4IeyOKUJxEe+Nyz0iWtGJeD5fg6T13Z9s/vmwJHMuAGMb3IYCWgkwmLdUA6ZsiZwnzh/oSMybkykN/lahv0dPAmnvG8T5w8AD9wVWE6gITISYP46tW67GQlgfii0JVglzj873htW8QiAbLKjloDp3sSUzG7i+QhAIksq2fdVbf3ZxDwUhD4M7GtRdQdA7xHjJfLzwxNfDGbeZ0AQ2ikx54+EOX+zp1mLkYAaRWkb55/IZePrDlYMegaEg2UkIP11at0iHgnQwDzlhetCd0PIiSOX1f1SYfoIgOPc/8QY9e6I4FMumtXcj9sdZMPsftoeftA+xLwrK0apYWAbEW3e0TXwmVpNjW1tnyC4zbgxkd6kmAz7w5EIqCFf2zv/GKrK/h+21l9kEKsA9owfEBHQHkSADvCjiqLcsvKagKT8zZNjltbNZNDNWZzyA+uNB75ftdN214xCkQkAQejMjBsT6a0ozU/+ps4etiKgqJx/ImPGcFlp9/rTiYwhzDQAwN4iAlCMIqCegdeJeEVU8a1cfW3FtxAKQp9Huayuq/YxAf/n9Bxi/OHdEcHr3LRLBIAgFAGJzj9W5lgEMGpQUpzO34zLJ23pRhHfrnqJv2vBGpW0wVmfG2+jxGgg3bf1+fHl34Mkpsotjl4WPhOMtVmcopOCo98dGvzILZtEAAhCGzNuTKS3Qi3OP/WJFLAXAe3M+QtCZ+boZ7WloJZ9MxxAhL++O8y9lMuerwIQBKGVSaMjvXwUfQWxJ//UKHWTsoTyjcTerPMXBCF/2FDGA6h3XJ9xspsZAkUACEIbMWl0pFdUia4HaL+kh3xnImAjsf/UOx8p+8pFEwVBKCDvV5VvBDjLrLW0oM+jXOaGPSIABKENSHT+aevPgUwiYCPE+QtCu6RED84H8HUWp/ws3FW71g1bJAZAEDxm0uhIL0OJrjdA+yUdSI06TyiLwYyNIHH+gtCeOWZZ3TBmWprFKXWk44B3qwqbA0dGAATBQyaNjvQyKLqeU4f9gfRMdAllLa/F+QtCB+DdYaFlAF7K4pQQ+3hGoe0QASAIHjF5TKR3lPTX2GrYH7ATATUG+04R5y8IHQOD+HrENsdzBF1y1PLwoYW0QQSAIHjApNGRXjpHX6GEdf5ZiICNDP/pdz0m0f6C0FH4YFjoMzDdn8UpPkXHXYW0QQSAILjM5DGR3gb018AOh/2Ty+XJXxA6KLphzADgON0vA6cduUw7u1D9iwAQBBeZNDrSS9eT1/k7FQHM2GiQPPkLQkflw6rQJgBzsjlHYZ5buYR9hehfBIAguMSk0ZFeBkfXg1Ki/R2IAAY2siIBf4LQ0YnogbsA+ncWpxzytU87vxB9iwAQBBeYNDrSizm6nlKX+sWwFwHi/AWhk/BpFTUSjGnZnMPAzP1f5C759i0CQBAKTMz5o8X5W26vYi4CNuri/AWhU/HusOASgN5wWp+A3t0i4cvz7VcEgCAUkEmjI73YaHX+MRyKgI26T5y/IHQ6iNgHuhGmO39YnAK6+cQVm0L5dCsCQBAKxKTRkV4wWob9zTbwsRcB4vwFoRPzt+EVbxOjOotTeu6IVozLp08RAIJQAGLOPz7sD5jv4mcuAjb6xPkLQqeHDN9kYuxwXB884bBldbvm2p8IAEHIk8kjI72hN6/zTyx3KAJqfIrvlHni/AWh0/NOVfnXYNxrOVqYTqgL08Rc+xMBIAh5MHlkpDd8+nokrPNPJIMIqPEpvlPnyTp/QRBaMJqMeQDqnIoABq46YoW2Zy59iQAQhByZNDrSC77mJD9ZbOUbY6Mv6j9dnL8gCIm8f37Xn8D8e8AmbiiZMkXnnEYBRAAIQg5MGh3pRdHo+sRh/yxEwEZF9586b7EM+wuCkI7BTbcB2AI4EwHEuCKXUYC0ZchC/swaqB1NzKcohFMMYH8CdgfQA0RhMG9l4GsAb5BBr++8qeLlK96npra2WXDO5JGR3qTo6zlxY5+EX1LS7zXlF8aMGqVEhv0FQbDn10u0aazwrNh7zuyt73pveHB8Nn2IACgQ6iCuKGuqH2UQXw3gkPiBDJ8wM74nhe5HqX7v1Oe6bnbXSiFfJo+M9CbS14Oanb+VszctZ9SQOH9BEBzQZ8mPQY0qvgKhZ6wsgwiIkI793q0K/uC0D5kCKABz+msDu0S1T5n4Pkp0/kDGtA5E2JOZZ3CD8q/ZZ2l5Z3YS3GNSZaQXUcvGPmYb+CR81yblG4llzl8QBGdsqNo1rAALku4r9v6kHD7cmE0fMgKQB/cfxSVbdtXuA3Bx6rG07ynTSEBrvad2+SFwsUwLFBeTR0Z6K5Qy7A/Ev9cMIwE1pPtOnfdncf6CIDjn+CVcHiXtSwB7Jt1XrP1Jvc+P/f42JPg/J+3LCECOLOzLgS27aCvA6c4fsN7oxYp4fcZvf9pde07tw2X52igUhkmVkV4KTKL9AfOtfJNHApqf/MX5C4KQJW9VUYSY56auJLIZCajQddzgtH0RADmgqqxEFe1ZEAYAsHTueYiAs0oD2kN5mCgUiMkjI719Pv01JKT3zUIE1ED3nSLR/oIg5IqG4ANgfONYBDCuPGJJXU+Lo0mIAMiB0rfCtwDon1RYYBHAjAtmDwwXZM9nITcmj4z0VpCQ5Acwd/bm5TWQYX9BEPLk0ypqBOjW+MZhmUVAwOeDoz0CJAYgS+YP1I5mg//GVuLJ4hPNMSZgewlw4MQXnUd1CoVh8shIbx83O3/T+Tazuf/W8ho2xPkLglAYDl7CpQFoXwLYB9Ry37GJCSBga71e3+vTql3Ddu3KCEC2GDwDgGLpvws7EtCtEbjOsW1CQZhUGenl45Zof1iobKuRAGAjQ+b8BUEoHJ9WUSMR7gAAJyMBDPQo91dclqldEQBZMP9M7WhmDIy990IEEDB2/uD89nwWnKOOjPT2U8ucfwIORUANGzLnLwhC4YlEAg8S8BMARyIAjPFH3c8ldm36C2tiB4e4CkDzh95y1ydY+PGWOgR8YBC/SIz/MWE3MPUHcHRqPcsuge7RpvLq2QPqvnEi17iQks7ELiOL09PqOrEtQx3TzzrDdEqSHYpJeUJZ1ND7E9CLTb4XYpPlN63fc43BMuwvCII7fDyatGOXaHcTeAYDzSKAgMR7Vco9ah/aRRsJ4EmrNiUGIAvm9Q1/DMKh8QKrzG/NNIBwyZTVwUWpB+b2r6tkoscAVJi1ZUZCnoCMOEgZmdSW7UCESVvZOOGcYh8y1bGYk7frK2PGPqu/06w8vazGgDh/QRDc5fgl23cy2P8NiIOJ9y7LmADG398bHjgcZB4uKFMADpl9eng3kHWWP5MHwyvMnD8ATHkpVA3whVZtmZGwRDAjjveStp7HTqtjakuGeqZ1nfydmepYDMfb9ZUxY5/V32m9lW8Mcf6CIHjCW1XdtgB8f9L9zm46gHDo0cvrk1esJSACwCF+hfaBme8zdzKfTnkp8IRde1NXh54l8NtWbZkhIiChTnGIAHH+giB4ikLKnQw0OBYBbL1VsAgAh+g+7Gp5MNWZMJ4nBy6YmFbkkSwoIyIC0vsqoAgQ5y8Igue8VVXxncLcPK/vRAQw+hyzVDvGrC0RAA7xGWyfWSnJmfB/HDWqYGNzfeu2zBARkFCnbURAjU7i/AVBaBtYNxYQQ29+k1kEMLHpNsEiABxCxLYJFQC0fuhEjpbtMahrvH2rtqzscVgPEBFg1lceIkCcvyAIbcrfLuj2BRhLW4f5M4gAA8OPNEsLlwAAIABJREFUWqrtkdqOCADH8I+OguubP/STHFVlPjnxvYgAm/pFIAIYqClRxPkLgtD2KES3AYlz/bYioFRhY2xaG+6a2IEw+AdTh2IGo/+cAXUH2VWZe9aO/QgYnlouIsCmfh4iIKOztyrn+P9qShTfqao4f0EQioA3RwbeRUsguTMRQJcfvIRLE9sQAeCQ3t27fgVgs0MR4FMMqp7dL33IBQDmDKjrCT36LBhdzI6LCLCpn6MIsCvLJAKI8Tmivj7i/AVBKCaI6e7W1y0vrEXA7hWKVpV0vvsmdhzm9wsvBuM8ADBNPJPOZlLoThj0suFXflKixi4MPoOJxwFoDSosZBIdB/UAFEOyoG/B3Gha10k2wEz2E4U48TNuOcfmM21g4JOE8u1M+C+BXvVVVCxWH6MdGXoUBEHwlIOXcGlXXathQvxhM35vp2SfwACg4J13hwePTSgWnDK/b/gCAE/FC5yJgKRP2bK+tQhgVviwaS+EPjGv0TbcOrhOBdMt8YKsRADfd/OK4JVOlkrmijqsfm/A+BcD5an9W4gAg3Uceetzwf/nlk2CIAiF5rintVsIrCY+1NmJAIOU494fUfE3QKYAsqL75sASAF/HC5zHBMSxrG89TL666J0/4Hw6wOCHjCOCV7np/AFAXVbxLRj3pB2wDgxUyIe5btokCIJQaJQm408AGhLvqHbTAQob18TP9cjGDsEV71MTgeYlFbosAgyFb3NonieYOv8YGUUA33fzquDlqkrZ7CmUO359HjG2pZVbi4ABN1fWneK+YYIgCIXhzdGhHxmoBpJjoGxEQOWxi8O7ASIAsqbb5opHGfhbUqFbIoDw1LQXQuuzs9A9bj27TiWmW3ILDOT7bl7p7rB/Kmp1ty3EWJDNEkEC5mURISEIgtDmkKGkBwPCUgSUGqU0GBABkDVXvE9NMHxVoJZ9mWMUXgR8Q42NV+dioxvcenadSqBbclkdQG3g/OOm6IHfA/ivYxFg0HHqiPBQ9y0TBEEoDG9dUPEOuPXBNJMIUAw+HRABkBOT15VvZObhDNQmHSiQCCDGNjBVTl630/Z87CwUcecfIwsRQOD7prWR8wcAdRXVAzQTcJ4syGCarfZhv/vWCYIgFAaFcbep40e6CGDgCEAEQM5MXhv6i0J0KoD/JR3IXwRsYoVOm/JS4N18bSwEac4/hgMR0NbOP8YePSseBvAF4FgEHKjvUj/GdcMEQRAKxLaSQDWA/zkUAb0AEQB5MXFN4AM/lGMIWJV0IGcRQK+D9ROmrA58WDgrc8fS+cewEQFExeH8AeCKB6gJzDfF3jsRAcSsjq/kcpOagiAIRcenVdQI0F8BC8ePJBFQ1mc9+0UA5MkNayv+M3FtcDARjwDwcfxAdiLgB2K+puG4ilOmrOn2pSuGZsnsTM4/hokIKCbnH+OW5cFqAO/H3jsQAXuFWLvWfcsEQRDy5/gl23dSmI+L35PtRUDThlMpKtHOBWbBmXWnMOhCAKeBsK9NsqBaAG8w8+MN3YLPqdXU6KWddsw+u3WpX7YZA1GEzj/GjKHhMxlYm1hm+ve1fmdbG7tEfz5vcfetHpgnCIKQEycv0oYYzHeDsA+QnC3VNEEQ8PHbI4OHiwBwkdsGRvY1mvRfsILdmLk7Q9EUxdjGTP/er2vgk6pq0tvaxlQSnX8MxyJAKV7nH0MdGl4H4PTEMisR0PL/BTOeDU5y3TBBEIQsOWFRZF/FiN4F0DnxB5fE9O3WIuDRt0cGLxYBIMQxc/4xMosAvm/a88Xt/AFAHa4dDYPfQeoeQNYjARGFlQPUZRXfemOhIAiCPWcs2dKtMVI6hQnXgVCWlvM/gwgwiM/728jQnyUGQABg7/yBTLsItg/nDwDq0sB7AD2bWm4TE1DO0DPHQgiCILjMsU9t7nryY+EpjZHSL0GYBKDMbgvgpNet97hvo9uDS+PHhc7N7IF1KkC35LaLYPtx/jHUobUHAMqnANLW+luMBER1gw+b9VzoM/etEwRBSObkJ7U9SDeuJNBVDPRImKJM3/Ev8bXJSIBBuP7t84J3ArIMsNMze2BCtL8DF57s5tuf8wcA9bmu/wLxI2bHLEYC/H4fZrtsliAIQivMdNpDdb859bHwYiXKNcR0E4AeiU/1pk//ia/TRgLo9X18gT/EqhXFCIDah8sqSsLHgul4gPYkwh7MRikRbTWAzQA+Mtj/xpR1ZV+1ta0diSTnj2T1mAmm9un8Y6iDtT3h4y8AVJgdTx0JaBbUygnqsoq3PTBPEIROym8eDR/qM7gSRKMY6A3AfE4/4bXDkYAtuuI76u3zymsSDrcNDKaFZ2pnkoGrQejLQBcHp30B4E8l0aZHx2/okb7Lm+CYVOcfw5EIYL5v6ovt1/nHUIeG5wKYbHXcRAS8pi4L9nHXKkEQOhMDntrctaGh7ESATwfTOSD+uZUzB3IWAVsVpjP+OirwQWLfbSIAFpxZdwox3QPgkMRyp96EQGGwMU07OXiPZ1vLdiCsnH8MWxHQQZw/AMw9a1uPhlL/vwH0sKqTJgKIzlKXBl502TRBEDoofe4N717i55Oh0EkGcDKAwwD4ku41Ns4cyFoE/MhMZ70xOvBeqi2eCoA7judyPajdDcbFVn1n41WI6E2jic6dtEGWaDll9sDmLX0zffOmIqADOf8Y6jnhiSDMt6uTIgI+psMCR4jwFATBKafdv+3nfvJXGYwRAI5MvK9aJOopkAigN6MGVb11YcV3ZnZ5FgQ496xtPfRA/VowLoGN8MhGkTDzCeQ3/rKwb+Rn+VvY8Yk7fyCj0koMJmn+f8dz/gDQtSRwNwDTH0eMlL/4MONj7QI3bRIEoWNwxv1buvX7U92Dfvb/kw3MIeDIpCA+WKfstQvwA6yX+7XUbSLw7Pr6ij5Wzj9+ntvMP3FTiMrL3yDgUKfnZOVlCN/6deW461+1/kM7O3MHNq/zT/tcHY0EdEznH2PGUO0yZn4g42fRerxmSyRw4N2rqaGQdqiVXBql+oFMfDbABwPKLoARF+l2GQvNv1fSGGhMrRuvTxRh5u8I+EgxjOVzn+76eWH+EkEQ+t2v7cEGrwfwCwC2S/OAwo0EMNHrBhtj3xgT+jSTja4LAAbTbWfWLwHziOzPzYp19ScF+snQbDox5x97n40I4A7u/AFA7cN+6q59wsAvnIoAJoybuTT4+0LZcHNl+HwmzALwMyD95pDafxK2IiClPFUEJJQz8CL5eOL8xzPfOARBsGbQ/bW7NOrKXwD80tSZuyMCPgTTLa9dFEjendYG1wXAbafXXcmge3PtKauYAMYNE14J3pFbTx2TVOcfw4kI6AzOP8aMc+qGA/SsleNNhAkgYBPKG/ZXF+1cm0+/aiWXNlH4XgJdmtaPhS1uigAAO8C4bP6i4FN2dguCYM2Ae8KPGAouir13VQQA60mhu9ZfWLEKlN292tUYgIV9OcBZJJkxI6uYAML0PwzY3DW3njoec/vXqTDMo/3TPldOfdt5nD8ATF8eXAbgndT5OTOIAQZ6cn3pDfn1yqRDe5SYLjXr08oWq7TF8XMylSfOOaaXl4Hw5ORR4TGWZguCYEn/e7VjmHBhxrl9s/n7lLo2MQE/EdMffT4cvuHi4GnrxwRWZuv8AZcFAOvaVQB2bS3IrZ0sREC3SLTLZbn10rGY278lvS9g+blbOYvO5vwBgEDMxFOaX8ORCAAp108dHN4t1z5vrtTGAzg/LeAyyS6LcndFAJhx34Tfakea9CIIgi18BVp8a4FFQB0YT0Ghs2qjgT3XXxK46pULgx/nY6mrUwALz9C+APP+WfbaBOBrAAaa50PjCYIceSPCtwBfn42dRY0PyH7PYDoewPj0YvPaydcl3zd1dedy/onMPCe8hoG+gPUQfBIK3asuDVydbT9TKut6+pm+BCE+YmWXf6EtpgMIeG3eU5L4SBCcUqlyaXgX7QdOzNcPB8P61tMBWxhYR+Bl9d2CK9+qokgh7XVNANzRZ/v+us/3hfOeKQzwzToaH528bqftAKAO4orgjvrzmXkegJ2BnAcRXI92MLWrUH2SY/ETx7K+jQjo7M4fANRh2pFk8HtIFOUZBGuUo7+ctbz7v7Pp5+YR2lSAm/cXMPveikQEMCvHL1gk6Y8FwQn979WOIeZ3gBzm9pvLdAa/A0VZA9CaHt3K362uouyfAR2SthtaodAVpb9tBUbih9MApr4TXgm8lVhFXUX1AB6af0bdGwroLQDdCDmKgOT+Co6pXYXqkwFyIgIS+rP8nCxsIvB9Uzq58wcAdVngA3VI+BkijARaPkf777HET/5bAZyfTT9EfA7HPmmz782kTytbiE1EQEu9tOvArNzqumEAZJwDQASAIDhA0flgJrT+xhJ/Wwm/04TXOjE+BuE1gF4r0Ztee+HK7ls9s9ethomUAzNWap1zXjjhlYq3rKpNWhf6DMzT423napTLrs3UrkL1yQ7/bqu5XYs6LQX3TRbn3wrrN6N5KgqAo5iAc2cO147IogMC4/CMc/JFEBNAjF+btCwIghmEA7KY27+4cUfTLmt+Fzxy7djg+LVXBJZ76fwBN4MAKSH4zw4GSPGbbs2aiF+PPoGE6XARAfb1YmQWAeL8U1FXdvsSoIcSyzKIAMUweJ7T9iefv707gNJ4uzGKUwTsadKqIAhmMHUFnAX4kaJ8vmF8225q55oAYGan0dG1E9aWf52pUsvufxsTy0QE2NeLYV1fnL8VfgW3AtASyzKIgL7q0LrTnLTtayqtyBSFn1D+XzDeB5r/MfFXTPwViL8CUv9hEzG2Ain/mssachQBQSd/kyAIAMABM8dvJgIMXd/LW9vScS0GIAui+ZwsMQH29SxjAkicvx3TlgX+O2NI3V0gmpZYbh8TQPMYfGymz7REBxmxL8Ry7j32mu6f9WxgRo5/hgVMU87TjMS+bGIC5PoQBIekxvAk3i9S7x0+pr3bxspWXIwBoP85rNrjrtMzr6Wed8aWbgD2Me0rG8MS6awjAeL8HdGltGkhgM2p5TYjAcfMHBrOnPLaR62/u0wjAQoKntpaVVMuHfuRAEmtLQgOIQO1qdN3liMBhI4rABhwKgCoiXFepko+lIyCzYiFiAD7ejEUcf6OmVy903YAc82OWYkABs1S+7DtyFqTbu6A4+0mlJNR+Cv0009BWUwHyHUiCA5h4u1J92UbEWCg7QWAa1MAzMbn5NQtK5h+5xk7Vo5fV/aV2eE7+m3fX9dpZqZmZDrAvh4T/XHS6sDV4vyTUftwma9r3b5E2DmqUG2Zv+k/Lc4f3D1wL23TroPJ6JPFdMABtFP9JQDut+qPfFDIMF+eF283VkyFd8A9ekBBnbMlgswyAiAITiEo3zM4+b5sMR0AJtMRbS9xLwaA9ZdADptn9Igi+peFZ2hXaSdVrIrt6Lekkn3fbA0P13X6PYAeTpoSEWB6/DsGTZ+yJvDIlAJ01xFgMM0aXD+IwWNB2ikMpYIBKAbQ0FjKM4aE3yfgmfLv8adIgFRmftisHTMRwMy3qIP4yZY8Fmn4DSI2+87MRABzwR3wnltBjT6kz/0n2NAaosAuiUWmSaPrTjQUGgDGIQz0BEgD8B8GXilpir44b7G3S6IEIV+Y+etEx28vAvigNjQVgIsCYOKr3f+98PTwFwD+z+Epe4F5ecVftf8tPC38OQjKN1u0g0C0c1YdF3EqYNenA1LSBitQGkjnjfUnBj6WbZJbuXVQ5GczKbyYQMeZfSnUHKR7NANH15dr49ng64joHwBMf7AmImAPlNSPAzDH1AClQYHuMxduKSIALowAbA6DQt2Q5uxTbWguVwp+3dwwWhugQJtjQPkVDKT9MAi4KFrq1yZcWHcn+XYsWPBIz7pC2yAIbsC68TX5FDgUAd0H/KF+79XXVnzbVva6uwqA8CAYC7I7BbuB0BoUmOVTMgF3TXg5VJ1Nnx2el9vagOJh1qDakwzSnyPQLgAsr68Ep7gngZ6BQW9CsfbFaSKAeeKcobX3T32ua1oQIaKktNZDfELeNAqfCy8A/EEkByHaiAAUcARA7cP++l7afE4V6OZCKMBENxlG+dAJF24bsvDx7FItC0JbENgn9O/I91o9GBVORAD5jEMAtJkAcHU3QCiBP2YRDGiN81vQ9lJ/w4N59yd0SGYMrjuVSXkJwC5JByyurwRdoID4pEzXYUpgYLdGVkxnXKJ+6yDAtDIq/Bx8tx0OVgG0lhek/8sv55LI3uElYJiPzpkFtDaXHczkf+vGS+oOKYQdguAm1VWkE/B3AMnXtEVgoKHjUG8tTMZVATBhLWkgLswaZgcigAi3Xrt659qC9Cd0KGacHT5dAT0PIJDNVIxVtLwVKct8rlIrI71S63SJUvrvzsIBsgsjAOHuJmMeFiKgECMQaiWXdouEq5loaEub5lh8BgB6QqdXxl9Yd3C+tgiC2xD4w/ibDCJAIbSpsHV3BADAxHWhPxFRYYbk7W5FjFfDJwbuLEg/QodixuDwmYqCVQAqYmUeiYAy6HqaANYNkFXa3jQH7MIyQGX7T0oWaYPzGgFQK7lU66I9S6AhieU5iIBd/USvjBtV98t87BEEt2GmvyRd3/YioOOOAMTQI/WXcGxYJF/Mbxz/VXzKGAl0E1KZcVa4n8JYCUZ56jFPRABj1MzhKU+uSvPvzpEIcGEKoCKkkF3/zd2mlmTPNddwlx1l2lIFGGTWSrYigIHd/D56ZeLFtb/I1SZBcJsS0AYA7FAEHNp3IQc8NC8JTwTApDd61pXoTb8B8NeCNJh849jIpJ9yw9qK/xSkbaHDcOvgcH9FwXIAZQBMXZkHIsBnGCmrAZTWKQAHIqDwolZTMvYPxG3IqX+1kksDW8NLmHF2vK0CiAAAe7ChvCYjAUKxsmx84L8g/BNIub7NRYDfVxY+1lMDE/BEAADNm/n46gP9ADyMQix+a27hXR2+kye+3O2LvNsTOhS3DtLOBic4/xhtIgJo8MxhtSfGyhQj5SHf4XRAodhRQY76BwAnOaZSUcdwWX2ptoKZBif1k9Buxv5b6tqMBLw8/pLt+2drmyB4ATGtb32dcMBEBCisnOSlbYl4JgAA4Pq3KDLhleClID4NwGd5NBUBYeK+PQLHT15XvjFzdaEzcetgbTCBlwLoYlqhDUSAYfji2wUbnN6EpRN2IRFQWVN6JmAbEZBV/+MrubyhSVtOQP+ENlr7MSmz7L+lrsXnvZdP9706/uId+2VjnyB4AbOxIfGathMBAPp6ZVcqngqAGBPWhTZoJwcOIaaBILwIoMnJeQTUMGFKUynvO2FdcGFVNemZzxI6E7POrh9KBlcDKLV9gjYXAenOrmAigE+aMUQbBCBpCiCpjkkbiguJgBqiZNqqWf/ZrAIYX8nlZSXaCgb6JX0+7omAfXxGdP2NoyI/c2qjIHiCwa8C0J2JAD72rD9uc5TpttC4NcqYFQv7coAM7SQ26DgmY28C7QagBMA2gLYQ40NdMd6YuC74ueSxF6yYNahuOEBPg1ECIH51214w8V8AhQnGWQz8lkGXWddLJq1t+1/UJ8z0eyh8OYBjrCpxYgQe89Uznwvda9tqlkyprOvpI/qRAVN7k/oHflSYr66tDa68ezU1WLWpXs4VkbC2koDTLSMIU/pK6f8ZAMMAlLDVZ2g2H9Fc9xv2+U65/eHyb6zsEwSvGXx7eAMIpwApv6nE67vlmibmkc+PCz3jrYVFIgAEIV9mD6qrYqZFSM1u6UwE1DKMgdNXdn1DVVnxf6A9aAAXm9QzJUsRkOr4zOvE7Ca+cubS0J/sa2eHOrRu12hJ83bdTkRACz+BsAgGPzTnmdAnSe1dzhUNYW0VA6fFC7MQAUx0y8InAzMnjqobBtCfkZsI+Npn+PrMf0KmBIXiYMht4fFMuCN+D7ITAUTVL1wbqPLUQLTRFIAgFBJL5w9YZ7lrZTsbSv/pK7u+AQCqSsa0lYFLFfADVm2lkleyIKs6seNc+Fz88CesQrCwxWScbRcwroNCf586Unt92nnaIIBJHcQVDXXaKgCnWQ37204HcLPzB4AFT4aWATwSQFMO0wE/0xX9L+PGRHpbnCkInkI+33MAWu9BdtMBzIMG/GFzV++sa0YEgNCumXV2+AJmWgy7fS2sRcA2VpR+05+veCuxkEB8QJfglQQ8ZdVWKm6JADdiABr1lFUAFrZYBgYSn8jglVPO0z5sCGqvAjjN9DPOKAJo2vxFgaRtvhc8GVrG4AsARHMQAfv62Xh5/Oj6vSzOFATPWD6+vIYIHwNwIgLKfOgyyDvrmhEBILRb5gwMjyLG4wB8GSunO6itRHTm9BUVfzOrXlVN+i+6BMYQ8GertlJxRQQYrNnXyJ5SXzRtLj9rEdB8zuEAjjUpT6trUj5l/lMB090SFz4ZqibOUQQQ7+9TjFcnXqztaXGmIHiHwctT0/9aiQAycIlXZsUQASC0S2YPDI9hwmMAfI7DQlsd1BYFdMZNKwPv2VWvqiZdrw2MIpiksvZIBDDjU/sWsket7rYFjJ+c2pJF2mCnImDS/EXBebBh/lOhJQQehZRI6tS+LPo/wDD4lQljwrvb9SEIbmMYygqTZX+mIoCBPoPurj3QS/tEAAjtjjlnaZeA8DASrt8sRMBPpOP0aasCHziprm6g6K67V1xAoGUmbZlSMBHA+FBdHvwos5XZw83pkR3bUjARQJg4f1HQ0Rbh858M/ZkIo5GbCDiQCa9ed2l4t7RzBMEjVk2o+BCEjQ5FALGhpK9AchERAEK7Ys7Z2mXcHKCXdu06EAGbSMHp017Mzqle8QA17bp7xUiAV6QddE8E1CqEi5zamC0l5JsBYJunIgC4cd5TwYXZ2Dn/ieBiMC5ELiKA8Ut/FK/cOKpu12z6FISCQcRgar5vOBEBBoZ7aZ4IAKHdMGugNoSZ74fNdWsjAn4k5tOmrQx+nEvfVzxATUaXYBUBz6cdLLgI4Ld9HD1y+nPB/5e1oQ5Rq8s3+hU6HcD/PBIB189bFLw9F1sXPBVcRIQxyEEEEHAw+Wjd+Eu275RL34KQL4qBtfE3mUQA0Ouo+7nEM9u86kgQ8mFu/0hvAj8GkzS6qZg4iR8UH5867YXk9evZolZTY7emwAgAq9MO5i8CogDWkEJn4/DgiTcv7/7vXO10ivpM4IMdZYGfg3EjGGlio0AigEEYP29xMK+tuuc/EXyKGRcDMHLYO+BQv+77c2UlZw4WFYQCY8A4K0Mq4MTfVP37V5CjzLiFQBIBCe2COQPCj4FwYesKssznMAEg/FeBcdrUVV0/L5Qtah8u83fVlhtAv7SD2SUL2g7gJWKsLIlGV095ofvWQtmYC+rISO+org8B8bkAHR8rZ8BpsqDUxEsM5nFz/xz6Q6FsnDAqPIaaNxRTckgWNPm2x4LzC2WLIGRiyO31+5BhfIGWfUnMsgDGXgOAQbzy+fGhIV7ZJwJAKHpmnV2/l2IYNWhZ65+FCPje8Bmn3byy6z8LbdMdlVyuNWgrGTgj7aC9CGhioJqYFu++e8XaKx7wTu1nw03n1v0STJcAGA2gZw4igA3ia+ctDt1TaNsm/jZ8EQgPIXsRsDWKpv3ueqzHtkLbJAhmDF2g3QPwVZlSAcdeAxiw8vrgS17ZJwJAKHrmDNAuAyVn5nMgAr41SD/t5ufd2ypaHcQVftKeN4BT0w6m22UAWEK6Pt1NmwrN+EouDyA8BqTcwOCfOxQBTMRXz3469Ee37JowWruYmB9EliKAFbrs9kcDD7lllyDEOGdupDf59M9h8vRvKgIIH68cH/gVyLv9biQGQCh+iI9PK4q9MP+pbDSMaB+3Ha26iuq77AgMUoD1aQeT7XrRIBw1fUXwvPbk/AHgzmqKzKoO/emfXPELAOeD6cvUOim3K2bmq9x0/gCw8InAI8x0BbKMCSAdA9y0SxBiKD59Nrh1S/JMOwOygdu8dP6ACAChHUCAaUIXCxHwjaH4+ty82v0gOgCYsJa0nrsH+hGwEEBi1r56YiyCQb+eviJ4llvr+b2iupr02UuCT2/qXnEQwFcB+CHxODXfxH4goiFznyns5kVWLHwq8BBAvwPAjkUAsaeJVoTOyTlztaPAOC81kNZSBAAb9wgF0rOOuoxMAQhFz5wB4ZdAJgF3LaRMB/y1SQn0V1dRvQemJaFW/hjEjsABCrNulAc+U6up0WsbvEIdw2VN9dpQAg6HAoMNfr+EI2vU6l3DXtsycVR4HIA7AYuYBCBxOuCn2x4P9vTGMqFTwkzD5mnrQTglKSjWYgqACSDQFctvDKRvQOYyIgCEomfuwPCjDIyxq5MoAojwall54OzrqyniunFCmzLx4k0hNFW8CPBJsTI7EQDwVwsfD/3cE+OETsmIueELmJo3Ekt0/JYigFBTEg78olr1/oFBpgCEoocNettREh2ged0347RIvbZC7cNlbtsmtB2TKrd0Q2PZ2kTnD9gkg2q+A3/jumFCp+UcdWt3Bm5Lyoth8hpIuE6ZZrWF8wdEAAjtAMNPzwPQsxEBAM70B7TnRAR0TCafv60HupS+TKDjHCcrAgCmda4aJnRq/KWls+IxS85EwOe7dq14wkMTkxABIBQ9Nz1f8R0BjwNwlk63pR4B/f0BbekfBnAXu3OE9sWU0bU7s+J/BcAxQFYZC3Uo0fSdHQWhAIyYU3sywL8zzfRn8dogmviAh5n/UhEBILQLFCi3MFq2sHW6UKb5hziwjrRqtZJL3bNO8IobR9XtyobyKhhHJJY7EgGEJxc+1r6WYQrtg1ELOUDse4RiPtWZCHhlxYTAKk8NTUEEgNAumLS64lsCjwDQrJZtREDaNrSEQSVa+Jn7j/Jukw2h8EwYE97db9B6ZhwGIO0ayCACvi1pxGR3LRQ6K5EmbQ7A+6c6fhsRoINxg6dGmiACQGg3TF0deo2Iz0PzxjlZigA656c96p9W+7DfRRMFl5g4UtvT14QNAA5d3ObeAAAgAElEQVRK+24TsBABGkEZPufp4P9cM1DotFTeGu6vGLgmXuBABJCBe5+b7N5un04RASC0K6a8GFpKxCORiwhgHl4SrP+ziID2xbSR9fsoCl4D4xexsixEgAbiQQueqHjHVSOFTsl5s8O7EeFRICWHn70I+EGhxumeGWmD5AEQ2iWzB4bPJ8YTAJq3eLW5kpP8AwEEPL1/RWBUVTXpbtpYaJZUsu+fRu1+RpOyNxTaG4Td2eAgKdQa5MjYzsQaEf7Hhu/r0hL966nVoU1taHZeTB4Z6U2K/ioDP4sXJq6lTqyccg0wUEeKMXD+E11fd9VIoVOiqqz8w6e9TMBpTjf7aV6JyucunRxa4pmhNogAENotsweERxPwKGIjWVmIAABP/V9FYEwxi4A5Q2t3jup0JkP5Dcg4AqDDAFRk+tWa7Ny3GcC7IH4PpLyFxooNbZEpMVtuOnfbz3XF/woI+wLWzt6ivFZhY+DcRV3fcNVIodNSNbNuNoGmxhP9OBABRFhVPSU42CsbMyECQGjXzB6gXUxo3hUOQFYigIHHo8cELlZVMty0MRvUwdqeisK/BWMYgKPRMsJhsb+9JVbb97YQAbDBUHiVohjPqNXdtuRusTtMObf2ACjKKwD2BpCcTS2GtQioVRSl/9wnKt5y10qhszJSrRsBhZbER/ediADGT1SCQ6snBpP20WhLRAAI7Z65A7TLGXwfUn6MZpg4kEeajglc1pYigME0c3D9QGK+EoR+oJZpjbR6KeQnAmJtNIBopQF+eObSwFqbFDqecdO5db80FHqFgT2SDjgTAdsZSv8FiyredtVIodNywczwoTrTmwAHU4f4AWsRQOBzl0wrjqH/GCIAhA7B3P51VzLRPchBBDD4wWkvBK8gj52fqrLi+zA8DEzTGPhV0kEL+90QAbGbFAH/D8zzPvUHq6vbaGpk6rl1h4BoHQi7AdZ/r5kIYGAbs9JvwWIJ+BPc4beztT30Jn4ThN5pc/strwFTEbC4elrwAo/MdIysAhA6BFNeCv0RzOPiBVmsDiDQZbPPDl/lmnEmzDqn/te+D7S3wVSNVOffYpcZab7cSWbETHU43tThTPT0Qbr2yfRh2ln2ZxWemyojPwPRqwB2S1o3nYhZeXPZVlboTHH+gltUqj8GjSZ+HkDvjEv9ktL90pelTQ2/88zQLJARAKFDMWdg+Howbo8XOB8JiDRF9b3VNe7Oh6vnbO3u00tuA+EipAhwUz/dBiMBCU2uARvXqs91/Zf9mflTWcm+//OFXwfouFQjgIwjAVsBOnPe4sD7rhopdFouv5xLtD20lQz0zxjl3/IaAJjQQEQnPDMt8IFnxmaBjAAIHYqpLwbvICRkfHM+ElBe4vP1d80wALOG1J7g00s+AnAJOP23Z+qf22AkIKHJfiDlI3V43dU2m+wWhAMofCJxivNvMQKwHQnYoih0hjh/wS0qK9kX3l17koH+QMrvJNNIgME3FqvzB0QACB2QKauD8wl0U7zAoQggbok4d4FZg8KT2VBeA5qXtFnZVYQioJyZ7r5luPaSOrRuV/uzc4eAM8z6jxnRUie1fDMBp895qnhvsEL7RlVZKTlIe4SAc0238gUsRQABjz8zPXSPN5bmhggAoUMyZXVgNoiWxQsciABWaFuh7VD7sH/W2eGHGZgLID0DYTsQAS3t9oVC76jDw4fZn50bjNaVD05EAAE/GQZOn7M4+JEb9ggCAHxh1P+BGKOB9N9OBhHwtzI9MNYjM3NGBIDQIVEHcQUx/yap0F4E6Ez0QkFtqPwx6A9qK0G42Hb8PDcRYAD4lpleJ2AViKpBVE3AOjA+BmAZy5CrCGDGvgx6Y/pwbZD92blASXEGmUSAASya/0zb51IXOi6/nR6+gJivSnL6gBMR8D0MGvaYSjs8MDMvJAhQ6JDMHVB3NUB3A04D5nj51BdDQwvVv9qHy/xB7QUApyX2aet3TexKqL8DjJdB2ABS3jBKyz9Uq6nRrrlZQ+r3iSp8OJhPJcZAEA5MazvLwEAAIEITmM9Xl4WetT/bORMHbwqVlJf/F0AgU/8tNm+Llkd6LXikZ12hbBCEGKrKype69jWAXkD6byXtfevrOlbolD9PD3zohZ35IgJA6HCofdhfVqH9i7k1f3wGEaCD+bCpq0P/KFT/JcFwNYPOMeszSxHwKhMeNxoblqurd67Ny67htQfCUC4hxoUAesZtyUEEgBA1wBfcurRwiU2mnRueC6Rv2WslAggYP/vp4F2F6l8QYlxwc/hQYnxs6/RT3xMaQTj76VuCL3tjZf7IFIDQ4ehSER6S6PwB+7lyIjxeKOcPAP5g+E9pzj+hTwfTAQYTLSXQMTevDJ4+fUXwiXydPwCoS7t+rj4XnNCjIbAPga8B8H0eMQF+H+gpdXj4jHztiqH7ogvASIvDsJoOYGCc7OwouIrd8H/KewCXtCfnD4gAEDogbNBlZuUWIqBRb1LUQvU9e5B2KUCXWlbIKAL4bdbp19NXBEbctDLwXqHsSuTa1dQwfXnonlBJYH+AVAIacowJKAGwRB1ee2D60eyZt7j7VoAWmsZEmIuAfRv2qnd16abQOenSEKkhoHmKzaEIIHDUI/MKhggAoUMxa2BkXwLOzCJq/umb1lb8pxB9zx6kHcnMd2esaC4CtjFw0U2rgidMf8GbNe3XV1PkluWBGUzGYQR6M0cR0IPhWzWpcku3QthUUrLjHgK2OxUBFMWYQvQrCIk8sqBnHYBlqev6ARsRwDS/cjyXe2NhYZAYAKFoUPv8GCwtLy8nRc+opMs05vEbeqQNF8/tX6cCdEu8wD6THrPCh017IfRJbha3ckcll0fq6z8GeH/HKXPiMQH8Fun+8256sfybfO3IFbUP+6mbNocJN4IyzFKYBwY+qS4Nji6ELTedG14AxgSr+ISU/hu51Nhz7hNdNxeib0GIMXpq+DBW8D4Af2qGP8AiJgA0ffHMwK3eWJg/IgCENmNhXw7oCI8GaBiBjgM4GD9IGaem4/ViWNa3FgFrpq4OFmQIedbZ4bnErQFsTkUAE27X6wKT1Q1UFMOHM8+pqzJAT4DQxa6e2d/HClfNfDZUna8N6rD6vaN+4ysAJY5EAON2hfFSLMuC3QdJhlLHSvpQbdSnbAHKfrztSdLyMF3oYPz2pvACAiYA6Wl+42XJ77c3KfV7V6u7hr2yMR9EAAhtwrx+4fOJsRDAnpaV3BYBxCOmvBha6qQLO2YODB/qI7wPoCSxPKMIYJ550wuhWzLU8hz1nLo+AC0HwXZY32TvgM3w6Qeo1fnvp3BTlVYN8AjAeqWCzRLBrHYRTCg3AHobxEsaGwIP3FlNkawNFzoUo27kALpon4KaM3g6EQFg+t2iWwP3eWRiXkgMgOApDKb5Z4ZvI8Yi2Dn/5srOFGrqfFyGOi1saggEVzlpPhM+wr1Icf6AReBazBziW4vR+QOAujy0QVGMs8CwfRo2SRu8Mxu+gvxNBuOxeD8tjWfqP2ZE/JxM5enXjQLwCWDcVdpF+9ek33q/I6JQXDx5G2kEui7t+rFbDUDs6c6i+SACQPCUBX3Dt4Bwg+MTXBIBBCzKlEjHCbPPCvcDcLLVcXMRwA/evCo0Pd++3WT6sq5vABgGRpNdvdS/jxi/K8SqgNJNFWsA/DfeLuCVCIiV7w3wysmjwuOdWSx0VJ6YHVjBwOosRMAho26uP9Yj8/JCBIDgGXP71/UBKHvH54YIYCPvof+W9mZkqpLspOj1aHnw6oL07TLq8uBaBXx9NqsDGChh9uUdBKVuoCgISUmG2kAEKMy4ffIFdec6MFnowCjN8T3sVAQYij7QM+PyQASA4AkMJsWghcg17qSwImDTfqHQWznZkcCc/tpAAMc6CVQgBkD4Lyk8ohAjD14xfXnoHgKezEYEEHioOnzHfnl3zng+rZ/mctv+E85vPSdTubUIICZ6eOJIzX66SujQPDEn+DEDzUl+nIgApnaRn0IEgOAJC/pFjgFwdF6NFE4EvFBVTXpetgCAwteY3QQsqxs0dtrK4P/y7tdjuKHhagI2OhUBDPgY0evy7dfPgb+AkZYBsQ1EQID8RlFP2QgeYNCf4q8zi4CjR0+p3dkjy3JGBIDgCWzoQwrTUCFEAP0xXzNmDYzsC6BvUvs2DpKARVNfCKzMt9+2QF29cy0Dl2WVNpjpYrXyx6Bt5Uz9VlMjCKtMnb2FLe6JADr/mmvYdmmk0LGp2FzxAjE2xQvsRYDCPjrcM+NyRASA4BW/dLamzwH5iYCnp7wUeDdfExSOXoyE34+9CKBwYxNfn2+fbYm6PLgWxM85FwEcRLT87Hz7JaLfw6JPj0VAKLBZswz2FDo+DzxATQBWpW4BDJj//plwkDeW5Y4IAMETiLA7AIcL+x2QiwggWtoQCozJt2tVZQVEF6WWW4kAJuMudW3ox3z7bWsUnacAaHIsAghV+fZ56zOBdxXi5kDLNhcBlH9cg9CuYcYGIOX6shIBpBS9AJCdtARvMKhL/BfS7BysiAB43ZF/b23HDyBkUaVeAX9mEJ6Zsjr4anZGm1P6bt2JgLKP2TFqMSvBtm1Rf/T2QvTb1ty8sus/1XPCiwgYQwDY/nsEmAZMHLwptGBlz7p8+p25JKROr9K+M5hngrF7ap9WthCbJAtqqRf/nuzKE9okAAY1b6EsdF58Pv1tw/ABSLm+Uq+f5v/s2xY2ZoMIAMEbUvPLWzgPBrZMXhvs641ROaL7zoXiYCiDAVLwhLo8fc+CdszvgeYNeByIgLKAUnESgNX5djpzSeBBdQw/2RSJ/EphPgicfO8iAAYDIO7OSgbxyACUuP2/BHBhvNxGBCgs98vOTumPXWt27KJF0eI7M4gA04eSYkIuaMETyGxU1uyprXCTBO5BxgAwWTq+xPtBtIkf8MosL1CXBz+acU74r2hJfpRJBDAZBREAAKA+RjsAvN3yryBMGakNBvGF8QI7EaDAKFS/QvvkgQeo6cIp4R+YsHeszEYEdG0TI7NAYgAETyCATH1EursvagEw96wd+8XngjPNgwPvTV8T+tQDszyGn058Zx8TQCe5bU0+KIrJdWkRE8BGcV+bgmfUm2TAbCV2/TAFPLMoR0QACJ7ALVMADkRAUd9kSY+ekFRgYy0TF+TJt9jwG7QMQFIeBRsRcMySSva5b1VuGGxxXZqIAOLivjYFz2gC0oc0U0UAERf9ZlIiAARvYJMlc8nHYxT1MCsrONLKWaRCBq9x2562oCWZ0Yep5RYioPxf+o6900qLBcNQnK4OYBIBIAAAesRe2IkAA5SWxKrYEAEgtAk2IqCob7LMOASwdhYJRIMIveeBSW0CA6+blZuJAN3Q93ffojxxIAKIuKivTcELmMBIyvBnJQKIOa/VL14gAkDwirRrzVwEFPdNloDeCa+TSbb8y2tXU4P7FrUNCthyL4U0EaBQ8QoASrguM4kAiQHo9Iy6aUdvArqkXglmIoASdrMsVkQACF5h6u/TCsnJ+ro2JWn9v7UIoH94YUybYShf2B1OFAEMo2inABQ2WZ4K8+9VpgAEf5NxGGA+0pUmAgwU/T1ABIDgFZZrs1OirYv2JqsO4goAZanlpiKA0O42/ckGo2nHvx2sgmj+LAzKa08AN+FUAQBYigCFizs+RXAfA3xK7HVGEUD0mSdG5YEIAMEbzG60CbQeLN4pgApd62oZ8JdawLzdbXvaEnX1zrUAIo5EQBGvhyYFlFXaYKFTowADTHb+SyJ2PTWR8olXduWKCADBEzg1E6AJLRWKVgAwK82JsxyIAGKqd9+iNkcD4OQbK/oRAIciQEYAOjGXTNaOAHBgqtO3EAFfL55d/o1nxuWICADBE6zz5qXUK+IpAES51QFkEAEMI22qoAPSus7Z5ltTwKUe2JITxK15gDKJAC5icSq4Dxu4NEkU2ogABq/zzrLcEQEgeAJZJAI0qVi0T1mRQGPyU72tCKAKt+1pawhIznRm8XkYKOLREEq+B9qKgGIWp4KrXDo1vBuDW/eMgL0IIIIIAEGI4WQKIFbVVUPyoGVTH2cigLCb+xa1Hdyc/bybo6RIxEUrAMyCAK1EAMkqgE6LEcXkJMFrLwI0X3RHu8gCKgJA8AY22r0AaOHbtBITixn4uQe2tBlzK8O7APABDpIiGcU7AkAMU7duJgJkL4DOyZhJ4UPBuAqcvj8EYCoCqh9ZkN8W2F4hAkDwCIdTAEUuAAj4zvRAqtWM/Tl9N/oOQzSKgxLf24kABVS0SyLjmwE5EAGSCbDzoarsVww8BKAEAJyIAGZ+1DsL80MEgOAVHUIAAPjO8g9JfgrYaUH/ugO8MKgtIE4WAIC1CGAy/um+RbmRtBlQBhEgiYA6H9+GtYXE+HVSoZ0IAD5+fH7wr54YVwBEAAhe4TQIsNhvsh8CNn9MgvU6fEW9FW4+sEEnmJWbiQBi+pf7FuVGYibATCJAUgF3Li69MXwRA+MAkykhCxEAg2dYRJEUJSIABK9o/8sAARiG8kbsdSYRQAr6uW+R96gqKwD6OkyKpAdLA1+6blSOsJJsrp0IkBGAzsNlN9ZVgfFgYpkDEfDRYwuCz7luXAERASB4hSMBYBR5spXGbuUfwmhd/24rApjPWtiXA1ZV2ivK+/VHAdgVgJOkSB9eX03Fuy+6QeabVJn8XZIKuHNw6fV1v2OmRQB8dtv9AkgSAcyY0p6e/gHA39YGCJ2GDjECoFZT49y+4XeIcUrsL2pJEpMOo0L3a0MALPbOQvdhwoVpw58m327L5/KKN1blBnHLHTvFfkJLUuqEcuai36gqI+NH1+/l82FvkBECFM1gfHvHo+XftjfH5QaXX84VHArfzkxjE6/pltGfOKnvW5aILnp0YfAlL+0tBCIABK9wGgPQa8EZdfebH6MIATtib508jhGo1lDw6Y6uFavVamp0ZEOmNhVaB+ZTkm4SMBcBbPDV6EAC4I5KLtcatAvS/lYLEQAucgGgoDm238T+VBHQHvMAqGO4rI614UQ0lJlPARm7tP69BgjA9RdpESD8ORH+yaB/gIzPWafPo6HAv+6+u+NuaZ3I5TfUngRDewhMv4j/lp2LgJ/Yx+M9NLdgiAAQvIFoh8N9fnYB0eVWB5M224LFk3fiUxuaH/HKt9d/ubBf+HcT1gTzztClUNPTBvtnIhayaCsC6Pg5A+uPnfpixd/y7bcY0BrrRwPobvq3pjtRLdQl8Hoh+lXPqf81FH0KDDoShF4A0hZZEtAAQn2aMEy6HpLLmVkxu+EnnhoTAe0pBmB8JZf7KrRxYdauJ2AXgEGU8ve3/F0ElDNwBDOOiBWSApRomn79xdrXzPwZKfjMAP2TSP8Cjf6v7nyi/PuOMGpwxfXhww3mGTBoSOI1kIUIYIX4iofmhjZ5bHpB6LDrlIXiYkHfujfBdLwbbWcSAQnsIOb+E18OvZZvn/P61r0FouPM+jOZJlwz9aVg/3z7bGvUPlzm66p9AWDvWFmGz/6J6SuCF+bb74yh4QkMzIfJt2qaaSHV0SXblCYC0spN2mQAUHjk7D+Hnslscdtyw4V1v1FAjzHws6QDVrttmZWnfAYm0yQ7wKgxCF8pCn3F4K9h0FcG4T9dSvm7hX8M/pDfX+EeF0/cFCppKB9qEF1O4BMBpH8GFu+B1GuOZz98W+gm14x1GRkBEDxC+QhgVwSAw6dRAChjovtVlQ9SVcoroIsIixhoFQA2IwEE9JvbL3zGlAKMPrQl/qB2JSc4f8D+s2fmx/LtUx1SN8LK+QMm87Et/Vs97abZbFZuORLg+ya3v8I7Jo4K38CM+QB8Nk/8mctTPgOTmIgyEA5UgAPZaImEI4YCoKkRGHdZuIGB77k5c+ZGhfCdQfwtoGw0gO/8jO/qUfHTAw9QU2E/gXSuuWZz1yYuOZQV5VgQ+qIBvwFQroDT/t7UayDDSMCL+wSD0922301kBEDwhAVnhvsCWONmH05HAogwYOKa/AJ25gyo66kYtBFA8q5/1iMBnwYocNS1q9vnnOqsIfX7sGF8AqCr5RNyMjU3rwzsR3kOE884J/x3Bg7JdKfyYCRA0zjQ884iXtEwYXR4LoDJSYU2n0GBRgKsy1P7NnkPoJaBLQB+AmEzgC0AbQYZW8DYzKS0xPwYWwHAIGWHjzkCPxAFQDqVs2KUEZGfmUIEDoCwFxN2A2MvAL2Z0DvWW5qd5jZlHglg/NXwR85qLyl//397dx4fVX3uD/zznEkCmSVAQa9arBYUtXbT1nq54DVACIQlaC0Vrai9y6+L2iKSHXQkEJawKHqpeq16batWKgoBAkkIaL0vrNb+9Nbb6k9rcalWEcHMkkBmzvP7I9ss55w5M3POZCZ53n9A5sx3zveZyWS+nznL9+iRLQAiI4JTXG2u3wZeZQVfs6sPs1sCWOUFANIKALXNniNrSgMPEfGP9fqLqefCgOpfASAnNxeqqno/AUUA9L8hRy+6J93Bv7684zwV+LLWEfmx7N8SQM1ZPfgv9t+K2MEfMHwNLNoSoL88tm+N2yAUEVDEwNkDffXuXB8YsgH03CYwVAIQBhQCmBjU+4unvm/0Gvvgon63kXVq12S8JUDBswWdwXlbt57qR46TeQBERni9pMLBS2HzudSaY0TsBwLRHEv6UpV1AOLPLIjoL6oeoqqGso4pVvSdSfXzAz8goCxqocbQHvFcP1LZdV+6/bKiLIhad4I4oXsVP41lUes1Wt6zjFnBOuPeB0/V9R1TCWjUjVsGr4Gp5THr1ftdaC6P7VvjdlR/kb+D2H6N1m20ngS3zdbUe3vPCbjmDoXBH5AAIDKoosXTDqIViT7I02UiBHxhbYn/K+n2U91W+C6BH9W8U3uQySNWtq2bGTgj3b4zpaG8YwrAWzTv1BkECGj0NqV/BUBmKo9d9yCFgIdWP+H6vXHPg8O7kAuYlQfRd2VGCQF2hQBmcP34Itf8X2ygAIYICQAioypanWuI6XbYPOFPohBACq6xoh81nL8GWlsBYvsb+PH0sIOf9hZ/7LaifzutWhA8U2XlNwQU6DaK/y3+bWRX+t/+vd8OjgfFHzSa6RCgAC/muVw3G/c4eIIF/n8DcF7kMgkBloeAIypowYObPLene/BwtpEAIDKKQFyx31WvqDSXGbZeJCZBCLiud077tNS0jXybwfqbhzUGGQK+NXKk8xlvMY/UfEwW8M7xn4aw2gLGaYDh7vfoD1HiJRUt6X9DUsJ8PXQ+nzIYAvacwMlS7yPUhazERETLNAdhCQFWhAAVzPeHET7/55tdTRiCDP+uhbDT/d/g/M8+57+CQd8h4CIAZyL2qHoLaH4W9hzVU1LV6k57pjpvMY8cOSLwCmK+icX1F1/P3hNdwYXeg9m1P7GhzHeK6qADAC7sX9hbf4Jxd8+KJvfcdPtnMK28IvAGgHON2yHhJ1iKZwd8QEzePyvOh7Zto3DiigdHxWLf5QrTQUD/tdB4/u8x45dw4DVmchPzOUy4gEAXgPhsAA6914Y1lvX3o9e/1vLY11/jdlR/kb+b2H6N1m20ngS3idAGUuru2+x8EUOYBACR9baUHS0KKA5Honb5AcWh5inbQbgs9j7tgYu2V7W6rrKgRKwv812uqnQARn9T2iHgpTyV51W0eD62oo501Zd3nEeq8hQiB/8+hiGA/GGH8hXvM4WH063Be4WvmJgORPapp/eD+7dg6J5eGbmdhwhj+n7u35bLCIPwERH+yqC9xwLO9nty4HTN6u/5G5hQ03c7YQhgfiDU5V6idzaD90Ye2aEEznMwn8+MC5joAjDOB3AeCCP6++iTCyEg9rZxCOgG4dcqYeN/3uV+Jf6ZDD0SAMSQsr7Efz0I/6V1n8bAFVbIcW5FS+Ffreh7banvPhD9wLCRdgh4j0m9pra56L/jH5A5q+b6bwDRvQDrH5+gEwIY+N7tTW5Lrnlw5wL/LgADWxKMP6Xe4a+7Jgy1fbNmVH3P3wpCSeQyvUFYJfrNhkddC1PriWnp9zvHM8ITiJWJrKgTFdAEZkwEYSKAzyXqP8tDwItg/hW68cR992VHEM8UmQdADCmkuJ5iNXAvCJ64+xA3cDlUhH8CwJILeXSddC8ZOSJwMYBLdBsx+j+AIuo5k1g5uHZ24M4xR5zrfvCy/bOjRVo9K3A68ngTExYl3MjfW3/0a0k/u73JZcngv3K+70IAc6KqiHjNNAp6ZDgO/r0mxr42BGidp6+ClcrUuyHe9DDeA/AegGdj711y47HRoIIJCmE8QT1TBU4H0ZnUMxHPGQC+QIArxXkCBt5rkX87DKOL88SvC1HrOQ6idobapiLc8sCW0X9J5VUZCmQLgBhy1s30P0jAv+rdHzPEBUIqJtbtd39kRd8bS4NndpP6ewCnGjbU3hIAEF4jVn9UvbfIkovoGPEWc16+O3ATGCvRO8mP5j5zLQPfzl4aFXJdZtUMh/UL/I8ysLh33Zp9RlAdimPC8u2F71jRdy7x3sgjO7sDfvSe/me8OZ7eWv8Ll+HxFHar+j+fjjrJ+eNV0HgCTifGWBUYpwCnMPE4hjIW4LEAxoEwliMPAE1tS0AYwBEQjjD4LQb+VwH+GFLw2qd/d7+Rzcd2ZJIEADHkbCwJXBQm/oNRm5gDf++ubnUvsar/3uMBWgHkGzbUCwE9dgN0Z81e10tW1dVnSxmP8CnBGwBUAjwx9n7zIYDeIuKpdTutCU8rF/i/AuD/om9Qg3EIIMbe23e4y2KbDAe1i31fVlX6o6l98ozm9b90WzL5Vab86EfHx4zkAidIGaF2h9ycT/kqq6MoTAoTj4EDIChBgCOCp+JXlbAvHMaR++5zHzE4F0L0kgAghqT1M/37AUw3ahPx6dCVR8qk21qc71nW/yz/9SrwMBKdamscAgDQ8wx+8GS+a1u6k+vUz/VdQIxriehf0LNpVlfCEED40KHmTa3ZPfLtdGqKtDJ2339fLfF99y2f5X4xLl8AABe4SURBVH3G3WJV/7mk6trAAiJ+Bkh8YB4r9LPGR13RU1YLATkGQAxRxLSJiQ0DQMR+7JFh5ioAlk34UrnP/ej6WX4kDAHaxwRENphKwNQRocDWNWX+gwA3K6S80Bl0vuY9aHx++ob5HeO6Qo7JDuLLGCgB46LYfal6NOfWH3CECLOtHPxXze+YqjLmatUV97r01P/qHc+4Wr1WFZBjiDC2/2fE7zePvI+YD2euMpFLJACIIWlEvrOtKxQ4DmC0Ubu+D08GL4KFAQDoCQHrSv3EhIeQVggAwHCCMAegOSozRhQGQmvK/G8D9DFD/QSk9Bw4yFwI4AwQvngyjDEK6Uy5mHoI+KuiqrNrdxVZOokTk/JDo7o0XpeN6V5sKKcxjwKg/b6JfQ1VvJ+5wkQukZkAxZDjXcgFXd3+J5Bg8O/T+1k51lvMlgfiqhb3fymE6wAYzyYXOztZgjboCe+TerYQ0BVgXgjmhQDmAbgYGDjfPRJFrt/E8BkzxL5C3TSldo+1g39vKbMjb2jWEn3zA6tryCXM1HOWi977JmI5U/rXZRBDkwQAMaR4F3KB8zP/kyC6IpnHUaIBOg2Ve92PM9NUAO8aNkw+BOi3TzC4pxACfp2vdP5z3T7Xh4kfkZLo0zYTPU/GDm+5759tqiXrRX1wJwgBZDBJkhjeJACIIaN/8GdakLh1DEab9yCFbCgLAFDT4npZDakXAzCeejj7QsAJEJYs3+VeVLXzFJ/xGlNHwJtxC42fp4uImu8s902zq6asRlD1vvHHLmdWs/RaBmKwSQAQQ8KWMh5ReDywPaXBHwiB1LWWFxWjdn/R0a4TrtkA3QGjLQ7ZEwJedhAurdvlvtt4LVbg32g+V+Pn6QRR07DcEsAcAvQ3+0cuVxxytpfQJgFA5DxvMY/sCgW2k8YpZCbVVbZmZhpe70EKVe9zrVTU8FdhtDVgcEPAcTDffK7TdWn1Lverxo+2RrjDvRbAH1MIAS4i2jPcQgCDO/o38Uff0a9vucpKUYbKEjlGAoDIad5iHuksCDwNIMWJTuiOylb3ekuLMqGyddSb1fvcJSAsht6xAZkPASfAtDWfcUHdHs9/fDeDs6V5D1JXWHGUg/COhAATGEd7/wdgHAIILAFAaJIAIHLWpslc6MwP7ABHHEGeDKIVla2ulRaXlZTqve5fjvnEdQ4B1zPwP3ENMhMCgmDclZdHE+r2uG6q3OP+u1HNdvE+U3gYqmMagHclBBhTiD7tv5EwBEgAENokAIictGkyF4bcgR1glKa2BqqrbHGtsraq1PzgZequ2uf+RfU+19fBNAfAbgADFwSyKwQwHwLzj4lC42ub3bdW7XQN+ql1K5oK/xoO500D8J6EAH0OBdEhzSAEkIrTM1KUyDlycIjIOd757HR2BnYCmNG/MJl3MqOmss1t+0F/6dgwv2Nc6KTjSgCzAZ4BYFTiaYOh+zr0tvcB+C2AAyB1px3n81ul/orjE6HmHQQwXvO5Gj/PADPP8e70PGdPdYOv8l+OePI6CzsMpkkeWER4cs2v3FdnqDSRQyQAiJzinc9OZzDQBNKY59/cu7lqMPb5p8PrZaXgd/7zHWG6hBWcT6CJgDpeBY0BYQwYDoA7+h9AdAxACMBhgN8C01sKK3/qPFH4BztPdbSat/yzcxxwHATweQkB8Wqv8R8BMM5ECHh57WPub2aoLJFDJACInNFYyi5WA7sAFOs2MnpHMyoq29wbrK5L2Kd+3mfnQnEcgISAOLWL/C+CcAlgeMEkMHB83WNuzZkhxfAmxwCInPDkQnaoHNgGo8Ef0N02zsAyGfxzz4pdo950ONTpAD5I9ZiAlQs6LrOpvEFFwJ809/0DUccEEDC6elHn2ZmrTOQKCQAiJxw+FlhFDHPXfueYW4SlVa3ujXbUJexX+3TR/wPU6QA+TCUEMJQd9eUd59lU3qBh4NW+HwDjEABH6NIMlSVyiAQAkfXWlHRNAHBbUg/i/n9vrWxxb7a+KpFJK3YWveFgdTqAv6cQAsaopGy342JPg2zgtNFEIYDpWxmpSOQUCQAi6+VzeCmA/CQfxmD+aWVrJqaxFZlQ21T0Ohw8HcBHKYSALylFwettKm1QFJD6KiKftUEIYKJ/zFRdIndIABBZj4nnJXm0KgP808o2zz32VCQGy4qnPX8G1MuRwu4AJvXf7ass87yPF30CQvSpnDohgFT+lvfGY6Yujy2GDwkAIqttmh78PICzANOnrDAz3yyD/9C1YmfRG8w8E8DHyYUAuqThyo6xNpaWcaTi+biF2iEgr+tk3swMlCRyiAQAkdW6HRw1i1mCEMAgvqVqv2ernTWJwXd7k+d/HaxejuSOCXCEkDfJzroyjYD/Jq3nqhECiMncQbRi2BhqB8WIYYCg+yXviBLO25XRYnptnNExSVWUeSpwKhH5WVWfqmrz/HkwasmU+tkd5+XBUUR5fDJTVw2MVNtU9PrKBf5SYrxAgDPuPcGIS4wU5lMyVF5GhBx5zzrCIRADHJuEep9/xN/LnIUL2bEtgxd5EtlNtgCI7NZNmhem0dkScKqqhA9smN55lp0lRfLOZ+f6mYF7w4ryOgMbCahi5noQ/Wltqb91zYzAJZmqJRO8XlZWz/Utapjrf82hKK+zwi+GVbyyeo7/8Ko5/msyXQ8xXwXACei8J2JTAat+u2vKpLWPjXwbwBsAYGJLwD9MVAIzNFqJYUoCgMhqlQcL/wbgQ637dELAF1Ul1L62pPMLNpYFAPAWf+wu7Ao0A3xTZDl9PxCjRFH4d+tmBrZtmOH7kt312InBtGZe8MqCFwOvENPjYFzYd1/v8z2LgMca5gbu4fjvoraoL/d5AbojclnCEMDqe3bWNEia+35IGAIULM5IRSInyFTAIus1zvQ/CMa/6t2vvTuA33YojuLbWpy2fOCvKz/iUTqdexg81WRdDMZuVrixuiV3pqbdUsYj/By8DsRLQPiyUdv+50u0tXa382bSHo4sUV/u84J7B3+NTzGdaYPfX7HD9QU76xoMtdf4Z5KKlshlmhGsZ1mgIBQ8zbvt1CG1JUSkRrYAiOxHfBcAVfdu7aUTwiofWFccHG91OevKj3io09lsNPhr1EUgzCOmZ9eX+n+/ttT3o83F2Xta1ppZn53TMMdX70fgHRA/CODL+pcg7NH/fJl/3DAvaNuWgKjBH9Ac7bU6ZsZTQ23wBwDfcddzAI5HLjPYEuA6medalIGyRA6QLQAiJzSW+B8C8H2jNlqfeQR6y6FS8dJ259+sqGNL2dGiE6GRzQz+J7OPMbiITScIzxD4KWL33ooWClhRY6oaS32nhvKUcoCvB2NqX5V6F5rRE7El4J7a3c6fWjnoxg3+CeqK6DjgyKNz67a7NHcn5bq6q/0PA7gxdrnOloDXGh53fVUnJohhRAKAyAmNpeyCGngBMLkZOtqbTFRc1er6IJ0atpQdLeoKF+wF0+RkH2viSnadIG5VGXfXtHjaUywxaRvmd4w7GVJuJKYrAJ4M0t4qmEwIiGl7d+0e161WhID6cp+XmO4wXJFeCGC+6famoXt66PKF/tlMaNZ8/lq/KwWzGx5z77O9MJHVZBeAyAkVLRQg1TGPGIeN2umMS+eC+cC6mYEzUu1/bcmno7pCBftSGfx164oeyQrBVK6A9q+bGXhqSxmPSKWfZKydHVje3a28S4xGgKcAUBJMpzvAYBSOafvTNXMDm9IoEwBQP8/nJbXnm7/htxbtuu4ayoM/AHw8xrWfgE80d4dovSZh3Gp7USLrSQAQOWNZe+E73fmOaamEAAImEXP75lmB0zXuNrS5+NhohQpagPTmUzc9YQ3xtzvVwMPp9JXI2jLfaoDrARSaqgmphwBmLGmY40/5aoz183xe6jvaX2++e526iGjrip2upan2nSseeIC6QfiV9j4bjRBAKK27NigXCBrmJACInFKzt/BwqiEAwHndYW5fX+w/zWx/m4uPje7Oz28BYMmHpekQwFi0bpY9H9ANpR3ng6lStx69mrTamw0BwNJVc/2NJkvsFzX4x/SZMAQQ3VO3w96zEbJJWOUHAL0DN+JCAKmsrs5AWSKLSQAQOSfNEHA+8tC+eob/HxL1s2bu8THd+fmtACydzMdkCCDm8Hwr++2jkPJ98MAsoJkKAcRYtmqOf52JEgHoDP4xferVzsBdy3dYewBitluzzfMngJ4HzIUAYpTULvLLxEDDmAQAkZPSDAEX5JNxCFgz9/gYx8m8VgDfTKfOpOri2DbK+Xb0DdA5sf1lLAQAlavn+tca15dg8I/pU6P2jbc3uS058DDXEPj+gZ9hZktAg9fLMg4MU/KLFzmrZm/h4TDxHACGc5vrDG5fylewv7HUd2rsHZtmffY5x4m8NjC+kUJZJ8HYDODdRA0ThgBSC1LoPyEGF0TcMK4ntqYBRwj8tIl28etmVK2e42/Qa7t6ns+r6J3qp1NbxDSMjSua3MtMPXYI+mi069cA+ie/MhECvnXi9aDuJFtiaJMAIHLW/d/gfAXUCMCRqK3OYHshq/Rs5DEBa+YeHxMKO/YBuLi3TTJOMtHVlW3upcEpri8SUTnAL6RQV9//upMfpUPhmL/7JEIAg/5ChCUn8lxn1zR7vg3wSr11xaLo9desnudfH9tm9byB8/xNf3/va0doXLHTXWnyUUPSAw9QNxOizrpIFAIIvNa7OD4Ii6FPAoDISQymjjGBnwOYa/YxBscEtDSU+U7ZUNwxznEirx2xm/3NDURdAF1Z1eJ6BgC8XlIrWlxNla2eySqpU5j4PwF8ZrouGzdeM2l0aRwCusD4NVSUnbzUOal6j/tubxMFAaC22XMHgaMPJjM7Y6CKitVzff0BInLw729r8nVglVcP98G/T74afBDA0chlCULA506GKOkDNEXuk4mARE5qLPFvBrAklcfqjCn/0/v/V3UfqP/X0qkyrqxuM55YZdNkLgx5govBA/tpjeui7VWtrquM1pmKtbP8ewHM0rwz4jn21MM3wRF+vGb36GNG61wz29/AhBq9dWnpf74K39mzQH+zv+Gkwswrl+/2mNtlMEzUfSewnBSuj13OgPZkSQQGaH7DE67d9lcnsoVsARA5p3F6oA6MJal+S9YZS74Ko8Ef0EsOQWKUJxr8AWDpIepkxq4k6rJlFwC0tgD0id4SoNbs9WxNNPgDQM1edy3A0fv1TW8JoDuMBn9Af0sAgbwy+McLknMjGO/HLjfYEkAAP1x7XfLzZIjcJQFA5JQN0wM/BEV8s7E2BCQW3V+AFZ5X0eZuS3V1sTKySY4TdMMaP5lQ2+ypU4ANOuvSNHABocTrjw0BRLS8bpfrTtMFDiObt1EnmFbpXihJOwScQiF+RM4KGD7kFy1yxobpgX9j4v9A7Dg5CCGAQH6FeE7VPs+BVFejZ6AutmULAJn5u+95TZPuv7rZXaFw9EFopn8/yYQAQk1dk0smsjGQ94nz5wS8nkwIAKP0xOvBaptLE1lCAoDICeun+29k4vuh957NbAgIgNX5y1o8z6X28MR667JnFwBDMfW8UzwLoXqv+zYCoif8MXt2gKkQQMuXN7kTziUw3HkPUgjgHwLgZEKAwryq9hrfd20uT2QBCQAi622Y4b+BCD9Hovdr/IdZmBl3A+g2eliSIeAzhlJS0eY5mNzDsgcxeg75StQwjdMQq5tdNUTYErM+47pMtGPCbXW75Zu/WfXbPM+C8AgA7c3+2suJVHqoelHgIluLE4NOAoDIahum+xczTAz+fTjyR76lcr97CYEXwZoQcExhmlnV5jQ8t98qRPZsAeg/DTBRCKDUT0YkEFfvcS0h0L3RnSd6nG47BmHJ8l3utK8sONyEu9UKAj4GkEwIcCkq76y7tvMse6sTg0kCgMhaG2b4b2DCwzAx0U+UngvA31nZ5vkZACxr82y3IAR8CpVKlu13vZRULelQbZsNIOIwA6PnTWkFEAJxdbPzJ0QUfSne5EMAM/FP6na5706nnuFqzdNFRxn079R/Zmd8G60QQITxCIfa6xYFz7S9SDEoJACIrLS+xHcLI4XBHwCYflbR5vFGLlrW5tkOUq4GcMLooTqD4RHVgemV7a4/JF1LOtL4Bm68XoqbCVD7ead/EGLPlgDnzQS+L7ZP48f1t2MC37R8l+deo/bC2Kptrp0g3G20m0V7SwBNAHN73cLg5+2sTwwOCQAi6zTOCKwgpi1I6Rg9+s1ZY523aN1T0ep8GqxMA/B3wzVE33xZUR2XVO9zv5p8LWmyaReA5mmA2iHAkv57tgS4f5zCjIEnCbihdnfPlhyRHge7qgC8lHwI4HOgqAeWX318oo3liUEgAUBkDQZT4wz/xrj55c1rG1HgvO6720j34kAV+52HQiNCX0LPUeoBvXYEfAjwT4JjXP+0rL3wnRTrSQtpHrttzao1l8aHAMv6JxDXNHuWg/kqgP5ioodXQWpJ7R73L6yqYbjzbqOTDji+A+CD5EMAzmXkHaq5JjjZvgpFpslUwCIrPLmQHe98GrgfQEpXJmPG/rxO1/ylh6jT7GM2TebCsCs4HcA3GeppCpRuZv6QFfW5s0d7XjAKEqlaNzNwBoH/ZrL5I5Wt7u9bXkOp7xBA/6jboH9nMY5W73OPs7p/70IuKPD7y8FUDsLFAE4HIQTgYxAfUlWlKXSpc7fXm94xCELbiqv9X4OK5wAU9Y/zWtMDay/vYoVvaHjc86R9FYpMkQAgBp13Pjs9Qf9jDFqQ4lfO9oDTNb/vAjXZLKkAwHioss1t+aVa15b6XyDgUsNGPSHgSPU+t1wlbgha/l1/CTF2AyhIIQQwE23tDDsrNm8zH7hF9pFdAGJQNczoGOsJBFsYtABIJZHS885wcEEuDP5JI3tmAoy7HLCWnt0B8g18iFr1pLuNwWUAfCnsDiBivqnQEXi59lr/1+2rUthNAoAYNBtndEwqYMfvmHhK5PIkQsBBOJyzbzp4qt/q2oYyzcsBaza086LEYrCt2uZpV1mdDeBYCiEAxLgAKg7VXuNbtWwxu2wrVNhGdgGIQbF+WscUhZQdAMYC0N/8qI8ZeAxg3QP5DA3WO5/ICeA6k63/DObfmmmo+VrpxXuib4NhZt9+J4h0r14Yv96BH3U3HejUlMaMQwmpSX7NMazF7PtGp89kN6noXb43pb7iLvXct5wnAfha1HLzuwP6LtX8PhEqVz/uekL/2o0i20gAEBm3cZrvKib6JYCRUXckHwLSk+K7387BKh2adVnVJ5l83nqDjE6bSPGnoBt3ZTRYxbU1+zqQTi0abTRrSdBOs62Z55mojdb9Ws9FNwRoLE8+BIAJbchXF615tOioYcEiK0gAEBm1aZrvcpVoP/Qm+JEQkBYJAQZth2kIMOrLjhAA8KE3w+7LttlwFo2wlhwDIDJKJbodRrP76e2DtMsgXErYTpp1WdWnmQsIxfSn216nprj2FlxAqL9tkpclNnyuZt+nVj7PRG20L+9r2BclWp7cMQF9P02elOe/wqBUkSUkAIiMWVvy6SgA0xI2lBCQluEWApJpJyEgvi87QoCq0lTDQkVWkAAgMkZRlXEwO25KCEjLcAoBBOPBKq69hIC4vqwOAUQ4w7hKkQ0kAIiMCbpGfQggZPoBEgLSMpxCQFR7CQHZEALeN65QZAMJACJjvE0UBOP5pB4kISAtEgIM2koIiOvLqhBACu82rk5kAwkAIqMUsBfJDkESAtIiIcCgrYSAuL7SDgFEz6963NNuXJnIBhIAREYtPeB5lohvgYQAS/ozS0KAQVsJAXF9pR4C6K38fPUq44pEtrD5rGQhtK2fHrhYAaoBXJTUXG0a71hbJ6zP9F+Izf1pjhVW9akknyl02+fAPAHJtknmfRr3PBP8hbBOn1FtLJwnoP+59NZFTMcAasrL79rs/dXYDuNKhBBCCCGEEEIIIYQQQgghhBBCCCGEEEIIIYQQQgghhBBCCCGEEEIIIYQQQgghhBBCCCGEEEIIIYQQQgghhBBCCCGEEEIIIYQQQgghhBBCCCGEEEIIIYQQQgghhBBCCCGEEEIIIYQQQgghhBBCCCGEEEIIIYQQQgghhBBCCCGEEEIIIYQQQgghhBBCCCGEEEIIIYQQQggxdPx/4ieY9+sQ9rgAAAAASUVORK5CYII=;fontColor=#FFFFFF;" vertex="1" parent="1">
          <mxGeometry x="1092.24" y="500" width="80" height="80" as="geometry" />
        </mxCell>
        <mxCell id="E9nGVDsH-L22k8IpwY4_-43" value="Machine Learning" style="text;strokeColor=none;align=center;fillColor=none;html=1;verticalAlign=middle;whiteSpace=wrap;rounded=0;fontSize=14;fontColor=#FFFFFF;" vertex="1" parent="1">
          <mxGeometry x="1082.99" y="585" width="89.25" height="30" as="geometry" />
        </mxCell>
        <mxCell id="E9nGVDsH-L22k8IpwY4_-44" value="" style="shape=image;imageAspect=0;aspect=fixed;verticalLabelPosition=bottom;verticalAlign=top;image=data:image/png,iVBORw0KGgoAAAANSUhEUgAAADAAAAAwCAYAAABXAvmHAAAACXBIWXMAAAsTAAALEwEAmpwYAAAIR0lEQVR4nO1Ze4xUVxm/rdi09VFbtOzc75vZbB8byyqIWChQFAwpuLSJ1VqrtQVRq1Ex1Tb2LaZRqLykD1NbAxrTELqiUJg5Z/YBQ6EsUGfOuQuz95y551yW5S20vCmvwJjvziwZMf1zZ+cPfskkc889Z+Z7/r5zvuM4l3EZtQHPDxulto9KZVcKbfYXi8UrnFpHVvd8Vmo7T2pr6CO0fS1XsA8IbU9sDoJPOrWKbdt3DRfKbhcqPOip4BURBEMr3wttCp5vP+fUIqQ290tt9pGQQttjFC5S2/ekMh1S2/miYB6WyqwhTzi1iI1z5p6KQqdQAFJEKjMx6++ICW2/JpR5Wii7WShzQepwqVOLSA8bfqp15MhsEmC0p+1XpTZ7SSF6J1T43cgb2v6acqImE7lt2LDJHPFkCrGHIx5sHzVarn/s8SPvzFuQ37JilZXrO8fRPKlMFyno1CIY4r0MYG86kRjLXPeejubm5W2j78gyAMUAznKAD1qHDe9aO/372zniD1Ox2Lh21x3s1BKY605jiEHrkCEfo+fViMAB1nFEmQZoZwBvtjY1/ZYDLOaImzjAYQ5wiAPsYK47O404pQXxmoFVAmAJA3gljTiKA+zjiM9mHGdQKh7/EkcUffNSrtvIEP/JAI5wgNPcdV9giBkOcJTG0wDfbHGcj1RdgfabbrqOLMvi8RMMcXbL0KFX0Ximvv5qEm5VLHYtA5hLlmeIsxjiTIa4um99GvGGFMDDHHEzQ+xlAAvYLbdUtwCmAZZygHfJ4hzxGENMcoAfU6IzRMUB3uCJRIzmMsROjvidvrU8Hm9iAE9S6KUATnHEInPd3dx176+eAohTOOIa+p5MJK5niA9yAJ+EIcFYIhFV6TTAcAawJ1NfX8cAHuUA3RxxFwP4C4UQB3iaI7akASYyAEOhtSoW+3S/K9AWj7sMYH9ZmRs4YgcD2MYRNzCAX3LEHRxgRarkIcEQ36PcIWZyyuhoaBjCEQ+kY7GonlByM8QXGUAPAxjWrwrMcpwrGeK5NoBbyfLlP36LwihSynXv5gAnOeIFsmzrkCE3Vq4vOs4VHDFFOXLpbxMFEzn0uxIM4AxZkAM8lHbdeNnKzVEIAeQZwI40wI84wDJ6TtbV3XZRSICnOMCGD2MhygeqOcm6uvr+YyLE8xxgK4VFxPukEEBIf55EnMUBWi8qizgjsqrrjuAA32CIOxkA0jvyDgeYwF33JwxxEa0rs9NZjvh6vyjA4vG7GEBnCvHn5UJ1Ju26zxCVkpAM8T+XWo+YiJe89D5HXMgAVtK8ci1ZwxD/zOPxX3GAqRSaVFv6RfhIAYC/RlyPuIlRnLvuZmKWlYMHf4IhagZwH82jGpFsaJjEE4n50dwSbXaTpRniA+2xWKLfhPxQ4ePxmxniibI1SaCFEYMA7ClX2jcYwCPEQlSF28eMfb+juXkZhRp5yBlIEHtEdAmwO2IdxA6yMqur+wxH9HhDw9l0Y+Pp1i+MSFLI0GZOKvOMUOYFpxbAEZ9jiBtTrruQA/w7CfBQuQofJlrcuOilfaKr+2WpTa9QZoNQwX25ILxHKsMGWnaHA3yLikwrbRPi8V3pxsajbXeOP7h26tQnaHeaz+evEtqeyfT0XJ3JZAaVjqF2k1Bmt9R278AK77qTGADF/J4UwOm2UaPe3vLm8pxU5nmpzYs0h05oQtmwch0pIbQ5RIoNmPBJxC/zeJw2bBeIYWh/Q60Uqe0TW3x/sFB2V5dvvhgd7LVtoTW5QuE2ocwaoW1eKjOBzsstxWL1t87p22+fyevrz7fdOf74O/MXtNNYJLQ2h7bke+ro2fPDu6WyVmrzD6Htb6KekTJHhLbPUVjRGVkocz6b3XNtVYVfN33GnPYJE89s+N3vlwltXxc6+AGNR0Iq+/fKuV0FO11qe04qe1Zos4S6F5XvKYSy2exHqyb8xjnz/rjp1dcO5XwzpiSAWSyVnZ5TypXKHvS0bujzhlT22XKr5aBQpktos5XGcsqO3Lq19/psGF4nlfmgasIL304TKthf2WUjgYSyC4Wyy4Qyf+gqhOMpD0oJapYIZZJS29k0N+sHd1BilxjInibrC20OV0f4bnsrWfj/2oZBMFQqc1Ioe5SSVmizTfjmKc/aG4k2pbIHaG3ffAoXqewjQtndnrZtwg86qqKAp8y/hB+socoptJkrtVkutQmktsekNufImtIP7vof5Xw7TWq7jr4Xi8UrpQofJDqVyqTIi0KZx6W2L1VFAaHMIanMn0oKhE9GxajbNMlCuEEo81iZ9/dKbb5O7FK2tM0qM5lyhHqnpAxRZ99vkhGEby+eifsVUpuT+Xz+45VjEato+1ZfyzBqLSrjSWXelcr8TWobSm12RLzvB1+pXEtrpLZ7+ii33yG0XVvZYS5Z3XbLnp5PVQq1NeydJJSVUtsiMYz0bUtOmymXcr1QZiwVM6dayPlmDCWpFwQjaCNGSZjr3l5PFxeyYO8tVWDTKwvhNqHogiNcRLc0FOdCmfVSmVNSWT8KG21flgXTQQXNqSY8ZSZ72h6IChOFhjY9QtvjUtm3iXm6VPj5Ui7YTtq0Va4lD9AcotccUawyx7P5sPqHli2mt0loK6QyKqfMTM/zol4ogeiRFKNqS6xDHvBUOENqs7TcZt8kdPBTT9lfCG1XOQMJQRcY2qwu3ciYV2XBLo4uMko3Mxsjz5S8tETq4HtUqWld586d11CoeYXCaKcWkM2HCanNz4QyvVFlVXYfsY5U4fOeNt+W2o7LBsHNtHUoFTY6hdkVTi0ik8kMigpUafs8j7YX5A2qB+W9/wn6UPIPtKyXcRmX4dQm/guvH+Rcw0PJ2AAAAABJRU5ErkJggg==;fontColor=#FFFFFF;" vertex="1" parent="1">
          <mxGeometry x="367.25" y="100" width="48" height="48" as="geometry" />
        </mxCell>
        <mxCell id="E9nGVDsH-L22k8IpwY4_-45" value="&lt;font style=&quot;font-size: 15px;&quot;&gt;SQL-Server&lt;/font&gt;" style="rounded=0;whiteSpace=wrap;html=1;fontSize=24;strokeColor=none;fillColor=none;fontStyle=2;fontColor=#FFFFFF;" vertex="1" parent="1">
          <mxGeometry x="394.75" y="120" width="120" height="20" as="geometry" />
        </mxCell>
      </root>
    </mxGraphModel>
  </diagram>
</mxfile>
